<?xml version="1.0"?>
<svg width="1080" height="1080" xmlns="http://www.w3.org/2000/svg" xmlns:svg="http://www.w3.org/2000/svg" preserveAspectRatio="xMidYMid meet" transform="translate3d(0px, 0px, 0px)">
 <defs>
  <clipPath id="__lottie_element_2">
   <rect height="1080" id="svg_1" width="1080" x="0" y="0"/>
  </clipPath>
 </defs>
 <g class="layer">
  <title>Layer 1</title>
  <g clip-path="url(#__lottie_element_2)" id="svg_2">
   <g display="block" id="svg_3" transform="matrix(1 0 0 1 566.656 598.632)">
    <g id="svg_4" transform="matrix(1 0 0 1 213.932 182.816)">
     <path d="m-175.09,102.52c-12.13,10.31 -12.42,32.63 -0.57,43.13c-11.47,-3.43 -23.7,-4.04 -35.46,-1.77c-3.18,0.62 -6.49,1.53 -8.83,3.92c-5.45,5.59 -2.07,16.21 4.48,20.17c6.56,3.96 14.64,3.26 22.17,2.48c104.99,-10.87 210.5,-15.77 315.92,-14.67c16.61,0.17 33.85,0.37 49.04,-6.87c15.2,-7.24 27.71,-24.24 24.78,-41.58c-3.89,-23.03 -29.73,-32.18 -51.32,-36.94c18.21,-19.44 36.85,-39.55 46.85,-64.8c9.99,-25.25 9.35,-57.2 -8.43,-76.84c-18.26,-20.19 -52.46,-20.45 -71.24,-0.56c10.18,-19.87 19.63,-41.18 19.72,-63.74c0.09,-22.56 -11.76,-46.57 -32.13,-52.86c-15.54,-4.8 -32.82,1.69 -44.96,13.16c-12.14,11.48 -19.87,27.29 -25.79,43.34c-11.58,31.43 -17.2,65.3 -16.42,98.97c-17.2,-5.64 -34.69,-11.33 -52.72,-11.58c-18.04,-0.25 -37.01,5.69 -49.07,20.01c-12.05,14.31 -14.89,37.96 -3.3,52.55c-11.81,0.28 -23.82,0.6 -35.03,4.61c-11.21,4 -21.7,12.33 -25.67,24.16c-5.7,16.96 3.36,33.16 11.97,46.73c-9.77,-7.49 -24.01,-9.49 -33.99,-1.02z" fill="rgb(249,151,22)" id="svg_5"/>
    </g>
   </g>
   <g display="block" id="svg_6" transform="matrix(1 0 0 1 55.06 684.499)">
    <g id="svg_7" transform="matrix(1 0 0 1 221.526 159.173)">
     <path d="m151.77,83.26c13,7.74 15.33,27.48 4.51,38.15c11.09,-4.35 23.17,-6.3 35.06,-5.63c3.22,0.18 6.59,0.61 9.13,2.46c5.93,4.33 3.54,14.12 -2.61,18.38c-6.14,4.26 -14.23,4.57 -21.78,4.75c-105.27,2.4 -210.5,10.17 -315.09,23.23c-16.48,2.06 -33.58,4.21 -49.34,-0.45c-15.75,-4.67 -29.73,-18.3 -28.41,-34.01c1.75,-20.86 26.58,-31.93 47.58,-38.62c-19.86,-15.13 -40.22,-30.82 -52.45,-52.04c-12.24,-21.23 -14.53,-49.62 1.33,-69.07c16.29,-19.98 50.23,-24.14 70.7,-8.66c-11.93,-16.45 -23.27,-34.24 -25.42,-54.22c-2.15,-19.99 7.41,-42.62 27.07,-50.53c14.99,-6.03 32.74,-2.27 45.85,6.51c13.11,8.77 22.24,21.89 29.58,35.44c14.38,26.53 23.06,55.89 25.37,85.82c16.57,-6.97 33.42,-14.02 51.3,-16.31c17.89,-2.29 37.28,0.8 50.56,12.1c13.29,11.3 18.27,31.93 8.1,46.19c11.74,-1.1 23.71,-2.2 35.21,0.06c11.5,2.26 22.67,8.44 27.7,18.46c7.22,14.38 -0.31,29.78 -7.61,42.79c9.02,-7.76 22.98,-11.17 33.66,-4.8z" fill="rgb(249,151,22)" id="svg_8"/>
    </g>
   </g>
   <g display="block" id="svg_9" transform="matrix(0.996613 -0.0822294 0.0822294 0.996613 638.663 84.0049)">
    <g id="svg_10" transform="matrix(1 0 0 1 66.555 99.065)">
     <path d="m41.34,-62.54c-24.05,-36.84 -77.63,-37.88 -103.39,-2.02c-13.87,19.31 -15.89,43.77 -6.36,65.14c0,0 38.88,87.36 38.88,87.36c3.81,8.56 15.68,9.28 20.5,1.25c0,0 51.09,-85.01 51.09,-85.01c12.52,-20.84 12.62,-46.31 -0.72,-66.72zm-52.78,72.33c-17.82,0 -32.25,-14.45 -32.25,-32.25c0,-17.81 14.43,-32.24 32.25,-32.24c17.81,0 32.25,14.43 32.25,32.24c0,17.8 -14.44,32.25 -32.25,32.25z" fill="rgb(249,151,22)" id="svg_11"/>
    </g>
   </g>
   <g display="block" id="svg_12" transform="matrix(1 0 0 1 860.805 135.477)">
    <g id="svg_13" transform="matrix(1 0 0 1 15.903 15.903)">
     <path d="m-3.32,-0.64c0,4.64 -3.76,8.4 -8.4,8.4c-4.64,0 -8.4,-3.76 -8.4,-8.4c0,-4.64 3.76,-8.4 8.4,-8.4c4.64,0 8.4,3.76 8.4,8.4z" fill-opacity="0" id="svg_14" stroke="rgb(0,0,0)" stroke-miterlimit="10" stroke-width="3"/>
    </g>
    <g id="svg_15" transform="matrix(1 0 0 1 15.903 56.014)">
     <path d="m-3.32,-0.64c0,4.64 -3.76,8.4 -8.4,8.4c-4.64,0 -8.4,-3.76 -8.4,-8.4c0,-4.64 3.76,-8.4 8.4,-8.4c4.64,0 8.4,3.76 8.4,8.4z" fill-opacity="0" id="svg_16" stroke="rgb(0,0,0)" stroke-miterlimit="10" stroke-width="3"/>
    </g>
    <g id="svg_17" transform="matrix(1 0 0 1 15.903 96.125)">
     <path d="m-3.32,-0.64c0,4.64 -3.76,8.4 -8.4,8.4c-4.64,0 -8.4,-3.76 -8.4,-8.4c0,-4.64 3.76,-8.4 8.4,-8.4c4.64,0 8.4,3.76 8.4,8.4z" fill-opacity="0" id="svg_18" stroke="rgb(0,0,0)" stroke-miterlimit="10" stroke-width="3"/>
    </g>
    <g id="svg_19" transform="matrix(1 0 0 1 15.903 136.236)">
     <path d="m-3.32,-0.64c0,4.64 -3.76,8.4 -8.4,8.4c-4.64,0 -8.4,-3.76 -8.4,-8.4c0,-4.64 3.76,-8.4 8.4,-8.4c4.64,0 8.4,3.76 8.4,8.4z" fill-opacity="0" id="svg_20" stroke="rgb(0,0,0)" stroke-miterlimit="10" stroke-width="3"/>
    </g>
    <g id="svg_21" transform="matrix(1 0 0 1 15.903 176.347)">
     <path d="m-3.32,-0.64c0,4.64 -3.76,8.4 -8.4,8.4c-4.64,0 -8.4,-3.76 -8.4,-8.4c0,-4.64 3.76,-8.4 8.4,-8.4c4.64,0 8.4,3.76 8.4,8.4z" fill-opacity="0" id="svg_22" stroke="rgb(0,0,0)" stroke-miterlimit="10" stroke-width="3"/>
    </g>
    <g id="svg_23" transform="matrix(1 0 0 1 54.769 15.903)">
     <path d="m-3.32,-0.64c0,4.64 -3.76,8.4 -8.4,8.4c-4.64,0 -8.4,-3.76 -8.4,-8.4c0,-4.64 3.76,-8.4 8.4,-8.4c4.64,0 8.4,3.76 8.4,8.4z" fill-opacity="0" id="svg_24" stroke="rgb(0,0,0)" stroke-miterlimit="10" stroke-width="3"/>
    </g>
    <g id="svg_25" transform="matrix(1 0 0 1 54.769 56.014)">
     <path d="m-3.32,-0.64c0,4.64 -3.76,8.4 -8.4,8.4c-4.64,0 -8.4,-3.76 -8.4,-8.4c0,-4.64 3.76,-8.4 8.4,-8.4c4.64,0 8.4,3.76 8.4,8.4z" fill-opacity="0" id="svg_26" stroke="rgb(0,0,0)" stroke-miterlimit="10" stroke-width="3"/>
    </g>
    <g id="svg_27" transform="matrix(1 0 0 1 54.769 96.125)">
     <path d="m-3.32,-0.64c0,4.64 -3.76,8.4 -8.4,8.4c-4.64,0 -8.4,-3.76 -8.4,-8.4c0,-4.64 3.76,-8.4 8.4,-8.4c4.64,0 8.4,3.76 8.4,8.4z" fill-opacity="0" id="svg_28" stroke="rgb(0,0,0)" stroke-miterlimit="10" stroke-width="3"/>
    </g>
    <g id="svg_29" transform="matrix(1 0 0 1 54.769 136.236)">
     <path d="m-3.32,-0.64c0,4.64 -3.76,8.4 -8.4,8.4c-4.64,0 -8.4,-3.76 -8.4,-8.4c0,-4.64 3.76,-8.4 8.4,-8.4c4.64,0 8.4,3.76 8.4,8.4z" fill-opacity="0" id="svg_30" stroke="rgb(0,0,0)" stroke-miterlimit="10" stroke-width="3"/>
    </g>
    <g id="svg_31" transform="matrix(1 0 0 1 54.769 176.347)">
     <path d="m-3.32,-0.64c0,4.64 -3.76,8.4 -8.4,8.4c-4.64,0 -8.4,-3.76 -8.4,-8.4c0,-4.64 3.76,-8.4 8.4,-8.4c4.64,0 8.4,3.76 8.4,8.4z" fill-opacity="0" id="svg_32" stroke="rgb(0,0,0)" stroke-miterlimit="10" stroke-width="3"/>
    </g>
    <g id="svg_33" transform="matrix(1 0 0 1 93.635 15.903)">
     <path d="m-3.32,-0.64c0,4.64 -3.76,8.4 -8.4,8.4c-4.64,0 -8.4,-3.76 -8.4,-8.4c0,-4.64 3.76,-8.4 8.4,-8.4c4.64,0 8.4,3.76 8.4,8.4z" fill-opacity="0" id="svg_34" stroke="rgb(0,0,0)" stroke-miterlimit="10" stroke-width="3"/>
    </g>
    <g id="svg_35" transform="matrix(1 0 0 1 93.635 56.014)">
     <path d="m-3.32,-0.64c0,4.64 -3.76,8.4 -8.4,8.4c-4.64,0 -8.4,-3.76 -8.4,-8.4c0,-4.64 3.76,-8.4 8.4,-8.4c4.64,0 8.4,3.76 8.4,8.4z" fill-opacity="0" id="svg_36" stroke="rgb(0,0,0)" stroke-miterlimit="10" stroke-width="3"/>
    </g>
    <g id="svg_37" transform="matrix(1 0 0 1 93.635 96.125)">
     <path d="m-3.32,-0.64c0,4.64 -3.76,8.4 -8.4,8.4c-4.64,0 -8.4,-3.76 -8.4,-8.4c0,-4.64 3.76,-8.4 8.4,-8.4c4.64,0 8.4,3.76 8.4,8.4z" fill-opacity="0" id="svg_38" stroke="rgb(0,0,0)" stroke-miterlimit="10" stroke-width="3"/>
    </g>
    <g id="svg_39" transform="matrix(1 0 0 1 93.635 136.236)">
     <path d="m-3.32,-0.64c0,4.64 -3.76,8.4 -8.4,8.4c-4.64,0 -8.4,-3.76 -8.4,-8.4c0,-4.64 3.76,-8.4 8.4,-8.4c4.64,0 8.4,3.76 8.4,8.4z" fill-opacity="0" id="svg_40" stroke="rgb(0,0,0)" stroke-miterlimit="10" stroke-width="3"/>
    </g>
    <g id="svg_41" transform="matrix(1 0 0 1 93.635 176.347)">
     <path d="m-3.32,-0.64c0,4.64 -3.76,8.4 -8.4,8.4c-4.64,0 -8.4,-3.76 -8.4,-8.4c0,-4.64 3.76,-8.4 8.4,-8.4c4.64,0 8.4,3.76 8.4,8.4z" fill-opacity="0" id="svg_42" stroke="rgb(0,0,0)" stroke-miterlimit="10" stroke-width="3"/>
    </g>
    <g id="svg_43" transform="matrix(1 0 0 1 132.502 15.903)">
     <path d="m-3.32,-0.64c0,4.64 -3.76,8.4 -8.4,8.4c-4.64,0 -8.4,-3.76 -8.4,-8.4c0,-4.64 3.76,-8.4 8.4,-8.4c4.64,0 8.4,3.76 8.4,8.4z" fill-opacity="0" id="svg_44" stroke="rgb(0,0,0)" stroke-miterlimit="10" stroke-width="3"/>
    </g>
    <g id="svg_45" transform="matrix(1 0 0 1 132.502 56.014)">
     <path d="m-3.32,-0.64c0,4.64 -3.76,8.4 -8.4,8.4c-4.64,0 -8.4,-3.76 -8.4,-8.4c0,-4.64 3.76,-8.4 8.4,-8.4c4.64,0 8.4,3.76 8.4,8.4z" fill-opacity="0" id="svg_46" stroke="rgb(0,0,0)" stroke-miterlimit="10" stroke-width="3"/>
    </g>
    <g id="svg_47" transform="matrix(1 0 0 1 132.502 96.125)">
     <path d="m-3.32,-0.64c0,4.64 -3.76,8.4 -8.4,8.4c-4.64,0 -8.4,-3.76 -8.4,-8.4c0,-4.64 3.76,-8.4 8.4,-8.4c4.64,0 8.4,3.76 8.4,8.4z" fill-opacity="0" id="svg_48" stroke="rgb(0,0,0)" stroke-miterlimit="10" stroke-width="3"/>
    </g>
    <g id="svg_49" transform="matrix(1 0 0 1 132.502 136.236)">
     <path d="m-3.32,-0.64c0,4.64 -3.76,8.4 -8.4,8.4c-4.64,0 -8.4,-3.76 -8.4,-8.4c0,-4.64 3.76,-8.4 8.4,-8.4c4.64,0 8.4,3.76 8.4,8.4z" fill-opacity="0" id="svg_50" stroke="rgb(0,0,0)" stroke-miterlimit="10" stroke-width="3"/>
    </g>
    <g id="svg_51" transform="matrix(1 0 0 1 132.502 176.347)">
     <path d="m-3.32,-0.64c0,4.64 -3.76,8.4 -8.4,8.4c-4.64,0 -8.4,-3.76 -8.4,-8.4c0,-4.64 3.76,-8.4 8.4,-8.4c4.64,0 8.4,3.76 8.4,8.4z" fill-opacity="0" id="svg_52" stroke="rgb(0,0,0)" stroke-miterlimit="10" stroke-width="3"/>
    </g>
   </g>
   <g display="block" id="svg_83" transform="matrix(1 0 0 1 933.021 525.464)">
    <g id="svg_84" transform="matrix(1 0 0 1 45.824 45.824)">
     <path d="m33.86,-0.64c0,25.17 -20.41,45.57 -45.58,45.57c-25.17,0 -45.58,-20.4 -45.58,-45.57c0,-25.17 20.41,-45.57 45.58,-45.57c25.17,0 45.58,20.4 45.58,45.57z" fill="rgb(249,151,22)" id="svg_85"/>
    </g>
   </g>
   <g display="block" id="svg_86" transform="matrix(0.988142 0 0 0.988142 473.147 362.195)">
    <g id="svg_87" transform="matrix(1 0 0 1 304.93 66.044)">
     <path d="m18.99,-36.87c10.36,-0.4 21.78,0.01 29.46,6.95c4.27,3.85 6.82,9.33 8.04,14.95c1.22,5.62 1.21,11.42 1.04,17.17c-0.21,7.64 -0.78,15.59 -4.57,22.23c-3.79,6.65 -11.71,11.54 -19.06,9.44c-7.35,-2.09 -11.34,-9.9 -13.78,-17.13c-2.44,-7.24 -4.56,-15.24 -10.63,-19.87c-5.72,-4.37 -14.35,-4.41 -20.11,-0.1c-4.37,3.28 -6.97,8.57 -11.51,11.62c-3.86,2.6 -8.67,3.27 -13.29,3.87c-15.26,2 -30.52,3.99 -45.78,5.98c-0.23,0.03 3.26,-24.92 3.8,-27.19c0.84,-3.54 1.36,-8.86 3.63,-11.8c1.55,-2.01 4.09,-2.17 6.41,-2.75c18.05,-4.55 36.06,-8.53 54.56,-10.81c10.56,-1.3 21.17,-2.15 31.79,-2.56z" fill="rgb(247,243,235)" id="svg_88"/>
     <path d="m18.99,-36.87c10.36,-0.4 21.78,0.01 29.46,6.95c4.27,3.85 6.82,9.33 8.04,14.95c1.22,5.62 1.21,11.42 1.04,17.17c-0.21,7.64 -0.78,15.59 -4.57,22.23c-3.79,6.65 -11.71,11.54 -19.06,9.44c-7.35,-2.09 -11.34,-9.9 -13.78,-17.13c-2.44,-7.24 -4.56,-15.24 -10.63,-19.87c-5.72,-4.37 -14.35,-4.41 -20.11,-0.1c-4.37,3.28 -6.97,8.57 -11.51,11.62c-3.86,2.6 -8.67,3.27 -13.29,3.87c-15.26,2 -30.52,3.99 -45.78,5.98c-0.23,0.03 3.26,-24.92 3.8,-27.19c0.84,-3.54 1.36,-8.86 3.63,-11.8c1.55,-2.01 4.09,-2.17 6.41,-2.75c18.05,-4.55 36.06,-8.53 54.56,-10.81c10.56,-1.3 21.17,-2.15 31.79,-2.56z" fill-opacity="0" id="svg_89" stroke="rgb(0,0,0)" stroke-miterlimit="10" stroke-width="3"/>
    </g>
    <g id="svg_90" transform="matrix(1 0 0 1 120.3 70.32)">
     <path d="m-66.66,-63.47c16.02,20.85 32.04,41.71 48.07,62.56c39.84,-10.09 79.69,-20.18 119.53,-30.27c-1.23,18.37 -3.36,38.68 -17.01,51.03c-7.06,6.39 -16.29,9.69 -25.27,12.85c-16.33,5.74 -32.66,11.48 -48.99,17.23c-17.3,6.08 -35.91,12.24 -53.63,7.48c-17.26,-4.63 -30.11,-18.68 -41.94,-32.07c-12.92,-14.63 -25.84,-29.26 -38.76,-43.88" fill="rgb(249,151,22)" id="svg_91"/>
     <path d="m-66.66,-63.47c16.02,20.85 32.04,41.71 48.07,62.56c39.84,-10.09 79.69,-20.18 119.53,-30.27c-1.23,18.37 -3.36,38.68 -17.01,51.03c-7.06,6.39 -16.29,9.69 -25.27,12.85c-16.33,5.74 -32.66,11.48 -48.99,17.23c-17.3,6.08 -35.91,12.24 -53.63,7.48c-17.26,-4.63 -30.11,-18.68 -41.94,-32.07c-12.92,-14.63 -25.84,-29.26 -38.76,-43.88" fill-opacity="0" id="svg_92" stroke="rgb(0,0,0)" stroke-miterlimit="10" stroke-width="3"/>
    </g>
    <g id="svg_93" transform="matrix(1 0 0 1 234.616 66.314)">
     <path d="m-39.08,27.61c-0.5,1.62 -1.01,3.29 -0.87,4.98c0.15,1.7 1.11,3.44 2.73,3.98c1.15,0.38 2.41,0.1 3.59,-0.18c0,0 14.16,-3.38 14.16,-3.38c2.92,-0.7 5.94,-1.44 8.37,-3.2c3.51,-2.54 5.28,-6.78 6.89,-10.81c6.34,-15.87 12.67,-31.75 19.01,-47.62c0.79,-1.97 1.58,-4.18 0.78,-6.14c-1.32,-3.22 -5.74,-3.49 -9.18,-2.99c-5.33,0.78 -10.57,2.14 -15.61,4.03c-3.74,1.4 -10.53,3.35 -12.8,6.81c-2.76,4.2 -3.61,11.41 -5.11,16.23c-1.87,5.98 -3.73,11.95 -5.6,17.93c-2.12,6.78 -4.24,13.57 -6.36,20.36z" fill="rgb(244,244,244)" id="svg_94"/>
     <path d="m-39.08,27.61c-0.5,1.62 -1.01,3.29 -0.87,4.98c0.15,1.7 1.11,3.44 2.73,3.98c1.15,0.38 2.41,0.1 3.59,-0.18c0,0 14.16,-3.38 14.16,-3.38c2.92,-0.7 5.94,-1.44 8.37,-3.2c3.51,-2.54 5.28,-6.78 6.89,-10.81c6.34,-15.87 12.67,-31.75 19.01,-47.62c0.79,-1.97 1.58,-4.18 0.78,-6.14c-1.32,-3.22 -5.74,-3.49 -9.18,-2.99c-5.33,0.78 -10.57,2.14 -15.61,4.03c-3.74,1.4 -10.53,3.35 -12.8,6.81c-2.76,4.2 -3.61,11.41 -5.11,16.23c-1.87,5.98 -3.73,11.95 -5.6,17.93c-2.12,6.78 -4.24,13.57 -6.36,20.36z" fill-opacity="0" id="svg_95" stroke="rgb(0,0,0)" stroke-miterlimit="10" stroke-width="3"/>
    </g>
   </g>
   <g display="block" id="svg_96" transform="matrix(0.988142 0 0 0.988142 369.79 317.031)">
    <g id="svg_97" transform="matrix(1 0 0 1 95.732 176.46)">
     <path d="m-72.53,-118.34c-14.86,25.39 -20.22,55.25 -22.18,84.61c-4.28,64.14 6.65,129.25 31.66,188.48c31.56,-13.16 63.13,-26.31 94.7,-39.47c6.6,-2.75 13.54,-5.76 17.71,-11.57c3.76,-5.24 4.67,-11.95 5.46,-18.35c6.1,-49.36 12.2,-98.72 18.3,-148.08c2.19,-17.77 4.35,-36.06 -0.31,-53.34c-4.45,-16.48 -15.21,-31.17 -29.58,-40.38c-41.69,-26.73 -93.02,-0.75 -115.76,38.1z" fill="rgb(249,151,22)" id="svg_98"/>
     <path d="m-72.53,-118.34c-14.86,25.39 -20.22,55.25 -22.18,84.61c-4.28,64.14 6.65,129.25 31.66,188.48c31.56,-13.16 63.13,-26.31 94.7,-39.47c6.6,-2.75 13.54,-5.76 17.71,-11.57c3.76,-5.24 4.67,-11.95 5.46,-18.35c6.1,-49.36 12.2,-98.72 18.3,-148.08c2.19,-17.77 4.35,-36.06 -0.31,-53.34c-4.45,-16.48 -15.21,-31.17 -29.58,-40.38c-41.69,-26.73 -93.02,-0.75 -115.76,38.1z" fill-opacity="0" id="svg_99" stroke="rgb(0,0,0)" stroke-miterlimit="10" stroke-width="3"/>
    </g>
   </g>
   <g display="block" id="svg_100" transform="matrix(0.982513 0.105317 -0.105317 0.982513 474.391 259.3)">
    <g id="svg_101" transform="matrix(1 0 0 1 33.761 69.478)">
     <path d="m-36.8,6.74c-0.68,5.55 -1.32,11.38 0.76,16.56c1.92,4.78 5.9,8.37 9.74,11.79c9.04,8.03 18.08,16.05 27.12,24.08c1.89,1.67 4.64,3.43 6.71,1.98c1.39,-0.97 1.62,-2.89 1.73,-4.58c1.51,-23.39 3.03,-46.78 4.54,-70.17c0.3,-4.66 0.6,-9.37 -0.3,-13.95c-1.79,-9.17 -8.28,-16.88 -15.97,-22.17c-6.34,-4.35 -13.52,-7.33 -20.72,-9.95c-4.65,-1.69 -5.27,-1.61 -5.92,3.36c-0.57,4.34 -1.06,8.69 -1.59,13.03c-2.04,16.67 -4.07,33.35 -6.1,50.02z" fill="rgb(247,243,235)" id="svg_102"/>
     <path d="m-36.8,6.74c-0.68,5.55 -1.32,11.38 0.76,16.56c1.92,4.78 5.9,8.37 9.74,11.79c9.04,8.03 18.08,16.05 27.12,24.08c1.89,1.67 4.64,3.43 6.71,1.98c1.39,-0.97 1.62,-2.89 1.73,-4.58c1.51,-23.39 3.03,-46.78 4.54,-70.17c0.3,-4.66 0.6,-9.37 -0.3,-13.95c-1.79,-9.17 -8.28,-16.88 -15.97,-22.17c-6.34,-4.35 -13.52,-7.33 -20.72,-9.95c-4.65,-1.69 -5.27,-1.61 -5.92,3.36c-0.57,4.34 -1.06,8.69 -1.59,13.03c-2.04,16.67 -4.07,33.35 -6.1,50.02z" fill-opacity="0" id="svg_103" stroke="rgb(0,0,0)" stroke-miterlimit="10" stroke-width="3"/>
    </g>
   </g>
   <g display="block" id="svg_104" transform="matrix(0.982513 0.105317 -0.105317 0.982513 483.689 268.079)">
    <g id="svg_105" transform="matrix(1 0 0 1 29.766 36.352)">
     <path d="m-23.12,6.8c6.88,10.24 16.99,18.28 28.51,22.67c2.55,-8.48 5.02,-17.97 1.01,-25.86c-2.15,-4.23 -5.89,-7.38 -9.6,-10.33c-7.89,-6.31 -16.06,-12.27 -24.46,-17.87c-1.28,-0.86 -4.13,-3.64 -5.43,-2.45c-1.04,0.95 -0.05,5.5 0.09,6.76c0.5,4.55 1.52,9.04 3.03,13.37c1.69,4.84 3.99,9.45 6.85,13.71z" fill="rgb(0,0,0)" id="svg_106"/>
     <path d="m-23.12,6.8c6.88,10.24 16.99,18.28 28.51,22.67c2.55,-8.48 5.02,-17.97 1.01,-25.86c-2.15,-4.23 -5.89,-7.38 -9.6,-10.33c-7.89,-6.31 -16.06,-12.27 -24.46,-17.87c-1.28,-0.86 -4.13,-3.64 -5.43,-2.45c-1.04,0.95 -0.05,5.5 0.09,6.76c0.5,4.55 1.52,9.04 3.03,13.37c1.69,4.84 3.99,9.45 6.85,13.71z" fill-opacity="0" id="svg_107" stroke="rgb(0,0,0)" stroke-miterlimit="10" stroke-width="3"/>
    </g>
   </g>
   <g display="block" id="svg_108" transform="matrix(0.982513 0.105317 -0.105317 0.982513 490.843 170.064)">
    <g id="svg_109" transform="matrix(1 0 0 1 56.073 79.122)">
     <path d="m33.45,0.07c-0.23,9.99 0.31,20.03 -0.92,29.95c-1.23,9.91 -4.41,19.91 -11.09,27.34c-10.49,11.68 -28.58,14.88 -43.35,9.54c-14.76,-5.33 -26.1,-18.13 -31.93,-32.71c-5.83,-14.58 -6.59,-30.78 -4.69,-46.37c1.35,-11.06 4.09,-22.15 9.88,-31.67c6.43,-10.59 16.6,-18.86 28.27,-23c11.68,-4.15 24.79,-4.15 36.46,0.01c4.94,1.76 9.71,4.3 13.27,8.16c6.02,6.55 7.36,15.47 6.66,23.91c-0.96,11.61 -2.29,23.19 -2.56,34.84z" fill="rgb(227,243,235)" id="svg_110"/>
     <path d="m33.45,0.07c-0.23,9.99 0.31,20.03 -0.92,29.95c-1.23,9.91 -4.41,19.91 -11.09,27.34c-10.49,11.68 -28.58,14.88 -43.35,9.54c-14.76,-5.33 -26.1,-18.13 -31.93,-32.71c-5.83,-14.58 -6.59,-30.78 -4.69,-46.37c1.35,-11.06 4.09,-22.15 9.88,-31.67c6.43,-10.59 16.6,-18.86 28.27,-23c11.68,-4.15 24.79,-4.15 36.46,0.01c4.94,1.76 9.71,4.3 13.27,8.16c6.02,6.55 7.36,15.47 6.66,23.91c-0.96,11.61 -2.29,23.19 -2.56,34.84z" fill-opacity="0" id="svg_111" stroke="rgb(0,0,0)" stroke-miterlimit="10" stroke-width="3"/>
    </g>
   </g>
   <g display="block" id="svg_112" transform="matrix(0.982513 0.105317 -0.105317 0.982513 460.938 138.001)">
    <g id="svg_113" transform="matrix(1 0 0 1 73.965 73.115)">
     <path d="m53.25,-9.85c-1.33,1.58 -3.69,1.7 -5.76,1.66c-1.7,-0.04 -3.41,-0.1 -5.11,-0.2c-4.93,-0.26 -9.86,-0.69 -14.77,-0.96c-0.09,0 -0.16,-0.01 -0.23,-0.01c-4.77,-0.24 -9.55,-0.3 -14.29,0.13c-0.11,0 -0.21,0 -0.31,0.01c-1,0.11 -2,0.21 -2.99,0.36c-3.81,0.54 -7.64,1.53 -11.26,2.99c-8.26,3.35 -15.36,9.12 -18.38,17.34c-3.03,8.25 -1.45,17.37 -1.08,26.14c0.35,8.79 -1.16,18.72 -8.2,23.97c-5.18,3.83 -12.06,4.19 -18.51,4.4c-7.5,0.25 -15.89,0.18 -21.25,-5.05c-3.87,-3.77 -5.21,-9.34 -6.14,-14.64c-2.84,-16.17 -3.29,-32.91 0.25,-48.95c3.54,-16.03 11.23,-31.35 23.09,-42.69c5.02,-4.79 10.8,-8.81 17.05,-11.84c2.29,-1.11 4.64,-2.07 7.04,-2.88c3.3,-1.12 6.68,-1.98 10.15,-2.57c1.18,-0.21 2.38,-0.43 3.56,-0.66c0.05,-0.02 0.11,-0.02 0.15,-0.02c3.46,-0.67 6.95,-1.34 10.23,-1.56c1.55,-0.11 3.13,-0.11 4.68,0c0.03,0 0.07,0 0.1,0.01c7.04,0.52 14.03,3.09 20.38,6.64c0,0 0.02,0 0.02,0c3.28,1.84 6.39,3.95 9.25,6.14c11.59,8.9 19.87,21.98 22.97,36.26c0.44,2.04 0.71,4.39 -0.64,5.98z" fill="rgb(242,151,22)" id="svg_114"/>
     <path d="m53.25,-9.85c-1.33,1.58 -3.69,1.7 -5.76,1.66c-1.7,-0.04 -3.41,-0.1 -5.11,-0.2c-4.93,-0.26 -9.86,-0.69 -14.77,-0.96c-0.09,0 -0.16,-0.01 -0.23,-0.01c-4.77,-0.24 -9.55,-0.3 -14.29,0.13c-0.11,0 -0.21,0 -0.31,0.01c-1,0.11 -2,0.21 -2.99,0.36c-3.81,0.54 -7.64,1.53 -11.26,2.99c-8.26,3.35 -15.36,9.12 -18.38,17.34c-3.03,8.25 -1.45,17.37 -1.08,26.14c0.35,8.79 -1.16,18.72 -8.2,23.97c-5.18,3.83 -12.06,4.19 -18.51,4.4c-7.5,0.25 -15.89,0.18 -21.25,-5.05c-3.87,-3.77 -5.21,-9.34 -6.14,-14.64c-2.84,-16.17 -3.29,-32.91 0.25,-48.95c3.54,-16.03 11.23,-31.35 23.09,-42.69c5.02,-4.79 10.8,-8.81 17.05,-11.84c2.29,-1.11 4.64,-2.07 7.04,-2.88c3.3,-1.12 6.68,-1.98 10.15,-2.57c1.18,-0.21 2.38,-0.43 3.56,-0.66c0.05,-0.02 0.11,-0.02 0.15,-0.02c3.46,-0.67 6.95,-1.34 10.23,-1.56c1.55,-0.11 3.13,-0.11 4.68,0c0.03,0 0.07,0 0.1,0.01c7.04,0.52 14.03,3.09 20.38,6.64c0,0 0.02,0 0.02,0c3.28,1.84 6.39,3.95 9.25,6.14c11.59,8.9 19.87,21.98 22.97,36.26c0.44,2.04 0.71,4.39 -0.64,5.98z" fill-opacity="0" id="svg_115" stroke="rgb(0,0,0)" stroke-miterlimit="10" stroke-width="3"/>
    </g>
    <g id="svg_116" transform="matrix(1 0 0 1 35.513 110.457)">
     <path d="m-22.98,-7.67c-2.69,5.03 -3.29,11.13 -1.65,16.59c0.85,2.84 2.34,5.58 4.7,7.39c4.4,3.39 11.1,2.69 15.44,-0.78c4.35,-3.46 6.52,-9.12 6.82,-14.67c0.22,-4.19 -0.56,-8.55 -2.89,-12.05c-2.13,-3.22 -7.42,-7.27 -11.57,-6.28c-4.54,1.08 -8.76,5.87 -10.85,9.8z" fill="rgb(0,0,0)" id="svg_117"/>
     <path d="m-22.98,-7.67c-2.69,5.03 -3.29,11.13 -1.65,16.59c0.85,2.84 2.34,5.58 4.7,7.39c4.4,3.39 11.1,2.69 15.44,-0.78c4.35,-3.46 6.52,-9.12 6.82,-14.67c0.22,-4.19 -0.56,-8.55 -2.89,-12.05c-2.13,-3.22 -7.42,-7.27 -11.57,-6.28c-4.54,1.08 -8.76,5.87 -10.85,9.8z" fill-opacity="0" id="svg_118" stroke="rgb(0,0,0)" stroke-miterlimit="10" stroke-width="3"/>
    </g>
    <g id="svg_119" transform="matrix(1 0 0 1 78.57 37.915)">
     <path d="m8.49,25.96c-0.11,0 -0.22,0.01 -0.32,0.02c-1,0.11 -2,0.22 -2.99,0.36c-3.8,0.53 -7.64,1.53 -11.26,3c-3.78,-18.99 -12.81,-36.99 -26.13,-54.21c3.3,-1.12 6.69,-1.98 10.16,-2.58c1.18,-0.19 2.37,-0.43 3.56,-0.65c9.12,11.77 16.32,24.23 21.54,37.42c0.08,0.19 0.15,0.36 0.21,0.53c2.06,5.25 3.81,10.63 5.23,16.11z" fill="rgb(244,244,244)" id="svg_120"/>
     <path d="m8.49,25.96c-0.11,0 -0.22,0.01 -0.32,0.02c-1,0.11 -2,0.22 -2.99,0.36c-3.8,0.53 -7.64,1.53 -11.26,3c-3.78,-18.99 -12.81,-36.99 -26.13,-54.21c3.3,-1.12 6.69,-1.98 10.16,-2.58c1.18,-0.19 2.37,-0.43 3.56,-0.65c9.12,11.77 16.32,24.23 21.54,37.42c0.08,0.19 0.15,0.36 0.21,0.53c2.06,5.25 3.81,10.63 5.23,16.11z" fill-opacity="0" id="svg_121" stroke="rgb(0,0,0)" stroke-miterlimit="10" stroke-width="3"/>
    </g>
    <g id="svg_122" transform="matrix(1 0 0 1 107.6 35.865)">
     <path d="m8.74,28.87c-4.92,-0.27 -9.85,-0.7 -14.77,-0.97c-0.08,0 -0.15,-0.01 -0.23,-0.01c-1.15,-5.43 -2.67,-10.77 -4.54,-16.03c-0.2,-0.55 -0.41,-1.13 -0.62,-1.69c-0.2,-0.56 -0.41,-1.11 -0.63,-1.66c-0.57,-1.48 -1.18,-2.98 -1.83,-4.47c-0.62,-1.47 -1.29,-2.95 -1.99,-4.42c-0.3,-0.64 -0.61,-1.29 -0.92,-1.92c-0.67,-1.36 -1.36,-2.72 -2.07,-4.07c-3.82,-7.19 -8.35,-14.26 -13.6,-21.26c0.03,0 0.06,0 0.09,0.01c7.04,0.51 14.03,3.09 20.39,6.65c0,0 0.01,0 0.01,0c10.06,15.52 17,32.12 20.71,49.84z" fill="rgb(244,244,244)" id="svg_123"/>
     <path d="m8.74,28.87c-4.92,-0.27 -9.85,-0.7 -14.77,-0.97c-0.08,0 -0.15,-0.01 -0.23,-0.01c-1.15,-5.43 -2.67,-10.77 -4.54,-16.03c-0.2,-0.55 -0.41,-1.13 -0.62,-1.69c-0.2,-0.56 -0.41,-1.11 -0.63,-1.66c-0.57,-1.48 -1.18,-2.98 -1.83,-4.47c-0.62,-1.47 -1.29,-2.95 -1.99,-4.42c-0.3,-0.64 -0.61,-1.29 -0.92,-1.92c-0.67,-1.36 -1.36,-2.72 -2.07,-4.07c-3.82,-7.19 -8.35,-14.26 -13.6,-21.26c0.03,0 0.06,0 0.09,0.01c7.04,0.51 14.03,3.09 20.39,6.65c0,0 0.01,0 0.01,0c10.06,15.52 17,32.12 20.71,49.84z" fill-opacity="0" id="svg_124" stroke="rgb(0,0,0)" stroke-miterlimit="10" stroke-width="3"/>
    </g>
    <g id="svg_125" transform="matrix(1 0 0 1 92.755 35.39)">
     <path d="m8.81,28.38c-0.08,0 -0.15,-0.01 -0.23,-0.01c-4.76,-0.24 -9.54,-0.31 -14.28,0.12c-0.11,0 -0.21,0.01 -0.32,0.02c-1.27,-5.47 -2.91,-10.84 -4.9,-16.13c-0.06,-0.17 -0.13,-0.35 -0.21,-0.53c-4.95,-12.92 -12.08,-25.32 -21.4,-37.45c3.45,-0.66 6.94,-1.33 10.23,-1.56c1.55,-0.11 3.12,-0.1 4.68,0.01c0.04,0 0.06,0 0.1,0.01c5.16,6.85 9.67,13.93 13.5,21.25c0.72,1.35 1.4,2.7 2.07,4.06c0.32,0.64 0.62,1.28 0.93,1.93c0.68,1.46 1.35,2.93 1.98,4.42c0.63,1.48 1.24,2.97 1.83,4.47c0.23,0.55 0.44,1.1 0.63,1.65c0.21,0.57 0.42,1.14 0.62,1.7c1.91,5.23 3.5,10.58 4.77,16.04z" fill="rgb(244,244,244)" id="svg_126"/>
     <path d="m8.81,28.38c-0.08,0 -0.15,-0.01 -0.23,-0.01c-4.76,-0.24 -9.54,-0.31 -14.28,0.12c-0.11,0 -0.21,0.01 -0.32,0.02c-1.27,-5.47 -2.91,-10.84 -4.9,-16.13c-0.06,-0.17 -0.13,-0.35 -0.21,-0.53c-4.95,-12.92 -12.08,-25.32 -21.4,-37.45c3.45,-0.66 6.94,-1.33 10.23,-1.56c1.55,-0.11 3.12,-0.1 4.68,0.01c0.04,0 0.06,0 0.1,0.01c5.16,6.85 9.67,13.93 13.5,21.25c0.72,1.35 1.4,2.7 2.07,4.06c0.32,0.64 0.62,1.28 0.93,1.93c0.68,1.46 1.35,2.93 1.98,4.42c0.63,1.48 1.24,2.97 1.83,4.47c0.23,0.55 0.44,1.1 0.63,1.65c0.21,0.57 0.42,1.14 0.62,1.7c1.91,5.23 3.5,10.58 4.77,16.04z" fill-opacity="0" id="svg_127" stroke="rgb(0,0,0)" stroke-miterlimit="10" stroke-width="3"/>
    </g>
    <g id="svg_128" transform="matrix(1 0 0 1 104.546 70.485)">
     <path d="m30.02,2.71c1,2.42 1.91,5.48 0.14,7.41c-1.1,1.21 -2.86,1.49 -4.48,1.69c-15.1,1.93 -30.2,3.86 -45.3,5.79c-11.26,1.44 -22.73,2.87 -33.9,0.89c-2.13,-7.16 -0.07,-15.18 4.42,-21.15c4.48,-5.97 11.16,-10.05 18.23,-12.44c7.07,-2.4 14.58,-3.24 22.04,-3.68c5.57,-0.34 11.19,-0.45 16.72,0.37c5.23,0.79 10.61,2.45 14.99,5.5c1.97,1.38 2.59,4.58 3.5,6.77c1.21,2.95 2.43,5.9 3.64,8.85z" fill="rgb(249,151,22)" id="svg_129"/>
     <path d="m30.02,2.71c1,2.42 1.91,5.48 0.14,7.41c-1.1,1.21 -2.86,1.49 -4.48,1.69c-15.1,1.93 -30.2,3.86 -45.3,5.79c-11.26,1.44 -22.73,2.87 -33.9,0.89c-2.13,-7.16 -0.07,-15.18 4.42,-21.15c4.48,-5.97 11.16,-10.05 18.23,-12.44c7.07,-2.4 14.58,-3.24 22.04,-3.68c5.57,-0.34 11.19,-0.45 16.72,0.37c5.23,0.79 10.61,2.45 14.99,5.5c1.97,1.38 2.59,4.58 3.5,6.77c1.21,2.95 2.43,5.9 3.64,8.85z" fill-opacity="0" id="svg_130" stroke="rgb(0,0,0)" stroke-miterlimit="10" stroke-width="3"/>
    </g>
   </g>
   <g display="block" id="svg_143" transform="matrix(0.988142 0 0 0.988142 106.41 689.693)">
    <g id="svg_144" transform="matrix(1 0 0 1 103.958 13.7)">
     <path d="m78.4,5.55c0,0 -180.52,0 -180.52,0c-3.42,0 -6.2,-2.78 -6.2,-6.2c0,-3.42 2.78,-6.2 6.2,-6.2c0,0 180.52,0 180.52,0c3.42,0 6.2,2.78 6.2,6.2c0,3.42 -2.78,6.2 -6.2,6.2z" fill="rgb(244,244,244)" id="svg_145"/>
     <path d="m78.4,5.55c0,0 -180.52,0 -180.52,0c-3.42,0 -6.2,-2.78 -6.2,-6.2c0,-3.42 2.78,-6.2 6.2,-6.2c0,0 180.52,0 180.52,0c3.42,0 6.2,2.78 6.2,6.2c0,3.42 -2.78,6.2 -6.2,6.2z" fill-opacity="0" id="svg_146" stroke="rgb(0,0,0)" stroke-miterlimit="10" stroke-width="3"/>
    </g>
   </g>
   <g display="block" id="svg_147" transform="matrix(0.988142 0 0 0.988142 161.453 690.112)">
    <g id="svg_148" transform="matrix(1 0 0 1 78.127 78.127)">
     <path d="m47.58,67.56c0,0 -127.65,-127.65 -127.65,-127.65c-2.42,-2.42 -2.42,-6.35 0,-8.77c0,0 0,0 0,0c2.42,-2.42 6.35,-2.42 8.77,0c0,0 127.65,127.65 127.65,127.65c2.42,2.42 2.42,6.35 0,8.77c-2.42,2.42 -6.35,2.42 -8.77,0z" fill="rgb(244,244,244)" id="svg_149"/>
     <path d="m47.58,67.56c0,0 -127.65,-127.65 -127.65,-127.65c-2.42,-2.42 -2.42,-6.35 0,-8.77c0,0 0,0 0,0c2.42,-2.42 6.35,-2.42 8.77,0c0,0 127.65,127.65 127.65,127.65c2.42,2.42 2.42,6.35 0,8.77c-2.42,2.42 -6.35,2.42 -8.77,0z" fill-opacity="0" id="svg_150" stroke="rgb(0,0,0)" stroke-miterlimit="10" stroke-width="3"/>
    </g>
   </g>
   <g display="block" id="svg_151" transform="matrix(0.988142 0 0 0.988142 165.885 404.759)">
    <g id="svg_152" transform="matrix(1 0 0 1 353.735 260.77)">
     <path d="m334.37,-134.98c-11.91,0.02 -21.99,-4.77 -30.59,-13.39c8.97,115.42 1.11,232.86 -16.43,351.46c-214.95,28.09 -426.9,39.41 -635.54,31.9c-8.53,-38.91 -9.9,-76.01 0.97,-110.04c6.16,-19.26 16.22,-37.53 31.13,-54.58c17.53,-20.06 41.75,-38.45 74.16,-54.77c0,0 190.7,25.2 190.7,25.2c-22.41,55.42 28.85,89.94 99.65,78.09c3.86,-0.64 7.66,-1.68 11.36,-3.02c115.37,-42.1 169.52,-170.69 188.15,-367.65c0,0 19.7,-3.34 19.7,-3.34c10.57,-1.78 21.36,1.55 29.09,8.98c0,0 0.71,0.68 0.71,0.68c12.91,-12.37 25.32,-18.58 36.94,-15.6c-22.5,47.71 -17.12,88.37 0,126.08z" fill="rgb(244,244,244)" id="svg_153"/>
     <path d="m334.37,-134.98c-11.91,0.02 -21.99,-4.77 -30.59,-13.39c8.97,115.42 1.11,232.86 -16.43,351.46c-214.95,28.09 -426.9,39.41 -635.54,31.9c-8.53,-38.91 -9.9,-76.01 0.97,-110.04c6.16,-19.26 16.22,-37.53 31.13,-54.58c17.53,-20.06 41.75,-38.45 74.16,-54.77c0,0 190.7,25.2 190.7,25.2c-22.41,55.42 28.85,89.94 99.65,78.09c3.86,-0.64 7.66,-1.68 11.36,-3.02c115.37,-42.1 169.52,-170.69 188.15,-367.65c0,0 19.7,-3.34 19.7,-3.34c10.57,-1.78 21.36,1.55 29.09,8.98c0,0 0.71,0.68 0.71,0.68c12.91,-12.37 25.32,-18.58 36.94,-15.6c-22.5,47.71 -17.12,88.37 0,126.08z" fill-opacity="0" id="svg_154" stroke="rgb(0,0,0)" stroke-miterlimit="10" stroke-width="3"/>
    </g>
   </g>
   <g display="block" id="svg_155" transform="matrix(0.988142 0 0 0.988142 177.292 735.204)">
    <g id="svg_156" transform="matrix(1 0 0 1 31.835 35)">
     <path d="m10.47,-2.43c-2.8,10.07 -8.85,17.56 -17.49,23.02c-6.76,4.27 -14.72,6.26 -22.7,6.03c0,0 -6.47,-0.19 -6.47,-0.19c6.15,-19.26 16.22,-37.53 31.11,-54.58c0,0 8.78,6.4 8.78,6.4c6.03,4.41 8.77,12.11 6.77,19.32z" fill="rgb(249,151,22)" id="svg_157"/>
     <path d="m10.47,-2.43c-2.8,10.07 -8.85,17.56 -17.49,23.02c-6.76,4.27 -14.72,6.26 -22.7,6.03c0,0 -6.47,-0.19 -6.47,-0.19c6.15,-19.26 16.22,-37.53 31.11,-54.58c0,0 8.78,6.4 8.78,6.4c6.03,4.41 8.77,12.11 6.77,19.32z" fill-opacity="0" id="svg_158" stroke="rgb(0,0,0)" stroke-miterlimit="10" stroke-width="3"/>
    </g>
   </g>
   <g display="block" id="svg_159" transform="matrix(0.988142 0 0 0.988142 829.846 407.704)">
    <g id="svg_160" transform="matrix(1 0 0 1 29.025 70.54)">
     <path d="m-12.61,-72.79c22.27,39.2 15.77,82.05 0,126.08c-18.77,-44.81 -20.77,-87.14 0,-126.08z" fill="rgb(249,151,22)" id="svg_161"/>
     <path d="m-12.61,-72.79c22.27,39.2 15.77,82.05 0,126.08c-18.77,-44.81 -20.77,-87.14 0,-126.08z" fill-opacity="0" id="svg_162" stroke="rgb(0,0,0)" stroke-linecap="round" stroke-linejoin="round" stroke-width="3"/>
    </g>
   </g>
   <g display="block" id="svg_163" transform="matrix(0.988142 0 0 0.988142 225.492 665.29)">
    <g id="svg_164" transform="matrix(1 0 0 1 141.012 28.534)">
     <path d="m90.53,22.55c0,0 -224.96,0 -224.96,0c-11.62,0 -21.03,-9.41 -21.03,-21.03c0,-11.62 9.41,-21.03 21.03,-21.03c0,0 224.96,0 224.96,0c11.62,0 21.03,9.41 21.03,21.03c0,11.62 -9.41,21.03 -21.03,21.03z" fill="rgb(244,244,244)" id="svg_165"/>
     <path d="m90.53,22.55c0,0 -224.96,0 -224.96,0c-11.62,0 -21.03,-9.41 -21.03,-21.03c0,-11.62 9.41,-21.03 21.03,-21.03c0,0 224.96,0 224.96,0c11.62,0 21.03,9.41 21.03,21.03c0,11.62 -9.41,21.03 -21.03,21.03z" fill-opacity="0" id="svg_166" stroke="rgb(0,0,0)" stroke-miterlimit="10" stroke-width="3"/>
    </g>
   </g>
   <g display="block" id="svg_167" transform="matrix(0.986509 0.0567859 -0.0567859 0.986509 460.343 770.565)">
    <g id="svg_168" transform="matrix(1 0 0 1 38.448 39.134)">
     <path d="m-40.9,3.13c-0.96,3.18 -1.93,6.59 -0.95,9.77c0.81,2.64 2.86,4.71 4.97,6.49c6.52,5.52 14.35,9.48 22.65,11.47c1.99,0.47 4.17,0.81 6,-0.09c1.47,-0.73 2.46,-2.14 3.39,-3.49c7.97,-11.66 15.94,-23.32 23.91,-34.98c-10.82,-5.31 -21.65,-10.62 -32.47,-15.93c-2.67,-1.32 -5.35,-2.63 -8.02,-3.94c-2.1,-1.03 -5.75,-3.82 -8.03,-3.95c-1.38,-0.07 -1.23,0.9 -1.65,2.29c-0.45,1.48 -0.9,2.96 -1.35,4.45c-0.86,2.83 -1.71,5.66 -2.57,8.49c0,0 -5.88,19.42 -5.88,19.42z" fill="rgb(247,243,235)" id="svg_169"/>
     <path d="m-40.9,3.13c-0.96,3.18 -1.93,6.59 -0.95,9.77c0.81,2.64 2.86,4.71 4.97,6.49c6.52,5.52 14.35,9.48 22.65,11.47c1.99,0.47 4.17,0.81 6,-0.09c1.47,-0.73 2.46,-2.14 3.39,-3.49c7.97,-11.66 15.94,-23.32 23.91,-34.98c-10.82,-5.31 -21.65,-10.62 -32.47,-15.93c-2.67,-1.32 -5.35,-2.63 -8.02,-3.94c-2.1,-1.03 -5.75,-3.82 -8.03,-3.95c-1.38,-0.07 -1.23,0.9 -1.65,2.29c-0.45,1.48 -0.9,2.96 -1.35,4.45c-0.86,2.83 -1.71,5.66 -2.57,8.49c0,0 -5.88,19.42 -5.88,19.42z" fill-opacity="0" id="svg_170" stroke="rgb(0,0,0)" stroke-miterlimit="10" stroke-width="3"/>
    </g>
   </g>
   <g display="block" id="svg_171" transform="matrix(0.986509 0.0567859 -0.0567859 0.986509 414.078 484.593)">
    <g id="svg_172" transform="matrix(1 0 0 1 156.005 110.468)">
     <path d="m-136.79,12.98c-11.99,13.12 -23.6,29.01 -22.36,46.74c1.36,19.5 18.93,35.13 38.04,39.21c19.11,4.08 39.08,-1.32 56.8,-9.56c18.79,-8.75 35.92,-20.64 52.94,-32.46c40.49,-28.13 80.99,-56.27 121.48,-84.4c6.66,-4.63 13.51,-9.46 17.77,-16.36c8.75,-14.17 3.5,-34.06 -9.03,-45.03c-12.53,-10.96 -30.44,-14.05 -46.96,-11.99c-15.68,1.96 -29.51,8.93 -44.55,13.1c-14.13,3.92 -27.85,8.38 -41.38,14.11c-29.53,12.5 -57.35,29.05 -82.45,49.01c-14.39,11.46 -27.89,24.04 -40.3,37.63z" fill="rgb(0,0,0)" id="svg_173"/>
     <path d="m-136.79,12.98c-11.99,13.12 -23.6,29.01 -22.36,46.74c1.36,19.5 18.93,35.13 38.04,39.21c19.11,4.08 39.08,-1.32 56.8,-9.56c18.79,-8.75 35.92,-20.64 52.94,-32.46c40.49,-28.13 80.99,-56.27 121.48,-84.4c6.66,-4.63 13.51,-9.46 17.77,-16.36c8.75,-14.17 3.5,-34.06 -9.03,-45.03c-12.53,-10.96 -30.44,-14.05 -46.96,-11.99c-15.68,1.96 -29.51,8.93 -44.55,13.1c-14.13,3.92 -27.85,8.38 -41.38,14.11c-29.53,12.5 -57.35,29.05 -82.45,49.01c-14.39,11.46 -27.89,24.04 -40.3,37.63z" fill-opacity="0" id="svg_174" stroke="rgb(0,0,0)" stroke-miterlimit="10" stroke-width="3"/>
    </g>
   </g>
   <g display="block" id="svg_175" transform="matrix(0.986509 0.0567859 -0.0567859 0.986509 480.642 490.492)">
    <g id="svg_176" transform="matrix(1 0 0 1 122.43 173.069)">
     <path d="m-26.6,-84.15c-29.09,60.46 -58.17,120.92 -87.26,181.39c-6.82,14.19 -13.53,31.58 -4.99,44.81c6.42,9.95 20.78,13.45 31.42,8.25c7.16,-3.51 12.28,-10.05 17.14,-16.37c32.16,-41.84 64.32,-83.68 96.48,-125.52c17.9,-23.29 35.83,-46.62 51.2,-71.65c9.55,-15.56 18.24,-32.16 20.83,-50.23c4.25,-29.59 -11.28,-59.58 -43.45,-61.03c-25.37,-1.14 -41.89,22.16 -54.79,41.43c-10.34,15.44 -18.54,32.2 -26.58,48.92z" fill="rgb(0,0,0)" id="svg_177"/>
     <path d="m-26.6,-84.15c-29.09,60.46 -58.17,120.92 -87.26,181.39c-6.82,14.19 -13.53,31.58 -4.99,44.81c6.42,9.95 20.78,13.45 31.42,8.25c7.16,-3.51 12.28,-10.05 17.14,-16.37c32.16,-41.84 64.32,-83.68 96.48,-125.52c17.9,-23.29 35.83,-46.62 51.2,-71.65c9.55,-15.56 18.24,-32.16 20.83,-50.23c4.25,-29.59 -11.28,-59.58 -43.45,-61.03c-25.37,-1.14 -41.89,22.16 -54.79,41.43c-10.34,15.44 -18.54,32.2 -26.58,48.92z" fill-opacity="0" id="svg_178" stroke="rgb(0,0,0)" stroke-miterlimit="10" stroke-width="3"/>
    </g>
   </g>
   <g display="block" id="svg_179" transform="matrix(0.986509 0.0567859 -0.0567859 0.986509 451.356 808.099)">
    <g id="svg_180" transform="matrix(1 0 0 1 58.026 36.963)">
     <path d="m-38.82,-11.38c3.57,1.87 7.85,3.33 11.55,1.72c4.13,-1.81 6.28,-6.96 10.64,-8.11c2.94,-0.77 5.99,0.54 8.74,1.82c10.65,4.95 21.29,9.89 31.93,14.84c3.94,1.82 8.02,3.77 10.68,7.18c3.93,5.03 3.65,12.87 -0.61,17.61c-3.09,3.45 -7.78,5.12 -12.39,5.47c-4.62,0.35 -9.24,-0.49 -13.78,-1.36c-16.11,-3.11 -32.15,-6.73 -47.72,-11.91c-5.94,-1.98 -12.06,-4.35 -16.24,-9.02c-3.6,-4.04 -5.37,-9.44 -5.88,-14.83c-0.51,-5.38 0.16,-10.81 0.94,-16.16c0.33,-2.33 1.39,-5.29 3.75,-5.21c2.58,0.09 1.66,2.58 2,4.02c0.45,1.83 3.03,3.85 4.34,5.13c3.56,3.5 7.63,6.48 12.05,8.81z" fill="rgb(249,151,22)" id="svg_181"/>
     <path d="m-38.82,-11.38c3.57,1.87 7.85,3.33 11.55,1.72c4.13,-1.81 6.28,-6.96 10.64,-8.11c2.94,-0.77 5.99,0.54 8.74,1.82c10.65,4.95 21.29,9.89 31.93,14.84c3.94,1.82 8.02,3.77 10.68,7.18c3.93,5.03 3.65,12.87 -0.61,17.61c-3.09,3.45 -7.78,5.12 -12.39,5.47c-4.62,0.35 -9.24,-0.49 -13.78,-1.36c-16.11,-3.11 -32.15,-6.73 -47.72,-11.91c-5.94,-1.98 -12.06,-4.35 -16.24,-9.02c-3.6,-4.04 -5.37,-9.44 -5.88,-14.83c-0.51,-5.38 0.16,-10.81 0.94,-16.16c0.33,-2.33 1.39,-5.29 3.75,-5.21c2.58,0.09 1.66,2.58 2,4.02c0.45,1.83 3.03,3.85 4.34,5.13c3.56,3.5 7.63,6.48 12.05,8.81z" fill-opacity="0" id="svg_182" stroke="rgb(0,0,0)" stroke-miterlimit="10" stroke-width="3"/>
    </g>
   </g>
   <g display="block" id="svg_183" transform="matrix(-0.988114 -0.00749587 0.00749587 -0.988114 845.213 990.124)">
    <g id="svg_184" transform="matrix(1 0 0 1 105.373 105.373)">
     <path d="m109.73,0.56c0,54.05 -43.82,97.87 -97.87,97.87c-54.05,0 -97.87,-43.82 -97.87,-97.87c0,-54.05 43.82,-97.87 97.87,-97.87c54.05,0 97.87,43.82 97.87,97.87z" fill="rgb(0,0,0)" id="svg_185"/>
     <path d="m109.73,0.56c0,54.05 -43.82,97.87 -97.87,97.87c-54.05,0 -97.87,-43.82 -97.87,-97.87c0,-54.05 43.82,-97.87 97.87,-97.87c54.05,0 97.87,43.82 97.87,97.87z" fill-opacity="0" id="svg_186" stroke="rgb(0,0,0)" stroke-miterlimit="10" stroke-width="3"/>
    </g>
    <g id="svg_187" transform="matrix(1 0 0 1 105.373 105.373)">
     <path d="m54.62,0.56c0,23.61 -19.15,42.76 -42.76,42.76c-23.61,0 -42.76,-19.15 -42.76,-42.76c0,-23.61 19.15,-42.76 42.76,-42.76c23.61,0 42.76,19.15 42.76,42.76z" fill="rgb(244,244,244)" id="svg_188"/>
     <path d="m54.62,0.56c0,23.61 -19.15,42.76 -42.76,42.76c-23.61,0 -42.76,-19.15 -42.76,-42.76c0,-23.61 19.15,-42.76 42.76,-42.76c23.61,0 42.76,19.15 42.76,42.76z" fill-opacity="0" id="svg_189" stroke="rgb(0,0,0)" stroke-miterlimit="10" stroke-width="3"/>
    </g>
   </g>
   <g display="block" id="svg_190" transform="matrix(-0.988114 -0.00749587 0.00749587 -0.988114 952.492 1190.05)">
    <g id="svg_191" transform="matrix(1 0 0 1 214.485 310.156)">
     <path d="m11.86,-25.1c14.89,0 26.99,11.5 26.99,25.66c0,14.16 -12.1,25.66 -26.99,25.66c-14.89,0 -26.99,-11.5 -26.99,-25.66c0,-14.16 12.1,-25.66 26.99,-25.66z" fill-opacity="0" id="svg_192" stroke="rgb(0,0,0)" stroke-dasharray="10" stroke-dashoffset="0" stroke-miterlimit="4" stroke-width="2"/>
    </g>
   </g>
   <g display="block" id="svg_193" transform="matrix(0.988142 0 0 0.988142 624.346 755.097)">
    <g id="svg_194" transform="matrix(1 0 0 1 118.946 60.225)">
     <path d="m93.59,52.07c0,0 -210.9,0 -210.9,0c0,-58.23 47.21,-105.44 105.45,-105.44c58.24,0 105.45,47.21 105.45,105.44z" fill="rgb(244,244,244)" id="svg_195"/>
     <path d="m93.59,52.07c0,0 -210.9,0 -210.9,0c0,-58.23 47.21,-105.44 105.45,-105.44c58.24,0 105.45,47.21 105.45,105.44z" fill-opacity="0" id="svg_196" stroke="rgb(0,0,0)" stroke-miterlimit="10" stroke-width="3"/>
    </g>
    <g id="svg_197" transform="matrix(1 0 0 1 118.946 123.998)">
     <path d="m92.04,10.4c0,0 -207.8,0 -207.8,0c-4.17,0 -7.55,-3.38 -7.55,-7.55c0,0 0,-7 0,-7c0,-4.17 3.38,-7.55 7.55,-7.55c0,0 207.8,0 207.8,0c4.17,0 7.55,3.38 7.55,7.55c0,0 0,7 0,7c0,4.17 -3.38,7.55 -7.55,7.55z" fill="rgb(244,244,244)" id="svg_198"/>
     <path d="m92.04,10.4c0,0 -207.8,0 -207.8,0c-4.17,0 -7.55,-3.38 -7.55,-7.55c0,0 0,-7 0,-7c0,-4.17 3.38,-7.55 7.55,-7.55c0,0 207.8,0 207.8,0c4.17,0 7.55,3.38 7.55,7.55c0,0 0,7 0,7c0,4.17 -3.38,7.55 -7.55,7.55z" fill-opacity="0" id="svg_199" stroke="rgb(0,0,0)" stroke-miterlimit="10" stroke-width="3"/>
    </g>
   </g>
   <g display="block" id="svg_200" transform="matrix(-0.988114 -0.00749587 0.00749587 -0.988114 413.368 1015.28)">
    <g id="svg_201" transform="matrix(1 0 0 1 105.373 105.373)">
     <path d="m109.73,0.56c0,54.05 -43.82,97.87 -97.87,97.87c-54.05,0 -97.87,-43.82 -97.87,-97.87c0,-54.05 43.82,-97.87 97.87,-97.87c54.05,0 97.87,43.82 97.87,97.87z" fill="rgb(0,0,0)" id="svg_202"/>
     <path d="m109.73,0.56c0,54.05 -43.82,97.87 -97.87,97.87c-54.05,0 -97.87,-43.82 -97.87,-97.87c0,-54.05 43.82,-97.87 97.87,-97.87c54.05,0 97.87,43.82 97.87,97.87z" fill-opacity="0" id="svg_203" stroke="rgb(0,0,0)" stroke-miterlimit="10" stroke-width="3"/>
    </g>
    <g id="svg_204" transform="matrix(1 0 0 1 105.373 105.373)">
     <path d="m54.62,0.56c0,23.61 -19.15,42.76 -42.76,42.76c-23.61,0 -42.76,-19.15 -42.76,-42.76c0,-23.61 19.15,-42.76 42.76,-42.76c23.61,0 42.76,19.15 42.76,42.76z" fill="rgb(244,244,244)" id="svg_205"/>
     <path d="m54.62,0.56c0,23.61 -19.15,42.76 -42.76,42.76c-23.61,0 -42.76,-19.15 -42.76,-42.76c0,-23.61 19.15,-42.76 42.76,-42.76c23.61,0 42.76,19.15 42.76,42.76z" fill-opacity="0" id="svg_206" stroke="rgb(0,0,0)" stroke-miterlimit="10" stroke-width="3"/>
    </g>
   </g>
   <g display="block" id="svg_207" transform="matrix(-0.988114 -0.00749587 0.00749587 -0.988114 520.318 1218.67)">
    <g id="svg_208" transform="matrix(1 0 0 1 214.485 310.156)">
     <path d="m11.86,-25.1c14.89,0 26.99,11.5 26.99,25.66c0,14.16 -12.1,25.66 -26.99,25.66c-14.89,0 -26.99,-11.5 -26.99,-25.66c0,-14.16 12.1,-25.66 26.99,-25.66z" fill-opacity="0" id="svg_209" stroke="rgb(0,0,0)" stroke-dasharray="10" stroke-dashoffset="0" stroke-miterlimit="4" stroke-width="2"/>
    </g>
   </g>
   <g display="block" id="svg_210" transform="matrix(0.988142 0 0 0.988142 192.501 779.317)">
    <g id="svg_211" transform="matrix(1 0 0 1 118.947 60.225)">
     <path d="m93.59,52.07c0,0 -210.9,0 -210.9,0c0,-58.23 47.21,-105.44 105.45,-105.44c58.24,0 105.45,47.21 105.45,105.44z" fill="rgb(244,244,244)" id="svg_212"/>
     <path d="m93.59,52.07c0,0 -210.9,0 -210.9,0c0,-58.23 47.21,-105.44 105.45,-105.44c58.24,0 105.45,47.21 105.45,105.44z" fill-opacity="0" id="svg_213" stroke="rgb(0,0,0)" stroke-miterlimit="10" stroke-width="3"/>
    </g>
    <g id="svg_214" transform="matrix(1 0 0 1 118.947 123.998)">
     <path d="m92.04,10.4c0,0 -207.8,0 -207.8,0c-4.17,0 -7.55,-3.38 -7.55,-7.55c0,0 0,-7 0,-7c0,-4.17 3.38,-7.55 7.55,-7.55c0,0 207.8,0 207.8,0c4.17,0 7.55,3.38 7.55,7.55c0,0 0,7 0,7c0,4.17 -3.38,7.55 -7.55,7.55z" fill="rgb(244,244,244)" id="svg_215"/>
     <path d="m92.04,10.4c0,0 -207.8,0 -207.8,0c-4.17,0 -7.55,-3.38 -7.55,-7.55c0,0 0,-7 0,-7c0,-4.17 3.38,-7.55 7.55,-7.55c0,0 207.8,0 207.8,0c4.17,0 7.55,3.38 7.55,7.55c0,0 0,7 0,7c0,4.17 -3.38,7.55 -7.55,7.55z" fill-opacity="0" id="svg_216" stroke="rgb(0,0,0)" stroke-miterlimit="10" stroke-width="3"/>
    </g>
   </g>
   <g display="block" id="svg_217" transform="matrix(0.988142 0 0 0.988142 629.34 424.477)">
    <g id="svg_218" transform="matrix(1 0 0 1 72.368 29.142)">
     <path d="m-72.23,-19.99c-1.24,9.07 -3.35,17.86 -3.79,26.81c-0.71,14.17 7.36,10.71 21.09,9.57c21.17,-1.76 42.31,-3.26 63.13,-7.28c10.85,-2.09 27.81,0.12 37.17,-6.51c6.03,-4.26 7.64,-21.11 1.12,-24.89" fill="rgb(247,243,235)" id="svg_219"/>
     <path d="m-72.23,-19.99c-1.24,9.07 -3.35,17.86 -3.79,26.81c-0.71,14.17 7.36,10.71 21.09,9.57c21.17,-1.76 42.31,-3.26 63.13,-7.28c10.85,-2.09 27.81,0.12 37.17,-6.51c6.03,-4.26 7.64,-21.11 1.12,-24.89" fill-opacity="0" id="svg_220" stroke="rgb(0,0,0)" stroke-miterlimit="10" stroke-width="3"/>
    </g>
   </g>
   <g display="block" id="svg_221" transform="matrix(0.988142 0 0 0.988142 692.527 422.696)">
    <g id="svg_222" transform="matrix(1 0 0 1 59.599 34.377)">
     <path d="m-48.43,24.46c0,0 82.65,-16.93 82.65,-16.93c6.02,-1.23 -0.91,-35.06 -6.93,-33.82c0,0 -82.65,16.93 -82.65,16.93c-8.6,1.76 -1.67,35.59 6.93,33.82z" fill="rgb(0,0,0)" id="svg_223"/>
     <path d="m-48.43,24.46c0,0 82.65,-16.93 82.65,-16.93c6.02,-1.23 -0.91,-35.06 -6.93,-33.82c0,0 -82.65,16.93 -82.65,16.93c-8.6,1.76 -1.67,35.59 6.93,33.82z" fill-opacity="0" id="svg_224" stroke="rgb(0,0,0)" stroke-miterlimit="10" stroke-width="3"/>
    </g>
   </g>
   <g display="block" id="svg_225" transform="matrix(0.988142 0 0 0.988142 631.916 405.611)">
    <g id="svg_226" transform="matrix(1 0 0 1 85.808 43.374)">
     <path d="m-88.28,-9.84c-1.89,-10.84 12.5,-9.81 19.75,-10.74c17.95,-2.28 36.18,-3.55 54.25,-5.38c12.18,-1.24 22.78,-0.87 33.22,-5.9c9.7,-4.66 13.08,-1.87 22.99,-0.94c8.58,0.81 15.52,-3.55 20.11,6.1c3.75,7.88 4.4,21.91 4.4,30.65c0.01,8.47 -0.47,17.18 -9.57,19.85c-3.9,1.14 -7.64,1.62 -11.47,2.83c-4.7,1.5 -7.33,0.55 -12.28,1.06c-9.24,0.95 -18.79,7.53 -20.29,-5.8c-0.72,-6.36 0.25,-12.53 -1.53,-18.73c-1.27,-4.4 -4.82,-7.97 -5.36,-12.23" fill="rgb(247,243,235)" id="svg_227"/>
     <path d="m-88.28,-9.84c-1.89,-10.84 12.5,-9.81 19.75,-10.74c17.95,-2.28 36.18,-3.55 54.25,-5.38c12.18,-1.24 22.78,-0.87 33.22,-5.9c9.7,-4.66 13.08,-1.87 22.99,-0.94c8.58,0.81 15.52,-3.55 20.11,6.1c3.75,7.88 4.4,21.91 4.4,30.65c0.01,8.47 -0.47,17.18 -9.57,19.85c-3.9,1.14 -7.64,1.62 -11.47,2.83c-4.7,1.5 -7.33,0.55 -12.28,1.06c-9.24,0.95 -18.79,7.53 -20.29,-5.8c-0.72,-6.36 0.25,-12.53 -1.53,-18.73c-1.27,-4.4 -4.82,-7.97 -5.36,-12.23" fill-opacity="0" id="svg_228" stroke="rgb(0,0,0)" stroke-miterlimit="10" stroke-width="3"/>
    </g>
   </g>
   <g display="block" id="svg_229" transform="matrix(0.988142 0 0 0.988142 405.675 388.241)">
    <g id="svg_230" transform="matrix(1 0 0 1 120.299 70.319)">
     <path d="m-66.66,-63.47c0,0 48.07,62.56 48.07,62.56c39.84,-10.09 79.69,-20.18 119.53,-30.27c-1.23,18.37 -3.36,38.68 -17.01,51.03c-7.06,6.39 -16.29,9.69 -25.27,12.85c-16.33,5.74 -32.66,11.48 -48.99,17.23c-17.3,6.08 -35.91,12.24 -53.63,7.48c-17.26,-4.63 -30.11,-18.68 -41.94,-32.07c-12.92,-14.63 -25.84,-29.26 -38.76,-43.88" fill="rgb(249,151,22)" id="svg_231"/>
     <path d="m-66.66,-63.47c0,0 48.07,62.56 48.07,62.56c39.84,-10.09 79.69,-20.18 119.53,-30.27c-1.23,18.37 -3.36,38.68 -17.01,51.03c-7.06,6.39 -16.29,9.69 -25.27,12.85c-16.33,5.74 -32.66,11.48 -48.99,17.23c-17.3,6.08 -35.91,12.24 -53.63,7.48c-17.26,-4.63 -30.11,-18.68 -41.94,-32.07c-12.92,-14.63 -25.84,-29.26 -38.76,-43.88" fill-opacity="0" id="svg_232" stroke="rgb(0,0,0)" stroke-miterlimit="10" stroke-width="3"/>
    </g>
   </g>
   <g display="block" id="svg_233" transform="matrix(0.988142 0 0 0.988142 602.199 409.204)">
    <g id="svg_234" transform="matrix(1 0 0 1 35.734 45.1)">
     <path d="m-39.08,27.61c-0.5,1.62 -1.01,3.29 -0.87,4.98c0.15,1.7 1.11,3.44 2.73,3.98c1.15,0.38 2.41,0.1 3.59,-0.18c4.72,-1.13 9.44,-2.26 14.16,-3.38c2.92,-0.7 5.94,-1.44 8.37,-3.2c3.51,-2.54 5.28,-6.78 6.89,-10.81c6.34,-15.87 12.67,-31.75 19.01,-47.62c0.79,-1.97 1.58,-4.18 0.78,-6.14c-1.32,-3.22 -5.74,-3.49 -9.18,-2.99c-5.33,0.78 -10.57,2.14 -15.61,4.03c-3.74,1.4 -10.53,3.35 -12.8,6.81c-2.76,4.2 -3.61,11.41 -5.11,16.23c-1.87,5.98 -3.73,11.95 -5.6,17.93c-2.12,6.78 -4.24,13.57 -6.36,20.36z" fill="rgb(244,244,244)" id="svg_235"/>
     <path d="m-39.08,27.61c-0.5,1.62 -1.01,3.29 -0.87,4.98c0.15,1.7 1.11,3.44 2.73,3.98c1.15,0.38 2.41,0.1 3.59,-0.18c4.72,-1.13 9.44,-2.26 14.16,-3.38c2.92,-0.7 5.94,-1.44 8.37,-3.2c3.51,-2.54 5.28,-6.78 6.89,-10.81c6.34,-15.87 12.67,-31.75 19.01,-47.62c0.79,-1.97 1.58,-4.18 0.78,-6.14c-1.32,-3.22 -5.74,-3.49 -9.18,-2.99c-5.33,0.78 -10.57,2.14 -15.61,4.03c-3.74,1.4 -10.53,3.35 -12.8,6.81c-2.76,4.2 -3.61,11.41 -5.11,16.23c-1.87,5.98 -3.73,11.95 -5.6,17.93c-2.12,6.78 -4.24,13.57 -6.36,20.36z" fill-opacity="0" id="svg_236" stroke="rgb(0,0,0)" stroke-miterlimit="10" stroke-width="3"/>
    </g>
   </g>
   <g id="svg_306">
    <g display="block" id="svg_59" transform="matrix(1 0 0 1 226.113 167.368)">
     <g id="svg_60" transform="matrix(1 0 0 1 67.925 16.096)">
      <path d="m-49.21,15.96c0,0 -103.66,0 -103.66,0c-4.75,0 -8.59,-3.85 -8.59,-8.6c0,-4.75 3.84,-8.6 8.59,-8.6c0,0 103.66,0 103.66,0c4.75,0 8.59,3.85 8.59,8.6c0,4.75 -3.84,8.6 -8.59,8.6z" fill="rgb(249,151,22)" id="svg_61"/>
      <path d="m-49.21,15.96c0,0 -103.66,0 -103.66,0c-4.75,0 -8.59,-3.85 -8.59,-8.6c0,-4.75 3.84,-8.6 8.59,-8.6c0,0 103.66,0 103.66,0c4.75,0 8.59,3.85 8.59,8.6c0,4.75 -3.84,8.6 -8.59,8.6z" fill-opacity="0" id="svg_62" stroke="rgb(0,0,0)" stroke-miterlimit="10" stroke-width="3"/>
     </g>
    </g>
    <g display="block" id="svg_63" transform="matrix(1 0 0 1 241.874 205.203)">
     <g id="svg_64" transform="matrix(1 0 0 1 54.369 10.121)">
      <path d="m-47.79,11.36c0,0 -104.5,0 -104.5,0c0,0 0,-16 0,-16c0,0 104.5,0 104.5,0c0,0 0,16 0,16z" fill="rgb(244,244,244)" id="svg_65"/>
      <path d="m-47.79,11.36c0,0 -104.5,0 -104.5,0c0,0 0,-16 0,-16c0,0 104.5,0 104.5,0c0,0 0,16 0,16z" fill-opacity="0" id="svg_66" stroke="rgb(0,0,0)" stroke-miterlimit="10" stroke-width="3"/>
     </g>
    </g>
    <g display="block" id="svg_67" transform="matrix(1 0 0 1 234.097 98.6025)">
     <g id="svg_68" transform="matrix(1 0 0 1 60.947 36.629)">
      <path d="m-47.59,36.49c0,0 -106.9,0 -106.9,0c0,0 0,-7.51 0,-7.51c0,-28.03 22.72,-50.75 50.75,-50.75c0,0 6.25,0 6.25,0c27.56,0 49.9,22.34 49.9,49.9c0,0 0,8.36 0,8.36z" fill="rgb(244,244,244)" id="svg_69"/>
      <path d="m-47.59,36.49c0,0 -106.9,0 -106.9,0c0,0 0,-7.51 0,-7.51c0,-28.03 22.72,-50.75 50.75,-50.75c0,0 6.25,0 6.25,0c27.56,0 49.9,22.34 49.9,49.9c0,0 0,8.36 0,8.36z" fill-opacity="0" id="svg_70" stroke="rgb(0,0,0)" stroke-miterlimit="10" stroke-width="3"/>
     </g>
     <g id="svg_71" transform="matrix(1 0 0 1 75.877 19.312)">
      <path d="m-104.02,4.38c0,0 5.96,5.96 5.96,5.96" fill-opacity="0" id="svg_72" stroke="rgb(0,0,0)" stroke-linecap="round" stroke-linejoin="round" stroke-width="3"/>
     </g>
     <g id="svg_73" transform="matrix(1 0 0 1 32.367 28.93)">
      <path d="m-104.44,9.4c0,0 6.8,-4.08 6.8,-4.08" fill-opacity="0" id="svg_74" stroke="rgb(0,0,0)" stroke-linecap="round" stroke-linejoin="round" stroke-width="3"/>
     </g>
     <g id="svg_75" transform="matrix(1 0 0 1 52.026 17.1)">
      <path d="m-104.53,6.59c0,0 6.98,1.54 6.98,1.54" fill-opacity="0" id="svg_76" stroke="rgb(0,0,0)" stroke-linecap="round" stroke-linejoin="round" stroke-width="3"/>
     </g>
     <g id="svg_77" transform="matrix(1 0 0 1 52.622 30.462)">
      <path d="m-103.93,9.74c0,0 5.78,-4.76 5.78,-4.76" fill-opacity="0" id="svg_78" stroke="rgb(0,0,0)" stroke-linecap="round" stroke-linejoin="round" stroke-width="3"/>
     </g>
     <g id="svg_79" transform="matrix(1 0 0 1 74.087 34.887)">
      <path d="m-104.19,5.32c0,0 6.3,4.08 6.3,4.08" fill-opacity="0" id="svg_80" stroke="rgb(0,0,0)" stroke-linecap="round" stroke-linejoin="round" stroke-width="3"/>
     </g>
     <g id="svg_81" transform="matrix(1 0 0 1 91.069 27.121)">
      <path d="m-104.81,9.17c0,0 7.54,-3.62 7.54,-3.62" fill-opacity="0" id="svg_82" stroke="rgb(0,0,0)" stroke-linecap="round" stroke-linejoin="round" stroke-width="3"/>
     </g>
    </g>
    <g id="svg_287" transform="rotate(179.689 193.854 254.2)">
     <path d="m247.3,267.62c0,0 -106.9,0 -106.9,0c0,0 0,-3.46 0,-3.46c0,-12.91 22.72,-23.38 50.75,-23.38c0,0 6.25,0 6.25,0c27.56,0 49.9,10.29 49.9,22.99c0,0 0,3.85 0,3.85z" fill="rgb(244,244,244)" id="svg_288"/>
     <path d="m247.3,267.62c0,0 -106.9,0 -106.9,0c0,0 0,-3.46 0,-3.46c0,-12.91 22.72,-23.38 50.75,-23.38c0,0 6.25,0 6.25,0c27.56,0 49.9,10.29 49.9,22.99c0,0 0,3.85 0,3.85z" fill-opacity="0" id="svg_289" stroke="rgb(0,0,0)" stroke-miterlimit="10" stroke-width="3"/>
    </g>
   </g>
   <g id="svg_258">
    <rect fill="#000000" height="32.62" id="svg_255" rx="3" ry="3" stroke="#000000" width="261.79" x="73.62" y="398.18"/>
    <rect fill="#f7de1b" height="101.4" id="svg_247" rx="5" ry="5" stroke="#000000" width="7.36" x="46.71" y="545.43"/>
    <g display="block" id="svg_131" transform="matrix(1.31547 0 0 1.4817 157.667 570.47)">
     <g id="svg_132" transform="matrix(1 0 0 1 93.015 86.214)">
      <path d="m32.37,-24.25c0,0 -181.78,0 -181.78,0c0,0 0,-168.18 0,-168.18c0,0 181.78,0 181.78,0c0,0 0,168.18 0,168.18z" fill="#000000" id="svg_133"/>
      <path d="m32.37,-24.25c0,0 -181.78,0 -181.78,0c0,0 0,-168.18 0,-168.18c0,0 181.78,0 181.78,0c0,0 0,168.18 0,168.18z" fill="#000000" fill-opacity="0" id="svg_134" stroke="rgb(0,0,0)" stroke-miterlimit="10" stroke-width="3"/>
     </g>
    </g>
    <rect fill="#bfbfbf" height="17.94" id="svg_244" stroke="#000000" width="261.7" x="73.69" y="404.97"/>
    <rect fill="#000000" height="109.66" id="svg_246" rx="2" ry="2" stroke="#000000" width="34.2" x="51.28" y="541.04"/>
    <g id="svg_245">
     <text fill="#ffffff" font-family="Fantasy" font-size="24" font-style="italic" id="svg_241" stroke="#000000" stroke-width="0" text-anchor="middle" transform="matrix(2.52802 0 0 2.74058 -137.513 -942.72)" x="136.81" xml:space="preserve" y="535.96">Pakket</text>
     <text fill="#f7de1b" font-family="Fantasy" font-size="24" font-style="italic" id="svg_242" stroke="#000000" stroke-width="0" text-anchor="middle" transform="matrix(2.41654 0 0 2.51458 -203.512 -850.922)" x="131.77" xml:space="preserve" y="547.35">i</text>
    </g>
    <rect fill="#7f7f7f" height="109.47" id="svg_253" stroke="#000000" width="3.87" x="78.34" y="541.23"/>
    <rect fill="#7f7f7f" height="4.81" id="svg_254" stroke="#000000" width="246.63" x="81.07" y="430.21"/>
   </g>
   <rect fill="#ffffff" height="34.74" id="svg_322" rx="10" ry="10" stroke="#000000" stroke-linejoin="round" stroke-width="3" width="257.42" x="74.79" y="661.58"/>
  </g>
  <g id="svg_317"/>
 </g>
</svg>