<?xml version="1.0"?>
<svg width="783.57397" height="464.7259" xmlns="http://www.w3.org/2000/svg" xmlns:svg="http://www.w3.org/2000/svg" data-name="Layer 1">
 <g class="layer">
  <title>Layer 1</title>
  <path d="m567,373.9l-542.34,0a16.52,16.52 0 0 1 -16.5,-16.5l0,-305.8l575.34,0l0,305.8a16.52,16.52 0 0 1 -16.5,16.5z" fill="#e6e6e6" id="svg_13" transform="matrix(1 0 0 1 0 0)"/>
  <path d="m545.41,342.31l-499.17,0a8.51,8.51 0 0 1 -8.5,-8.5l0,-242.13a8.51,8.51 0 0 1 8.5,-8.5l499.17,0a8.51,8.51 0 0 1 8.5,8.5l0,242.13a8.51,8.51 0 0 1 -8.5,8.5z" fill="#fff" id="svg_14" transform="matrix(1 0 0 1 0 0)"/>
  <path d="m584.65,62.74l-577.65,0l0,-13.24a16.52,16.52 0 0 1 16.5,-16.5l544.65,0a16.52,16.52 0 0 1 16.5,16.5l0,13.24z" fill="#f9a328" id="svg_15" transform="matrix(1 0 0 1 0 0)"/>
  <path d="m177.46,135.34l-88.85,0a8.51,8.51 0 0 0 -8.5,8.5l0,58.4a8.51,8.51 0 0 0 8.5,8.5l88.85,0a8.51,8.51 0 0 0 8.5,-8.5l0,-58.4a8.51,8.51 0 0 0 -8.5,-8.5z" fill="#e6e6e6" id="svg_16" transform="matrix(1 0 0 1 0 0)"/>
  <path d="m340.25,130.7l-88.85,0a8.51,8.51 0 0 0 -8.5,8.5l0,58.4a8.51,8.51 0 0 0 8.5,8.5l88.85,0a8.51,8.51 0 0 0 8.5,-8.5l0,-58.4a8.51,8.51 0 0 0 -8.5,-8.5z" fill="#e6e6e6" id="svg_17" transform="matrix(1 0 0 1 0 0)"/>
  <path d="m508.25,130.7l-88.85,0a8.51,8.51 0 0 0 -8.5,8.5l0,58.4a8.51,8.51 0 0 0 8.5,8.5l88.85,0a8.51,8.51 0 0 0 8.5,-8.5l0,-58.4a8.51,8.51 0 0 0 -8.5,-8.5z" fill="#e6e6e6" id="svg_18" transform="matrix(1 0 0 1 0 0)"/>
  <path d="m160.68,232.7l-63.71,0a4.72,4.72 0 1 0 0,9.45l63.71,0a4.72,4.72 0 1 0 0,-9.45z" fill="#e6e6e6" id="svg_19" transform="matrix(1 0 0 1 0 0)"/>
  <path d="m160.68,258.52l-63.71,0a4.72,4.72 0 0 0 -1.94,9.03a4.66,4.66 0 0 0 1.94,0.42l63.71,0a4.72,4.72 0 1 0 0,-9.45z" fill="#e6e6e6" id="svg_20" transform="matrix(1 0 0 1 0 0)"/>
  <path d="m161.68,285.34l-63.71,0a4.72,4.72 0 1 0 0,9.45l63.71,0a4.72,4.72 0 1 0 0,-9.45z" fill="#e6e6e6" id="svg_21" transform="matrix(1 0 0 1 0 0)"/>
  <path d="m327.68,233.7l-63.71,0a4.72,4.72 0 1 0 0,9.45l63.71,0a4.72,4.72 0 1 0 0,-9.45z" fill="#e6e6e6" id="svg_22" transform="matrix(1 0 0 1 0 0)"/>
  <path d="m327.68,259.52l-63.71,0a4.72,4.72 0 1 0 0,9.45l63.71,0a4.72,4.72 0 1 0 0,-9.45z" fill="#e6e6e6" id="svg_23" transform="matrix(1 0 0 1 0 0)"/>
  <path d="m327.68,285.34l-63.71,0a4.72,4.72 0 0 0 -1.49,9.21a4.61,4.61 0 0 0 1.49,0.24l63.71,0a4.72,4.72 0 1 0 0,-9.45z" fill="#e6e6e6" id="svg_24" transform="matrix(1 0 0 1 0 0)"/>
  <path d="m494.68,233.7l-63.71,0a4.72,4.72 0 1 0 0,9.45l63.71,0a4.72,4.72 0 1 0 0,-9.45z" fill="#e6e6e6" id="svg_25" transform="matrix(1 0 0 1 0 0)"/>
  <path d="m494.68,259.52l-63.71,0a4.72,4.72 0 0 0 -1.94,9.03a4.66,4.66 0 0 0 1.94,0.42l63.71,0a4.72,4.72 0 1 0 0,-9.45z" fill="#e6e6e6" id="svg_26" transform="matrix(1 0 0 1 0 0)"/>
  <path d="m494.68,285.34l-63.71,0a4.72,4.72 0 1 0 0,9.45l63.71,0a4.72,4.72 0 1 0 0,-9.45z" fill="#e6e6e6" id="svg_27" transform="matrix(1 0 0 1 0 0)"/>
  <circle cx="530.93" cy="47.05" fill="#fff" id="svg_28" r="4.28"/>
  <circle cx="547.18" cy="47.05" fill="#fff" id="svg_29" r="4.28"/>
  <circle cx="563.44" cy="47.05" fill="#fff" id="svg_30" r="4.28"/>
  <path d="m142.55,232.7l-45.58,0a4.72,4.72 0 1 0 0,9.45l44.63,0a5.38,5.38 0 0 0 0.95,-9.45z" fill="#f9a328" id="svg_31" transform="matrix(1 0 0 1 0 0)"/>
  <path d="m121.5,258.52l-24.53,0a4.72,4.72 0 0 0 -1.94,9.03l22.53,0a5.38,5.38 0 0 0 5.38,-5.38a5.27,5.27 0 0 0 -1.44,-3.65z" fill="#f9a328" id="svg_32" transform="matrix(1 0 0 1 0 0)"/>
  <path d="m155.92,285.34l-58.95,0a4.72,4.72 0 1 0 0,9.45l59.33,0a5.37,5.37 0 0 0 -0.38,-9.45z" fill="#f9a328" id="svg_33" transform="matrix(1 0 0 1 0 0)"/>
  <path d="m446.66,233.7l-15.69,0a4.73,4.73 0 0 0 -2.31,8.85l13.9,0a5.38,5.38 0 0 0 5.38,-5.38a5.29,5.29 0 0 0 -1.28,-3.47z" fill="#f9a328" id="svg_34" transform="matrix(1 0 0 1 0 0)"/>
  <path d="m458.5,259.52l-27.53,0a4.72,4.72 0 0 0 -1.94,9.03l25.53,0a5.38,5.38 0 0 0 5.38,-5.38a5.27,5.27 0 0 0 -1.44,-3.65z" fill="#f9a328" id="svg_35" transform="matrix(1 0 0 1 0 0)"/>
  <path d="m477.92,285.34l-46.95,0a4.72,4.72 0 1 0 0,9.45l47.33,0a5.37,5.37 0 0 0 -0.38,-9.45z" fill="#f9a328" id="svg_36" transform="matrix(1 0 0 1 0 0)"/>
  <path d="m323.25,259.52l-59.28,0a4.72,4.72 0 1 0 0,9.45l59.01,0a5.37,5.37 0 0 0 0.27,-9.45z" fill="#f9a328" id="svg_37" transform="matrix(1 0 0 1 0 0)"/>
  <path d="m270.33,285.34l-6.36,0a4.72,4.72 0 0 0 -1.49,9.21l4.08,0a5.38,5.38 0 0 0 5.38,-5.38a5.31,5.31 0 0 0 -1.61,-3.83z" fill="#f9a328" id="svg_38" transform="matrix(1 0 0 1 0 0)"/>
  <path d="m298.55,233.7l-34.58,0a4.72,4.72 0 1 0 0,9.45l33.63,0a5.38,5.38 0 0 0 0.95,-9.45z" fill="#f9a328" id="svg_39" transform="matrix(1 0 0 1 0 0)"/>
  <g id="svg_41">
   <polygon fill="#ffb8b8" id="svg_3" points="714.583984375,444.36199951171875 703.492919921875,447.1319885253906 687.530029296875,405.66900634765625 703.9000244140625,401.58099365234375 714.583984375,444.36199951171875 "/>
   <polygon fill="#ffb8b8" id="svg_5" points="617.47900390625,452.1579895019531 606.0469970703125,452.1570129394531 600.6110229492188,408.0610046386719 617.4829711914062,408.06201171875 617.47900390625,452.1579895019531 " transform="matrix(1 0 0 1 0 0)"/>
   <path d="m542.32,222.42a9.38,9.38 0 0 1 13.83,3.94l21.42,-0.57l3.52,12.93l-30.26,0.38a9.43,9.43 0 0 1 -8.51,-16.68z" fill="#ffb8b8" id="svg_1"/>
   <circle cx="611.52" cy="112.32" fill="#ffb8b8" id="svg_7" r="24.56"/>
   <path d="m751.58,464.72l-217,0a1,1 0 0 1 0,-2l217,0a1,1 0 1 1 0,2z" fill="#ccc" id="svg_40"/>
   <path d="m658.71,257.35a7.18,7.18 0 0 1 -5.28,0.23l-12.18,-4.22a7.15,7.15 0 0 1 -4.58,-4.96l-11,-42.14l-14.63,-27.98a12.57,12.57 0 0 1 4.64,-16.56l0,0a12.55,12.55 0 0 1 17.33,4.43l19.65,33.69l9.75,22.2a36.21,36.21 0 0 1 2.16,22.39l-1.8,7.96a7.17,7.17 0 0 1 -3.51,4.68q-0.27,0.15 -0.55,0.28z" fill="#f9a328" id="svg_12"/>
   <path d="m630.31,271.43a9.38,9.38 0 0 1 9.01,-11.2l7.82,-19.96l13.29,1.8l-11.44,28.02a9.43,9.43 0 0 1 -18.68,1.34z" fill="#ffb8b8" id="svg_11"/>
   <path d="m671.04,307.76a22.88,22.88 0 0 1 -13.41,-4.36l-21.84,-15.77a36.85,36.85 0 0 0 -16.18,-6.56l-10.51,-1.53a6.57,6.57 0 0 1 -5.63,-6.79l4.19,-100.24l-2.49,-14.3a6.18,6.18 0 0 1 2.6,-6.14l19.46,-13.32a8.14,8.14 0 0 1 5.23,-1.39l0.71,0.05a9.53,9.53 0 0 1 8.5,7.2l0.75,2.99l12.95,23.01a85.42,85.42 0 0 1 8.54,21.68l12.28,50.44a90.98,90.98 0 0 1 2.21,13.35l4.06,45.36a4.55,4.55 0 0 1 -2.86,4.66a23.03,23.03 0 0 1 -8.56,1.66z" fill="#f9a328" id="svg_10"/>
   <path d="m619.8,434.53c-0.05,0 -0.1,0 -0.14,0l-17.66,-0.55a4.5,4.5 0 0 1 -4.35,-4.74l8.83,-162.17l67.86,19.25l44.5,138.78a4.5,4.5 0 0 1 -4.17,5.87l-20.34,0.54a4.54,4.54 0 0 1 -4.3,-2.83l-45.77,-114.49a1.5,1.5 0 0 0 -2.87,0.34l-17.14,116.16a4.5,4.5 0 0 1 -4.45,3.84z" fill="#2f2e41" id="svg_9"/>
   <path d="m614.48,111.19c0.04,-3.29 5.7,-3.7 7.46,-0.9s0.63,6.45 -0.92,9.37c-1.62,3.03 -3.71,6.1 -3.39,9.54a5.2,5.2 0 0 0 7.96,3.72c8.03,-4.94 14.8,-12.13 17.8,-20.89c3.15,-9.22 1.57,-20.2 -5.24,-27.28s-19.04,-9.09 -27.13,-3.43l-13.81,-9.4a1.93,1.93 0 0 0 -2.96,2.09l2.02,6.56l-6.98,-1.75a1.53,1.53 0 0 0 -1.71,2.29l2.39,3.72c-3.19,-2.63 -8.71,0.36 -9.16,4.42s2.83,7.78 6.7,9.31s8.2,1.35 12.37,1.15a9.82,9.82 0 0 0 4.56,10.58c3.61,2.09 8.59,1.6 10.04,0.9z" fill="#2f2e41" id="svg_8"/>
   <path d="m599.88,449.89l22.05,0a0,0 0 0 1 0,0l0,13.88a0,0 0 0 1 0,0l-35.93,0a0,0 0 0 1 0,0l0,0a13.88,13.88 0 0 1 13.88,-13.88z" fill="#2f2e41" id="svg_6"/>
   <path d="m567.07,694.59l22.05,0a0,0 0 0 1 0,0l0,13.88a0,0 0 0 1 0,0l-35.93,0a0,0 0 0 1 0,0l0,0a13.88,13.88 0 0 1 13.88,-13.88z" fill="#2f2e41" id="svg_4" transform="rotate(-14.0216 -373.478 31.2091)"/>
   <path d="m561.34,244.09a7.18,7.18 0 0 1 -2.26,-4.77l-0.86,-12.86a7.15,7.15 0 0 1 2.78,-6.16l34.54,-26.53l20.07,-24.37a12.57,12.57 0 0 1 17.06,-2.17l0,0a12.55,12.55 0 0 1 2.67,17.68l-23.38,31.21l-16.65,17.63a36.21,36.21 0 0 1 -19.78,10.7l-8.04,1.45a7.17,7.17 0 0 1 -5.68,-1.41q-0.24,-0.19 -0.47,-0.4z" fill="#f9a328" id="svg_2"/>
  </g>
 </g>
</svg>