<svg xmlns="http://www.w3.org/2000/svg" xmlns:xlink="http://www.w3.org/1999/xlink" preserveAspectRatio="xMidYMid meet" version="1.0" viewBox="0.0 0.0 493.3 423.5" zoomAndPan="magnify" style="fill: rgb(0, 0, 0);" original_string_length="4618"><defs><clipPath id="__id167_sjfeijgy3m"><path d="M 0 0 L 493.269531 0 L 493.269531 423.53125 L 0 423.53125 Z M 0 0"/></clipPath></defs><g><g clip-path="url(#__id167_sjfeijgy3m)" id="__id168_sjfeijgy3m"><path d="M 125.835938 264.261719 C 156.109375 247.945312 187.410156 231.078125 214.894531 209.207031 C 220.179688 205.003906 226.101562 199.953125 229.476562 193.242188 C 232.679688 186.878906 233.527344 177.574219 228.203125 171.136719 C 224.230469 166.328125 218.273438 164.578125 212.511719 162.882812 C 207.03125 161.273438 201.855469 159.75 198.859375 155.78125 C 194.875 150.5 195.785156 142.324219 201.566406 131.480469 C 219.804688 97.269531 246.777344 68.25 279.566406 47.5625 C 280.621094 46.894531 280.9375 45.5 280.273438 44.445312 C 279.605469 43.386719 278.210938 43.074219 277.152344 43.738281 C 243.703125 64.847656 216.1875 94.449219 197.578125 129.351562 C 190.894531 141.886719 190.113281 151.695312 195.25 158.503906 C 199.148438 163.667969 205.292969 165.472656 211.238281 167.21875 C 216.578125 168.789062 221.628906 170.273438 224.722656 174.015625 C 228.742188 178.882812 227.980469 186.15625 225.441406 191.210938 C 222.476562 197.105469 217.214844 201.585938 212.082031 205.671875 C 184.910156 227.289062 153.789062 244.0625 123.691406 260.28125 C 122.59375 260.875 122.183594 262.246094 122.777344 263.34375 C 123.183594 264.101562 123.960938 264.53125 124.765625 264.53125 C 125.128906 264.53125 125.496094 264.445312 125.835938 264.261719 Z M 3.65625 423.050781 C 62.226562 377.191406 124.792969 335.429688 189.617188 298.933594 C 198.460938 293.953125 207.523438 288.976562 216.285156 284.15625 C 252.1875 264.425781 289.308594 244.019531 321.878906 218.046875 C 328.527344 212.742188 335.335938 206.886719 339.066406 198.765625 C 342.578125 191.132812 342.949219 179.804688 335.46875 172.96875 C 333.675781 171.332031 331.632812 170.152344 329.65625 169.007812 C 327.566406 167.800781 325.59375 166.660156 324.09375 165.089844 C 315.671875 156.28125 325.980469 141.328125 333.398438 133.878906 C 378.386719 88.71875 433.191406 51.710938 491.886719 26.855469 C 493.035156 26.367188 493.574219 25.039062 493.085938 23.890625 C 492.601562 22.742188 491.28125 22.203125 490.125 22.691406 C 430.894531 47.769531 375.59375 85.117188 330.195312 130.6875 C 319.546875 141.378906 310.703125 157.621094 320.828125 168.214844 C 322.773438 170.25 325.121094 171.609375 327.394531 172.921875 C 329.242188 173.992188 330.988281 175 332.417969 176.308594 C 337.96875 181.375 337.898438 190.492188 334.960938 196.878906 C 331.640625 204.09375 325.285156 209.546875 319.058594 214.511719 C 286.792969 240.242188 249.84375 260.554688 214.109375 280.195312 C 205.335938 285.019531 196.265625 290.007812 187.402344 294.996094 C 122.378906 331.601562 59.617188 373.488281 0.867188 419.492188 C -0.117188 420.261719 -0.289062 421.679688 0.480469 422.664062 C 0.925781 423.230469 1.589844 423.53125 2.261719 423.53125 C 2.75 423.53125 3.242188 423.371094 3.65625 423.050781 Z M 24.679688 362.628906 C 24.207031 362.628906 23.726562 362.480469 23.320312 362.175781 C 22.324219 361.425781 22.125 360.007812 22.875 359.011719 C 43.199219 332.0625 72.191406 309.234375 114.121094 287.179688 C 130.320312 278.65625 147.183594 270.84375 163.492188 263.285156 C 181.714844 254.847656 200.554688 246.117188 218.464844 236.394531 C 248.242188 220.238281 262.964844 202.253906 262.222656 182.949219 C 262 177.105469 260.324219 171.503906 258.550781 165.570312 C 257.035156 160.503906 255.472656 155.265625 254.890625 149.84375 C 252.84375 130.839844 262.8125 110.617188 284.511719 89.734375 C 325.484375 50.304688 376.945312 24.851562 426.707031 0.238281 C 427.824219 -0.316406 429.179688 0.140625 429.734375 1.261719 C 430.289062 2.382812 429.828125 3.734375 428.710938 4.289062 C 379.253906 28.753906 328.113281 54.046875 287.648438 92.992188 C 267.007812 112.855469 257.496094 131.820312 259.382812 149.359375 C 259.921875 154.367188 261.425781 159.40625 262.882812 164.277344 C 264.660156 170.21875 266.492188 176.359375 266.742188 182.773438 C 267.554688 203.945312 252.035156 223.320312 220.621094 240.367188 C 202.582031 250.15625 183.679688 258.917969 165.394531 267.390625 C 149.136719 274.921875 132.324219 282.710938 116.226562 291.179688 C 74.90625 312.917969 46.390625 335.335938 26.484375 361.730469 C 26.042969 362.320312 25.363281 362.628906 24.679688 362.628906" style="fill: rgb(38, 38, 38);"/></g></g></svg>