<?xml version="1.0" encoding="UTF-8"?>
<svg id="Capa_1" data-name="Capa 1" xmlns="http://www.w3.org/2000/svg" viewBox="0 0 444.84 487.95">
  <defs>
    <style>
      .cls-1 {
        fill: #a3a9ac;
      }

      .cls-2 {
        fill: #455056;
      }

      .cls-3 {
        fill: #b6b9be;
      }

      .cls-4 {
        fill: #a5aaad;
      }

      .cls-5 {
        fill: #fdfdfd;
      }

      .cls-6 {
        fill: #a3a6a7;
      }

      .cls-7 {
        stroke: #000;
      }

      .cls-7, .cls-8 {
        fill: #ffffffff;
        stroke-miterlimit: 10;
      }

      .cls-8 {
        stroke: #1d1d1b;
      }

      .cls-9 {
        fill: #1d1d1b;
      }

      .cls-10 {
        fill: #8e9397;
      }
    </style>
  </defs>
  <path class="cls-7" d="m296.48,203.5c1.69-2.62,4.11-4.06,7.1-4.89,5.38-1.5,10.76-3.03,16.01-4.89,6.38-2.25,10.5-.59,13.73,5.14.88-.5,1.17-1.46,1.67-2.21,2.82-4.25,6.54-7.39,11.29-9.27,1.81-.72,1.91-.67,2.35,1.28.5,2.25.75,4.56,1.62,6.72.57.69.87,1.49,1.05,2.37,1.74,8.4,3.64,16.78,5.43,25.17.16.77.4,1.55.18,2.35-.29,2.45.82,4.67,1.14,7.02.15,1.1.5,2.18.72,3.27.41,2.03.31,2.28-1.67,2.52-3.27.4-6.54.4-9.71-.72-1.73-.61-3.43-1.29-5.19-2.39-.08,1.95.61,3.56.97,5.2,1.09,5.02-.16,9.2-4.32,12.3-.82.61-.93,1.11-.63,1.97,3.34,9.66,6.68,19.33,9.97,29.01.35,1.04.86,1.34,1.91,1.28,1.91-.1,3.83-.16,5.73.28,5.51,1.29,9.22,4.63,11.12,9.91,1.54,4.28,2.99,8.6,4.38,12.94,3.14,9.82,6.22,19.65,9.31,29.49.32,1.01.68,1.86,1.72,2.43,11.35,6.28,19.89,15.43,26.67,26.33,5.09,8.2,8.83,17,11.42,26.3.88,3.18.9,6.33-.28,9.41-1.17,3.05-3.12,5.38-6.46,6.22-1.21-1.09-1.01-2.63-1.2-4-2.53-18.15-10.65-33.04-25.68-43.82-17.36-12.45-40.76-12.11-58.34.83-14.56,10.72-22.19,25.5-24.6,43.15-1.43,10.45-.45,20.74,2.9,30.78.27.82,1.39,2.12-.52,2.65-37.4,0-74.79,0-112.18,0-1.94-.39-.97-1.73-.69-2.59,1.27-3.89,2.3-7.83,2.82-11.89,2.57-19.86-1.9-37.8-14.91-53.27-8.05-9.57-18.26-15.78-30.6-17.91-16.83-2.9-31.4,2.06-43.8,13.67-11.43,10.69-17.32,24.11-19.39,39.42-.13.94-.08,1.94-.9,2.65-.75.56-1.63.64-2.51.65-3.35.05-6.71.06-10.06,0-.92-.02-1.96.09-2.54-.95.01-5.83-.05-11.67.04-17.5.27-17.4,2.29-34.56,7.13-51.32,3.97-13.75,9.64-26.72,17.82-38.53.45-.66.94-1.29,1.42-1.93.87-.77,1.95-.61,2.97-.61,39.25-.01,78.49-.01,117.74,0,.8,0,1.6-.04,2.38.18,1.61.9.35,1.62-.27,2.12-1.44,1.15-2.91,2.26-4.26,3.49-5.57,5.08-9.66,11.03-10.76,18.71-.55,3.86.17,7.65.53,11.45,1.13,11.79,3.18,23.42,6.14,34.89.14.54.22,1.1.16,1.66-.13.99-.69,1.77-1.25,2.55-3.43,4.76-4.01,9.85-1.5,15.16,2.76,5.86,7.43,9.25,13.87,10.13.99.14,2.11-.23,2.9.74.28.15.55.29.83.44.52.29,1.09.2,1.64.2,15.95,0,31.9,0,47.85,0,.62,0,1.28.17,1.85-.26,6.98-11,13.97-21.99,20.95-32.99,7.49-11.81,14.96-23.63,22.49-35.42.74-1.16,1-2.24.8-3.58-1.23-8.13-2.42-16.27-3.61-24.41-1.56-10.66-3.11-21.33-4.67-32-.45-3.08-.96-6.15-1.37-9.24-.12-.91-.45-1.37-1.39-1.63-3.94-1.07-6.18-3.86-7.12-7.68-1.91-7.75-3.7-15.53-5.54-23.3,1.94-2.03,4.66-1.98,7.1-2.67.89-.04,1.78.03,2.56.44,7.84,4.06,15.94-1.73,17.02-10.22.74-5.81-1.41-10.52-6.18-13.88-4.07-2.87-10.57-1.69-14.09,2.38-.57.66-1.02,1.43-1.69,2.01-1.36.97-2.9,1.38-4.54,1.46-1.62-1.2-2.37-2.94-2.95-4.78Z"/>
  <path class="cls-7" d="m226.54,398.62c-7.6.23-13.24-3.13-16.91-9.65-3.26-5.79-2.67-11.48,1.15-16.87.46-.65,1.11-1.16,1.38-1.94.35-.81.69-1.61,1.23-2.32,10.15-13.42,17.39-28.44,24.02-43.8,3.77-8.73,6.96-17.69,10.13-26.65,1.21-3.41,1.33-3.66-2.31-3.99-4.27-.38-8.47-1.53-12.81-1.34-3.93-1.53-8.13-1.58-12.22-2.14-12.17-1.68-24.31-3.47-36.48-5.13-7.59-1.03-14.11-4.54-18.75-10.89-1.17-1.6-2.71-2.82-3.8-4.45.39-.06.77-.12,1.17-.18-7.19-18.99-10.37-38.71-11.33-58.86-.24-5.63-.25-11.26,0-16.89.65-14.52,2.85-28.74,8.24-42.33,2.51-6.33,5.63-12.35,10.07-17.59,4.73-5.58,10.45-9.69,17.74-11.05,10.19-1.89,18.75,1.47,25.76,8.86,5,5.27,7.69,11.67,8.41,18.9.22,2.91.25,5.82,0,8.73-.31,5.66-.94,11.29-1.58,16.91-.81.21-.97-.47-1.24-.89-2.65-4.03-3.87-8.54-4.48-13.26-.47-3.64-.63-7.31-.87-10.98-.37-5.48-1.52-10.75-4.63-15.41-4.77-7.15-12.98-8.69-20.04-3.81-1.72,1.19-3.22,2.61-4.51,4.25-3.58,4.53-5.22,9.81-5.96,15.43-.3,3.22-.28,6.43-.01,9.65,1.71,16.48,8.86,30.35,20.25,42.18,4.96,5.15,10.49,9.61,16.55,13.39,1.31.82,1.82,1.69,1.76,3.26-.24,6.24.2,12.47.48,18.7.1,2.41.1,2.45,2.37,3.12,10.72,3.17,21.45,6.33,32.17,9.48,11.26,3.31,22.52,6.64,33.79,9.91,2.73.79,4.59,2.51,5.88,4.93,1.62,3.02,2.25,6.3,2.42,9.69.3,5.97-.67,11.78-2.22,17.52-1.75,6.51-4.39,12.68-7.33,18.72-11.98,24.61-25.32,48.44-40.8,71.03-2.44,3.56-5.08,6.97-7.91,10.24-2.38,2.76-5.15,4.75-8.76,5.49Z"/>
  <path class="cls-8" d="m132.88,142.65c4.12,1.18,6.15,4.11,6.79,8.18.24.7.14,1.43.14,2.14,0,33.64,0,67.27,0,100.91,0,.71.11,1.44-.15,2.14-.18,1.45-.64,2.8-1.41,4.03-1.64,2.6-3.89,4.16-7.07,4.15-4.63-.01-9.26-.02-13.88.01-1.59.01-3.18.13-4.78.2-.32.65-.92.49-1.45.51-4.99.18-9.96-.73-14.95-.11-.63.08-1.27-.03-1.83-.4-1.01-.32-2.06-.21-3.09-.21-15.8,0-31.6,0-47.4,0-5.28,0-8.29-2.49-9.34-7.68-.3-.69-.17-1.42-.17-2.13,0-33.98,0-67.95,0-101.93,0-.71-.12-1.44.16-2.14.66-3.97,2.81-6.62,6.76-7.69,5.02-.35,10.05-.1,15.07-.15,5.19-.05,10.38,0,15.57-.02,1.76.55,1.21,2.07,1.21,3.22.05,11.19.03,22.39.03,33.58,0,.8-.01,1.6.01,2.75,1.21-1.5,2.25-1.39,3.14,0,.59.92,1.2.93,1.84.03.97-1.36,1.99-1.52,3.03-.07.59.82,1.2,1.05,1.85.07.95-1.44,1.98-1.52,3.01-.11.75,1.03,1.35.9,1.97-.12.92-1.5,1.89-1.58,2.86-.03.59.94,1.25,1.21,2.04.19.98-1.26,1.98-1.18,2.93.04.59.75,1.03,1.07,1.83.1,1.63-1.99,1.69-1.94,3.42.19,0-12.24-.02-24.38.03-36.52,0-1.17-.51-2.64,1.14-3.3,9.38.01,18.75,0,28.12.01.86,0,1.75-.17,2.59.17Z"/>
  <path class="cls-2" d="m306.84,437.37c-1.33-4.18-2.6-8.37-3.29-12.73-1.02-6.43-1.16-12.85-.48-19.33.93-8.86,3.47-17.21,7.79-24.98,7.35-13.23,17.8-22.99,32.45-27.46,17.34-5.29,33.2-1.81,47.25,9.45,12.1,9.7,19,22.6,21.96,37.69.52,2.66.79,5.36,1.17,8.05-.02,3.04.11,6.09-.1,9.11-1.41,20.13-9.37,36.89-25.89,48.95-17.76,12.97-41.61,12.75-59.38-.2-9.23-6.72-15.84-15.46-20.34-25.88-.32-.73-.66-1.45-1-2.17-.19-.13-.23-.3-.15-.51Z"/>
  <path class="cls-2" d="m86.78,407.15c.43-7.42,2.27-14.5,5.21-21.28,5.02-11.6,12.66-21.05,23.48-27.71,9.69-5.96,20.24-8.58,31.6-7.31,17.4,1.94,30.32,11.07,39.82,25.38,6.03,9.08,9.26,19.19,10.36,30.04,1.04,10.36-.24,20.39-3.62,30.19-.1.3-.14.62-.21.92.15.22.12.38-.14.47-1.24,2.58-2.37,5.22-3.74,7.73-6.73,12.33-16.27,21.66-29.52,26.75-13.69,5.27-27.24,4.57-40.37-1.92-12.53-6.19-21.21-16.13-27.08-28.68-.3-.65-.64-1.28-.96-1.92-.19-.2-.39-.4-.59-.59-2.96-5.88-4.02-12.26-4.86-18.69-.4-3.09-.63-6.2-.54-9.32.04-1.48.27-2.85,1.17-4.06Z"/>
  <path class="cls-7" d="m296.48,203.5c1.26,1.31,2.08,2.89,2.87,4.51.75.47.99,1.22,1.07,2.04.61,6.49-.51,12.53-4.49,17.87-.77,1.04-1.62,1.96-2.81,2.52-.5.4-.99.8-1.5,1.19-2.56,1.96-5.39,3.08-8.68,2.79-21.18-1.87-41.69-6.22-60.54-16.56-14.4-7.9-26.08-18.65-33.75-33.38-5.22-10.02-8.02-20.68-7.7-32.03.16-5.62,2-10.65,6.29-14.54,6.68-6.05,15.99-4.49,20.27,3.42,1.54,2.85,2.35,5.92,2.64,9.14.41,4.53.68,9.06,1.72,13.53,2.3,9.9,7.91,17.29,16.49,22.56,6.54,4.01,13.68,6.5,21.05,8.41,9.45,2.45,19.08,3.87,28.78,4.88,3.81.4,7.63.77,11.45,1.01,2.55.16,4.78,1.17,6.82,2.65Z"/>
  <path class="cls-7" d="m257.77,90.05c-8.09-4.33-16.19-8.66-24.37-13.03-.72.59-.73,1.45-.95,2.16-2.09,6.71-4.08,13.45-6.24,20.14-.5,1.55-.21,2.45,1,3.46,5.92,5,11.77,10.09,17.64,15.14.3.26.59.54.91.77.89.64,1.14,1.33.67,2.45-.86,2.06-1.51,4.21-2.29,6.3-.58,1.57-.63,1.6-2.2.81-4.64-2.34-9.25-4.71-13.88-7.06-.57-.29-1.1-.66-1.76-.72-1.19-.22-2.27-.73-3.35-1.26-11.57-5.64-22.87-11.8-34.43-17.46-.95-.46-1.81-1.01-2.5-1.82-2.3-1.46-4.8-2.53-7.2-3.79-1.63-.86-1.65-.88-1.25-2.76,1.12-5.33,1.59-10.72,2.03-16.14.82-10.29,3.8-19.89,10.24-28.19,4.72-6.08,11.12-9.21,18.55-10.42,16.34-2.64,30.09,2.24,41.3,14.39,4.32,4.68,6.73,10.23,7.55,16.5.53,4.04,1,8.08,1.12,12.16.34,2.45.08,4.91.15,7.37.01.52-.12.95-.76.97Z"/>
  <path class="cls-7" d="m94.27,264.41c2.58-.44,5.16-.69,7.8-.5,3.47.25,6.96.34,10.44.5,9.26.88,18.54,1.71,27.8,2.67,6.96.72,13.91,1.59,20.86,2.39,1.58.34,2.48,1.41,3.32,2.72,4.48,6.94,11.19,10.58,19.05,11.98,4.11.73,8.35.96,12.48,1.64,3.91.64,7.85.99,11.75,1.73,3.96.75,8.02.99,12.01,1.59,3.6.54,7.2,1.1,10.83,1.51.74.08,1.86.08,2.03,1.29.46,1.1-.28,1.81-.88,2.51-2.23,2.59-5.02,4.03-8.51,3.95-1.72-.4-3.46-.43-5.22-.43-39.14.01-78.27.01-117.41,0-.95,0-1.92.18-2.85-.17-3.71-.83-6.28-3.25-8.42-6.19-2.42-3.32-3.89-7.05-4.54-11.11-.3-1.94-.25-3.89-.02-5.83.91-5.5,4.22-8.78,9.48-10.25Z"/>
  <path class="cls-7" d="m86.78,407.15c-.65,2.89-.66,5.85-.41,8.75.64,7.32,1.63,14.6,4.47,21.47.27.66.49,1.34.74,2.01-7.2.33-14.4.27-21.6.03-2.64-.87-3.81-3.06-4.64-5.43-1.67-4.76-1.88-9.68-1.33-14.66.32-2.95.95-5.82,2.4-8.46,1.11-2.02,2.66-3.36,5.08-3.43,4.65.28,9.31.05,13.96.12.49,0,.93-.13,1.33-.41Z"/>
  <path class="cls-7" d="m293.12,230.43c3.08-3.51,5.46-7.39,6.34-12.05.65-3.46.64-6.92-.11-10.38,1.39-.65,2.98-.7,4.33-1.47,2.83-1.78,6.07-2.38,9.23-3.14,1.71-.41,3.32.19,4.73,1.21,3.82,2.79,5.79,8.76,4.45,13.29-.97,3.3-2.89,5.55-6.32,6.53-3.05.87-6.02,2.05-9.24,2.21-2.47.56-4.88,1.31-7.27,2.13-2.04.56-4.09,1.11-6.13,1.67Z"/>
  <path class="cls-7" d="m356.91,225.28c-1.27-1.93-1.29-4.23-1.78-6.36-1.74-7.5-3.26-15.04-4.85-22.57-.06-.31-.02-.64-.03-.95,5.61-1.27,10.07.66,13.47,5.09,5.08,6.62,4.2,16.36-1.86,22.03-1.42,1.33-3.06,2.28-4.95,2.77Z"/>
  <path class="cls-7" d="m184.38,99.94c5.33,2.36,10.43,5.17,15.63,7.78,7.56,3.79,15.07,7.67,22.6,11.52.71.36,1.47.63,2.04,1.23-7.7,2.68-15.26,2.09-22.54-1.34-8.44-3.98-14.23-10.57-17.73-19.2Z"/>
  <path class="cls-9" d="m97.77,297.79c.96-.02,1.92-.05,2.87-.05,40.38,0,80.76,0,121.15,0,.72,0,1.43.06,2.15.09-.51,1.34-1.37.94-2.26.47-1.04-.03-2.07-.07-3.11-.07-38.95,0-77.91,0-116.86,0-1.28,0-2.55-.04-3.83-.06-.05-.12-.09-.24-.12-.36Z"/>
  <path class="cls-9" d="m193.26,437.85c.05-.16.09-.32.14-.47.96.01,1.92.04,2.88.04,35.89,0,71.79,0,107.68,0,.96,0,1.92-.03,2.88-.04.05.17.1.34.15.51-37.51,0-75.02,0-112.52,0-.4,0-.8-.02-1.2-.04Z"/>
  <path class="cls-9" d="m34.43,150.32c.02,1.2.07,2.39.07,3.59,0,33.8,0,67.61,0,101.41,0,.4-.04.8-.06,1.19-.6-.77-.41-1.68-.41-2.54,0-33.7,0-67.41,0-101.11,0-.86-.21-1.77.4-2.54Z"/>
  <path class="cls-9" d="m139.66,256.01c-.03-1.28-.08-2.55-.08-3.83,0-32.99,0-65.98,0-98.97,0-.8.06-1.59.09-2.39.58.69.38,1.52.38,2.3,0,33.53,0,67.06,0,100.58,0,.78.19,1.61-.39,2.3Z"/>
  <path class="cls-9" d="m72.35,142.74c-9.67-.02-19.34-.04-29.01-.06-.72,0-1.44-.04-2.15-.05.84-.68,1.84-.41,2.77-.41,10.69,0,21.38.03,32.07.03,17.95,0,35.9-.03,53.85-.03,1.01,0,2.09-.31,3,.43-9.19.01-18.39.02-27.58.03-1.2,0-2.4.03-3.6.04-.93.79-2.07.75-3.19.75-7.66.02-15.32.02-22.97,0-1.12,0-2.25.03-3.2-.74Z"/>
  <path class="cls-9" d="m278.71,399c-.52.73-1.3.49-1.98.49-15.78.01-31.56.01-47.34,0-.7,0-1.45.18-2.03-.43,13.29-.01,26.59-.03,39.88-.04,3.82,0,7.64-.01,11.46-.02Z"/>
  <path class="cls-3" d="m69.97,439.41c7.2-.01,14.4-.02,21.6-.03.05.14.05.29.02.44-6.37,0-12.73,0-19.1-.02-.85,0-1.76.27-2.52-.39Z"/>
  <path class="cls-1" d="m151.01,193.53c0,5.63,0,11.26,0,16.89-.38-.47-.35-1.03-.35-1.58,0-4.58,0-9.15,0-13.73,0-.55-.02-1.11.36-1.58Z"/>
  <path class="cls-10" d="m177.89,160.96c-.66-3.22-.7-6.43.01-9.65,0,3.22,0,6.43-.01,9.65Z"/>
  <path class="cls-4" d="m221.22,159.06c0-2.91,0-5.82,0-8.73.73,2.91.62,5.82,0,8.73Z"/>
  <path class="cls-6" d="m84.8,274.66c0,1.94.02,3.89.02,5.83-.67-1.94-.68-3.88-.02-5.83Z"/>
  <path class="cls-7" d="m221.69,298.3c.73-.28,1.57,0,2.26-.47,3.96-.4,6.91-2.29,8.7-5.9.43-.29.63-.9,1.36-.79,5.04.77,10.09,1.5,15.41,2.29-.5,1.56-.93,2.97-1.41,4.36-6.08,17.77-13.06,35.17-22.09,51.68-3.6,6.6-7.57,12.96-12.17,18.92-.48.63-.91,1.32-1.59,1.77-3.11-11.41-5.14-23.03-6.41-34.78-.29-2.7-.57-5.39-.81-8.09-.67-7.59,1.98-14.08,6.67-19.89,2.88-3.57,6.45-6.37,10.08-9.11Z"/>
  <path class="cls-7" d="m121.81,324.62c3.67,0,7.35.14,11.01-.04,2.99-.15,5.37,2.24,4.06,6.33-.58,1.81-2.19,2.2-3.83,2.33-1.35.11-2.71.03-4.07.03-5.91,0-11.81,0-17.72,0-.64,0-1.29.03-1.91-.09-2.41-.46-3.99-2.35-3.8-4.49.21-2.35,2.02-4.02,4.51-4.05,3.91-.04,7.82-.01,11.73-.01Z"/>
  <path class="cls-7" d="m121.48,316.95c-3.99,0-7.98.01-11.98,0-2.29-.01-3.97-1.81-3.92-4.13.04-2,1.96-4.02,3.96-4.02,8.06-.03,16.13-.03,24.19,0,1.96,0,3.38,1.51,3.44,3.49.04,1.26.18,2.52-.97,3.53-.83.73-1.61,1.17-2.75,1.15-3.99-.05-7.98-.02-11.98-.02Z"/>
  <path class="cls-7" d="m306.52,226.64c2.8-.88,5.59-1.79,8.4-2.65,5.03-1.54,7.25-4.62,6.9-9.94-.2-3.1-1.22-5.92-3.55-8.13-1.88-1.79-4.02-2.45-6.57-1.67-2.66.81-5.29,1.74-8.02,2.29.98-1.55,2.12-2.9,3.62-4.06,4.24-3.28,11.26-2.71,15.23,1.35,5.44,5.56,5.63,15.96-.45,21.49-3.22,2.93-8.2,4.39-12.8,2-.88-.45-1.77-.69-2.75-.69Z"/>
  <path class="cls-7" d="m72.35,142.74c9.78,0,19.57-.01,29.35-.02-.02,12.79-.04,25.58-.06,38.37,0,.95,0,1.91,0,3.1-1.47-.77-1.36-2.48-2.55-3.25-1.04.93-1.09,2.63-2.46,3.33-1.13-.76-1.08-2.4-2.43-2.99-1.06.72-1.25,2.17-2.35,3.02-1.15-.88-1.49-2.37-2.46-3.42-1.13.95-1.22,2.51-2.28,3.37-1.46-.53-1.3-2.4-2.72-3.1-.97.89-1.22,2.38-2.44,3.21-.92-.97-1.2-2.32-2.33-3.12-1.13.68-1.36,2.07-2.29,3.06-1.27-.64-1.47-2.17-2.44-3.12-1.27.34-1.12,1.91-2.44,2.56-.03-13.79-.06-27.4-.09-41.01Z"/>
  <path class="cls-7" d="m325.24,412.41c-.33-5.85,1.28-12.01,4.2-17.75,3.23-6.36,7.91-11.49,14.29-15,5.58-3.07,11.52-4.33,17.73-3.6,6.43.75,12.23,3.27,17.04,7.81,3.57,3.37,6.71,7.03,8.76,11.54,2.19,4.83,3.55,9.82,3.79,15.17.22,4.88-.15,9.64-1.5,14.33-1.61,5.61-4.36,10.55-8.32,14.88-3.86,4.22-8.39,7.37-13.83,9.1-9.99,3.18-19.21,1.49-27.54-4.78-8.1-6.1-12.55-14.39-14.19-24.34-.37-2.23-.37-4.44-.44-7.35Z"/>
  <path class="cls-7" d="m175.08,411.74c.25,7.89-1.36,15.36-5.38,22.2-3.47,5.91-8.2,10.62-14.43,13.52-5.02,2.34-10.34,3.42-16,2.73-4.84-.6-9.29-2.07-13.37-4.69-4.36-2.79-7.86-6.43-10.62-10.79-1.97-3.11-3.61-6.38-4.56-9.94-1.29-4.84-2.18-9.69-1.71-14.81.42-4.51,1.44-8.77,3.02-12.95.93-2.47,2.33-4.72,3.78-6.91,3.13-4.75,7.33-8.39,12.37-10.99,5.3-2.73,10.95-3.59,16.9-2.96,7.4.78,13.57,4.08,18.7,9.21,5.71,5.71,9.29,12.62,10.62,20.69.31,1.89.56,3.77.69,5.68Z"/>
</svg>