<?xml version="1.0" encoding="UTF-8"?>
<svg id="Capa_1" data-name="Capa 1" xmlns="http://www.w3.org/2000/svg" viewBox="0 0 740.67 613.65">
  <defs>
    <style>
      .cls-1 {
        fill: #2f2e41;
      }

      .cls-2 {
        fill: #fff;
      }

      .cls-3 {
        fill: #3f3d56;
      }

      .cls-4 {
        fill: #e6e6e6;
      }

      .cls-5 {
        fill: #f9a328;
      }

      .cls-6 {
        fill: #ccc;
      }
    </style>
  </defs>
  <path class="cls-2" d="m316.24,0c2.46,0,2.95.44,2.94,2.67"/>
  <g>
    <path class="cls-4" d="m421.94,544.78c-5.12-7.17-12.05-12.42-20.77-14.38-7.6-1.71-15.42-1.42-23.14-1.36l-97.69.75c-8.37.06-16.39,7.31-16,16,.39,8.61,7.03,16.07,16,16,28.62-.22,57.23-.44,85.85-.66,6.75-.05,13.5-.17,20.24-.15,1.52,0,3.02.08,4.54.1.37,0,.63,0,.82,0,.05.01.09.03.15.04.79.22,1.6.37,2.39.57-.28,0,.52.5.91.67.05.11.17.3.37.6.27.51,1.08,2.06,1.11,2.01,1.21,3.06,2.21,6.2,2.99,9.39,1.86,7.05,2.27,8.52,2.54,15.13.34,8.35,7.12,16.4,16,16,8.38-.38,16.36-7.04,16-16-.61-15.09-3.26-32.05-12.3-44.71Z"/>
    <path class="cls-4" d="m286.08,580.89c-1.84-11.12-3.63-22.25-5.51-33.36-1.9-11.27-5.77-21.6-14.55-29-2.34-1.98-4.77-3.82-7.22-5.66-.86-.65-1.72-1.29-2.56-1.96-.05-.04-.08-.06-.13-.1-.09-.08-.21-.18-.36-.3-3.66-3.09-7.19-6.33-10.56-9.76-2.99-3.05-5.85-6.23-8.57-9.54-.68-.83-1.35-1.66-2.02-2.5-.11-.14-.73-.94-1.13-1.46-.38-.52-1.07-1.46-1.18-1.62-.78-1.1-1.54-2.2-2.29-3.32-5.1-7.64-9.51-15.7-13.19-24.12-.36-.83-.72-1.67-1.07-2.52-.09-.26-.21-.59-.37-1.03-.74-2.04-1.48-4.07-2.16-6.14-1.44-4.38-2.68-8.83-3.71-13.34-.51-2.23-.97-4.47-1.38-6.71-.21-1.16-.41-2.32-.59-3.48-.03-.19-.21-1.45-.32-2.15-.08-.71-.22-1.97-.24-2.17-.12-1.17-.22-2.34-.31-3.52-.2-2.64-.34-5.28-.42-7.93-.12-4.71-.04-9.41.25-14.12.17-2.64.4-5.28.69-7.92.02-.16.03-.29.04-.41.02-.12.04-.25.06-.42.22-1.46.44-2.91.7-4.36.96-5.5,2.21-10.94,3.74-16.31.73-2.54,1.51-5.06,2.36-7.56.38-1.11.77-2.21,1.17-3.31-.03.07,1.18-3.02,1.2-3.12,4.79-11.33,12.64-21.66,12.65-34.53,0-8.71-7.36-17.06-16-16.66-8.95.34-16.02,7.7-16,16.66,0,.2,0,.36,0,.52-.08.27-.15.5-.21.7-.94,2.03-2.08,3.96-3.11,5.94-2.81,5.42-5.21,11.02-7.49,16.71-3.73,9.26-6.59,18.84-8.53,28.63-4.22,21.45-4.55,43.48-.97,65.04,6.2,37.81,26.66,74.01,55.1,98.34,2.47,2.11,5,4.15,7.55,6.15,1.06.83,2.12,1.64,3.19,2.45.51.38,2.6,2.03,1.68,1.23,1.98,1.69,2.82,2.54,3.33,3.79.07.29.17.68.31,1.21.36,1.41.7,2.81.98,4.23,2.48,12.45,4.2,25.11,6.26,37.64,1.42,8.61,12.02,14.21,19.68,11.63,8.92-3,12.7-11.26,11.17-20.49Z"/>
    <path class="cls-3" d="m423.56,613.18c-13.99.04-25.37-11.26-25.44-25.25v-18.25c-19.11,2.14-84.54,1.64-103.3-1.37v18.89c-.11,14.05-11.58,25.35-25.63,25.25-13.9-.1-25.15-11.35-25.25-25.25v-37.09c-51.73-28.74-83.87-83.21-84-142.39,0-49.83,22.58-96.31,61.96-127.53,25.6-20.37,56.71-32.62,89.32-35.17,4.43-.35,8.88-.52,13.24-.52,15.35,0,84.62,2.37,102,7.37l39.63-39.32c1.19-1.2,2.99-1.56,4.55-.91,1.57.63,2.6,2.15,2.58,3.85v6.25l7.72-7.64c1.19-1.2,2.99-1.56,4.55-.91,1.57.63,2.6,2.15,2.59,3.85v69.86c66.76,60.19,72.09,163.1,11.91,229.87-14.33,15.89-31.65,28.81-50.98,38v33.17c-.07,13.99-11.45,25.29-25.44,25.25Zm-23.44-45.77v20.52c.11,12.95,10.69,23.35,23.63,23.25,12.8-.1,23.14-10.45,23.25-23.25v-34.43l.57-.27c27.13-12.87,50.16-33.01,66.53-58.18,43.11-66.37,31.35-154.27-27.7-206.96l-.33-.3v-70.76c.01-.88-.52-1.68-1.34-2-.82-.35-1.76-.16-2.38.47l-11.13,11.02v-11.05c.01-.88-.52-1.68-1.34-2-.82-.35-1.76-.16-2.39.48l-40.48,40.16-.58-.18c-16.16-5.06-86.51-7.45-101.98-7.45-4.31,0-8.71.17-13.08.52-32.22,2.53-62.95,14.63-88.24,34.75-38.89,30.84-61.2,76.75-61.2,125.97.14,58.66,32.1,112.62,83.48,140.92l.52.29v38.27c.11,12.95,10.69,23.35,23.64,23.24,12.79-.11,23.14-10.45,23.24-23.24v-21.29l1.18.22c16.86,3.17,87.83,3.67,104.98,1.42l1.13-.15Z"/>
    <path class="cls-5" d="m287.99,135.59l-110.74,33.28c-7.34,2.22-11.49,9.96-9.28,17.3,2.21,7.33,9.94,11.48,17.27,9.29l96.91-29.13,2.03-.61c.41-10.46,3.25-20.68,8.29-29.86-.63-.28-1.31-.46-2-.52-.84-.08-1.68,0-2.48.25Z"/>
    <path class="cls-1" d="m183.33,202.56c-3.01,0-5.69-1.94-6.64-4.8l-6.92-20.9c-1.22-3.67.77-7.63,4.44-8.85,0,0,0,0,0,0l90.13-29.87c3.67-1.22,7.63.77,8.85,4.44,0,0,0,0,0,0l6.92,20.9c1.2,3.57-.66,7.45-4.19,8.76-.08.03-.17.06-.25.09l-90.13,29.87c-.71.24-1.46.36-2.21.36Z"/>
    <path class="cls-3" d="m352.12,98.48c-37.82.01-68.79,30.05-69.97,67.85-.02.71-.03,1.43-.03,2.15,0,38.66,31.34,70,70,70s70-31.34,70-70-31.34-70-70-70h0Zm0,138c-37.54-.04-67.96-30.46-68-68,0-.93.02-1.85.06-2.76,1.53-37.52,33.18-66.71,70.7-65.18s66.71,33.18,65.18,70.7c-1.48,36.45-31.46,65.24-67.94,65.24h0Z"/>
    <path class="cls-4" d="m403.73,169.48c0,28.51-23.03,51.62-51.44,51.62s-51.44-23.11-51.44-51.62c0-1.64.08-3.25.23-4.84,2.66-28.38,27.75-49.22,56.03-46.55,26.42,2.5,46.62,24.76,46.62,51.39Z"/>
    <path class="cls-1" d="m186.54,287.25c-3.18,0-5.96-2.14-6.77-5.22l-3.77-14.27c-.98-3.73,1.24-7.56,4.98-8.55l118.94-31.43c3.74-.98,7.56,1.25,8.55,4.99l3.19,12.09-.6.05c-30.5,2.37-59.69,13.43-84.11,31.87l-.17.08-38.46,10.16c-.58.15-1.18.23-1.78.23Z"/>
    <path class="cls-3" d="m166.84,357.73c-13.95-2.06-27.3-7.11-39.12-14.79-5.86-3.8-11.28-8.24-16.17-13.23-4.83-4.92-9.45-10.52-11.84-17.08-2.3-6.07-2.18-12.79.33-18.77,2.48-5.95,7.21-10.67,13.17-13.13,5.99-2.39,13.23-2.64,19.06-.03,2.78,1.22,5.18,3.15,6.96,5.61.83,1.13,1.44,2.41,1.81,3.76.34,1.23.37,2.52.09,3.76-.69,2.51-2.43,4.59-4.77,5.72-2.55,1.31-5.31,2.15-8.15,2.49-2.86.39-6.97.74-9.27-1.55-.47-.45-.85-1-1.09-1.61-.17-.47-.23-.97-.17-1.46-.03.22.14-.47.13-.44-.04.1-.19.35.03-.03.07-.13.15-.25.23-.36-.08.1-.24.26.06-.02.25-.27.56-.47.91-.56.14-.04.28-.07.42-.11.35-.1-.35,0,0,0,.14,0,.28,0,.42,0,.35-.02-.35-.1-.01-.01.13.03.26.07.39.11.28.09-.2-.21,0,.01.22.26-.24-.25.02,0,.13.12.25.26.36.39.92.91,2.4.91,3.32,0,.89-.93.89-2.39,0-3.32-2.31-2.87-6.88-2.16-9.22.26-2.98,3.09-1.8,7.98,1.1,10.68,3.28,3.05,7.93,3.26,12.16,2.75,3.57-.34,7.05-1.33,10.27-2.9,3.2-1.57,5.7-4.28,7.02-7.59,1.21-3.58.82-7.5-1.06-10.77-3.73-7.01-11.45-10.61-19.08-11.23-7.94-.62-15.79,1.96-21.82,7.16-5.75,5.18-9.29,12.36-9.89,20.08-.67,8,2.44,15.76,6.96,22.21,4.74,6.56,10.39,12.4,16.78,17.35,12.5,9.98,27.16,16.89,42.81,20.19,1.86.38,3.73.71,5.61.99,1.24.3,2.51-.42,2.88-1.64.33-1.25-.39-2.53-1.64-2.88h0Z"/>
    <path class="cls-6" d="m389.39,255.91c-21.19-.3-42.31.12-63.37,1.28-7.2.4-18.08.36-18.08,4.08,0,3.12,13.85,6.14,21.1,5.74,18.19-1,34.17.7,51.87,1.38,6.19.24,12.4-.27,18.46-1.53,28.29-5.85,7.91-9.46-9.97-10.96Z"/>
    <path class="cls-3" d="m360.01,269.22c-2.21,0-54.11-.08-54.11-7.25s51.9-7.25,54.11-7.25,54.11.08,54.11,7.25-51.9,7.25-54.11,7.25Zm-52.08-7.25c1.42,2.17,20.5,5.25,52.08,5.25s50.66-3.08,52.08-5.25c-1.42-2.17-20.5-5.25-52.08-5.25s-50.66,3.08-52.08,5.25h0Z"/>
    <path class="cls-3" d="m524.67,457.67c11.49-.32,25.79-.72,36.8-8.76,6.64-5.05,10.71-12.77,11.12-21.1.22-6.35-2.07-11.9-6.46-15.61-5.75-4.86-14.15-6-23.21-3.34l9.38-68.55-6.89-.94-11.03,80.59,5.75-2.64c6.67-3.06,15.82-4.61,21.5.19,2.83,2.55,4.31,6.27,4.01,10.06-.34,6.2-3.36,11.94-8.28,15.73-8.57,6.26-19.97,7.07-32.89,7.43l.19,6.95Z"/>
    <rect class="cls-3" x="468.2" y="346.21" width="37.43" height="6.95"/>
    <path class="cls-1" d="m203.48,319.21c-3.44-.01-6.37-2.52-6.9-5.92l-2.28-14.58c-.59-3.82,2.01-7.4,5.83-8l121.53-19.04c3.82-.59,7.4,2.02,8,5.83l2.28,14.58c.59,3.82-2.01,7.4-5.83,8l-121.53,19.04c-.36.06-.73.09-1.1.09Z"/>
    <circle class="cls-5" cx="153.18" cy="97.33" r="51"/>
    <path class="cls-1" d="m182.06,110.52c1.63-.57,3.12-1.48,4.37-2.68,1.67-1.72,2.5-4.1,2.25-6.48-.14-1.7-1.07-3.24-2.51-4.16-1.85-1.14-4.28-1.09-6.75.05l-.28-19.91-2,.03.33,23.4,1.52-1c1.77-1.16,4.3-1.99,6.13-.87.91.6,1.5,1.6,1.57,2.69.17,1.78-.44,3.54-1.68,4.83-2.17,2.15-5.38,2.87-9.04,3.53l.35,1.97c1.95-.3,3.86-.77,5.73-1.4Z"/>
    <rect class="cls-1" x="189.17" y="76.74" width="10.77" height="2" transform="translate(-9.45 30.01) rotate(-8.61)"/>
    <rect class="cls-1" x="155.55" y="81.83" width="10.77" height="2" transform="translate(-10.59 25.03) rotate(-8.61)"/>
    <path class="cls-1" d="m186.89,318.32c-3.76,0-7.11-2.34-8.43-5.86l-35.16-94.17c-8.95-24.05,3.26-50.8,27.28-59.8l28.59-10.68c2.23-.84,4.71-.75,6.88.24,2.16.97,3.85,2.76,4.68,4.99l65.14,122.98c1.77,4.65-.56,9.85-5.2,11.62-.02,0-.04.01-.05.02l-80.57,30.08c-1.01.38-2.07.57-3.15.57Z"/>
    <path class="cls-4" d="m190.49,151.06l64.63,86.43-43.73-85.52c-1.52-4.2-6.15-6.37-10.35-4.85,0,0,0,0,0,0l-10.55,3.94Z"/>
    <path class="cls-5" d="m292.82,216.69l-115.4-7.43c-7.65-.49-13.45-7.09-12.96-14.74s7.09-13.45,14.74-12.96c0,0,0,0,.01,0l115.4,7.43c3.58.23,6.3,3.32,6.07,6.9,0,0,0,0,0,0l-.95,14.73c-.23,3.58-3.32,6.3-6.9,6.07h0Z"/>
    <path class="cls-1" d="m261.99,221.46c-.15,0-.31,0-.46-.01h0l-94.76-6.1c-3.86-.25-6.78-3.58-6.54-7.43,0,0,0,0,0,0l1.62-25.16c.25-3.86,3.58-6.78,7.44-6.54,0,0,0,0,0,0l94.76,6.1c3.86.25,6.78,3.58,6.54,7.44l-1.62,25.16c-.18,2.75-1.96,5.14-4.55,6.11-.78.29-1.6.44-2.43.44Z"/>
    <path class="cls-1" d="m152.6,63.41c6.71-5.77,15.92-.61,23.62-1.51,7.36-.86,13.17-7.47,14.66-14.48,1.73-8.18-2.52-16.38-8.78-21.49-6.86-5.59-15.95-7.19-24.57-6.16-9.88,1.18-18.91,5.79-27.02,11.36-7.82,5.21-15.02,11.31-21.44,18.17-5.75,6.35-10.62,13.92-12.18,22.47-1.41,7.77-.33,16.38,4.26,22.96,2.43,3.37,5.7,6.06,9.47,7.81,3.94,1.93,8.14,3.32,11.95,5.5,5.77,3.31,11.37,10.16,9.57,17.29-.39,1.56-1.15,3-2.23,4.19-1.29,1.43-3.62-.46-2.32-1.9,2.27-2.52,2.18-5.89.97-8.9-1.44-3.39-3.99-6.2-7.23-7.95-3.99-2.28-8.4-3.69-12.49-5.77-3.92-1.9-7.32-4.72-9.91-8.21-4.9-6.81-6.36-15.67-5.25-23.86,1.2-8.87,5.76-16.93,11.47-23.68,6.22-7.35,13.85-13.57,21.65-19.16,8.37-6,17.62-11.07,27.85-12.9,8.87-1.59,18.48-.61,26.24,4.22,7.24,4.51,12.79,12.27,13.34,20.95.4,8.04-3.56,15.66-10.38,19.94-3.43,2.05-7.42,2.98-11.41,2.64-4.26-.27-8.53-1.58-12.82-1.22-1.94.12-3.79.87-5.27,2.13-1.47,1.26-3.21-1.18-1.76-2.43h0Z"/>
    <path class="cls-3" d="m739.48,613.65H1.18c-.66,0-1.19-.54-1.18-1.2,0-.65.53-1.18,1.18-1.18h738.29c.66,0,1.19.54,1.19,1.19,0,.65-.53,1.18-1.19,1.19Z"/>
  </g>
</svg>