<?xml version="1.0" encoding="UTF-8"?>
<svg id="Capa_1" data-name="Capa 1" xmlns="http://www.w3.org/2000/svg" viewBox="0 0 675.67 704.37">
  <defs>
    <style>
      .cls-1 {
        fill: #ffb7b7;
      }

      .cls-2 {
        fill: #2f2e41;
      }

      .cls-3 {
        fill: #fff;
      }

      .cls-4 {
        fill: #e6e6e6;
      }

      .cls-5 {
        fill: #dadada;
      }

      .cls-5, .cls-6 {
        stroke: #000;
        stroke-miterlimit: 10;
      }

      .cls-7, .cls-6 {
        fill: #f9a328;
      }

      .cls-8 {
        isolation: isolate;
        opacity: .2;
      }

      .cls-9 {
        fill: #ccc;
      }

      .cls-10 {
        fill: #f2f2f2;
      }
    </style>
  </defs>
  <g>
    <path class="cls-3" d="m452.18,396.28c0,2.23-.48,2.67-2.94,2.67"/>
    <path class="cls-3" d="m449.23,0c2.46,0,2.95.44,2.94,2.67"/>
  </g>
  <g>
    <path class="cls-10" d="m624.59,555.88l30.31,4.74c10.26-12.42,17.33-27.16,20.6-42.94-22.16,18.14-55.87,8.5-82.74,18.41-16.93,6.39-30.04,20.13-35.62,37.34l-14.81,15.94c27.14,10.74,57.62,9.07,83.41-4.59,7.11-3.86,13.71-8.59,19.64-14.1-10.61-6.68-20.79-14.79-20.79-14.79Z"/>
    <path class="cls-10" d="m613.83,507.4l29.24-9.28c3.64-15.69,3.4-32.04-.71-47.62-11.75,26.12-46.21,32.53-65.85,53.38-12.31,13.27-17.91,31.41-15.23,49.31l-6.15,20.87c29.08-2.49,55.61-17.58,72.61-41.31,4.65-6.62,8.44-13.81,11.29-21.38-12.47-1.25-25.2-3.97-25.2-3.97Z"/>
    <path class="cls-9" d="m675.67,599.02c0,.66-.53,1.19-1.18,1.19H1.19c-.66,0-1.19-.53-1.19-1.19s.53-1.19,1.19-1.19h673.29c.66,0,1.19.53,1.19,1.18h0Z"/>
    <circle class="cls-4" cx="279" cy="333.29" r="215"/>
    <path class="cls-3" d="m464,333.29c.04,58.54-27.66,113.63-74.67,148.51-1.55,1.16-3.13,2.29-4.72,3.39-63.49,44.13-147.73,44.13-211.22,0-1.59-1.1-3.17-2.23-4.72-3.39-82.02-60.94-99.1-176.84-38.16-258.86,10.79-14.52,23.64-27.37,38.16-38.16,1.55-1.16,3.13-2.29,4.72-3.39,63.49-44.13,147.73-44.13,211.22,0,1.59,1.1,3.17,2.23,4.72,3.39,47.01,34.88,74.71,89.97,74.67,148.51Z"/>
    <circle class="cls-5" cx="279" cy="333.29" r="169"/>
    <path class="cls-8" d="m279.44,164.76c-2.56,0-5.11.07-7.64.18,92.97,8.17,161.72,90.16,153.55,183.14-7.41,84.36-76.11,150.2-160.71,154.03,4.88.42,9.81.65,14.8.65,93.34,0,169-75.66,169-169s-75.66-169-169-169h0Z"/>
    <path class="cls-3" d="m279.5,152.29c-3.04,0-5.49,2.46-5.5,5.5v24c0,3.04,2.46,5.5,5.5,5.5s5.5-2.46,5.5-5.5v-24c0-3.04-2.46-5.49-5.5-5.5Z"/>
    <path class="cls-3" d="m389.33,184.78c-1.55-1.16-3.13-2.29-4.72-3.39-1.94-.13-3.8.78-4.9,2.39l-13.51,19.83c-1.71,2.51-1.06,5.93,1.45,7.64s5.93,1.06,7.64-1.45l13.51-19.83c1.04-1.53,1.24-3.48.53-5.19Z"/>
    <path class="cls-3" d="m450.71,275.2c-1.14-2.81-4.35-4.16-7.16-3.02,0,0,0,0,0,0l-22.24,9.03c-2.81,1.14-4.17,4.35-3.03,7.17,1.14,2.81,4.35,4.17,7.17,3.02h0l22.24-9.03c2.81-1.15,4.16-4.36,3.02-7.17Z"/>
    <path class="cls-3" d="m191.8,203.61l-13.51-19.83c-1.1-1.61-2.96-2.52-4.9-2.39-1.59,1.1-3.17,2.23-4.72,3.39-.71,1.71-.51,3.66.53,5.19l13.51,19.83c1.71,2.51,5.13,3.16,7.64,1.45,2.51-1.71,3.16-5.13,1.45-7.64Z"/>
    <path class="cls-3" d="m136.69,281.21l-22.24-9.03c-2.81-1.14-6.02.21-7.16,3.02s.21,6.02,3.02,7.16l22.24,9.03c2.81,1.14,6.02-.21,7.17-3.02s-.21-6.02-3.02-7.17h0Z"/>
    <path class="cls-3" d="m279.5,479.29c-3.04,0-5.49,2.46-5.5,5.5v24c0,3.04,2.46,5.5,5.5,5.5s5.5-2.46,5.5-5.5v-24c0-3.04-2.46-5.49-5.5-5.5Z"/>
    <path class="cls-3" d="m388.8,476.61l-13.51-19.83c-1.71-2.51-5.13-3.16-7.64-1.45s-3.16,5.13-1.45,7.64l13.51,19.83c1.1,1.61,2.96,2.52,4.9,2.39,1.59-1.1,3.17-2.23,4.72-3.39.71-1.71.51-3.66-.53-5.19Z"/>
    <path class="cls-3" d="m447.69,384.21l-22.24-9.03c-2.81-1.14-6.02.21-7.16,3.02s.21,6.02,3.02,7.16h0l22.24,9.03c2.81,1.14,6.02-.21,7.17-3.02,1.14-2.81-.21-6.02-3.03-7.17h0Z"/>
    <path class="cls-3" d="m190.35,455.33c-2.51-1.71-5.93-1.06-7.64,1.45l-13.51,19.83c-1.04,1.53-1.24,3.48-.53,5.19,1.55,1.16,3.13,2.29,4.72,3.39,1.94.13,3.8-.78,4.9-2.39l13.51-19.83c1.71-2.51,1.06-5.93-1.45-7.64,0,0,0,0,0,0Z"/>
    <path class="cls-3" d="m139.71,378.2c-1.14-2.81-4.35-4.16-7.16-3.02,0,0,0,0,0,0l-22.24,9.03c-2.81,1.14-4.17,4.35-3.02,7.17s4.35,4.17,7.17,3.02l22.24-9.03c2.81-1.15,4.16-4.36,3.02-7.17Z"/>
    <path class="cls-7" d="m286.63,330.56c1.06,6.26-3.15,12.19-9.41,13.27l-97.6,16.6c-6.26,1.07-12.2-3.15-13.27-9.41s3.15-12.2,9.41-13.27l97.6-16.6c6.26-1.06,12.19,3.15,13.27,9.41Z"/>
    <path class="cls-7" d="m389.35,438.69c-2.92,2.94-7.66,2.95-10.61.04l-105.06-104.24c-2.94-2.92-2.96-7.67-.04-10.61,2.92-2.94,7.67-2.96,10.61-.04l105.06,104.24c2.94,2.92,2.95,7.66.04,10.61Z"/>
    <circle class="cls-9" cx="279" cy="333.29" r="13"/>
    <path class="cls-4" d="m189.45,107.87c-19.95,31.37-50.4,52.19-87.95,65.87-3.12,2.34-7.54,1.7-9.88-1.42,0,0,0,0,0,0h0c-20.4-27.23-15.79-66.15,11.13-86.96,27.14-20.94,66.12-15.92,87.06,11.22.17.22.33.44.5.66l.56.75c2.34,3.12,1.7,7.54-1.42,9.88Z"/>
    <path class="cls-4" d="m367.69,97.23c20.58-27.41,59.49-32.95,86.9-12.37.22.17.44.33.66.5,26.92,20.81,31.52,59.73,11.13,86.96h0c-2.34,3.12-6.76,3.76-9.88,1.42t0,0c-34.86-13.35-63.44-36.44-87.95-65.87-3.12-2.34-3.76-6.76-1.42-9.88l.56-.75Z"/>
    <path class="cls-4" d="m358.94,519.56c-2.65,1.49-3.59,4.83-2.11,7.49l31.74,56.72c1.49,2.65,4.84,3.59,7.49,2.1,2.64-1.48,3.58-4.82,2.11-7.47l-31.74-56.72c-1.49-2.65-4.83-3.59-7.49-2.11Z"/>
    <path class="cls-4" d="m191.57,521.67l-31.74,56.72c-1.48,2.65-.54,6,2.11,7.49,2.65,1.48,6,.54,7.49-2.11l31.74-56.72c1.48-2.65.54-6-2.11-7.49-2.65-1.48-6-.54-7.49,2.11h0Z"/>
    <circle class="cls-4" cx="395" cy="581.29" r="17"/>
    <circle class="cls-4" cx="407" cy="146.29" r="17"/>
    <circle class="cls-4" cx="278" cy="106.29" r="17"/>
    <circle class="cls-4" cx="155" cy="144.29" r="17"/>
    <circle class="cls-4" cx="166" cy="581.29" r="17"/>
    <path class="cls-1" d="m381.66,429.13c2.53,3.96,7.8,5.13,11.76,2.59.42-.27.82-.58,1.19-.92l26.68,14.29-1.43-15.66-25.11-11.17c-3.43-3.26-8.85-3.12-12.1.31-2.73,2.87-3.13,7.23-.98,10.55h0Z"/>
    <path class="cls-6" d="m401.1,434.59l10.45-14.43,50.36,23.81,62.67-11.76c11.65-2.19,22.88,5.49,25.06,17.14.24,1.29.37,2.6.37,3.92h0c0,11.85-9.58,21.48-21.43,21.51l-71.82.13-55.66-40.32Z"/>
    <polygon class="cls-1" points="385 683.82 374.42 678.76 388.95 634.55 404.56 642.02 385 683.82"/>
    <path class="cls-1" d="m455.9,676.69c-.77.48-1.54.96-2.32,1.43-1.55.95-3.11,1.88-4.67,2.8-.78.46-1.58.92-2.36,1.37v.02h-.05s-.02.02-.02.02l-1.2.3-1.72-4.54-.79-2.09-1.12-2.96-2.05-5.41-10.8-28.51,16.79-4.14.63,2.57h0l.31,1.27,5.87,23.79,1.2,4.86.04.15.72,2.91.62,2.52.69,2.81.21.85Z"/>
    <path class="cls-2" d="m556.05,576.57c-1.06,1.71-2.15,3.41-3.25,5.1-2.04,3.14-4.13,6.23-6.27,9.28h0c-1.25,1.17-2.64,2.18-4.13,3.02,0,0,0,0,0,0-.95.69-2.07,1.1-3.21,1.39-.57.15-1.17.29-1.76.44-1.57.37-3.12.69-4.67.97-2.75.49-5.47.84-8.17,1.06-.22.02-.43.04-.65.05-11.12.82-21.94-.5-33.23-2.65-5.58-1.06-11.27-2.32-17.17-3.64-1.93-.44-3.86-.86-5.82-1.29-.15-.03-.3-.07-.46-.1-2.8-.61-5.64-1.22-8.55-1.82-3.67-.75-7.45-1.48-11.38-2.18l.28,5.54c.23,4.26,1.12,8.46,2.63,12.45,1.68,4.91,3.01,8.79.2,16.88l-1.35,3.92c1.42,3.94.91,8.32-1.38,11.83l-.27.41,11.27,28.52.73,1.85h-12.87s-12.03,0-12.03,0l-17.36-34.84-.83-1.66v-.09l1.79-66.94c.02-.59.07-1.19.15-1.78.64-5.42,3.43-10.36,7.75-13.7,4.14-3.23,9.39-4.67,14.6-3.99l5.94.77,12.14,1.57,8.55,1.11.17.02,25.23,3.26,1.81-7.38.33-.12,10.62-3.89,36.73-13.46.09-.03,2.42-.89.29.47c.09.14.17.28.25.42,2.39,4.28,4.33,8.79,5.8,13.47,2.47,7.64,4.51,15.41,6.1,23.28.07.34.13.65.19.93l.02.09c.02.13.04.22.05.24.85,3.53.26,7.83-1.3,12.1Z"/>
    <path class="cls-2" d="m557.6,551.9c-.12-.5-.26-1-.42-1.49-1.23-3.71-2.67-7.34-4.3-10.89-1.83-4.04-4.03-8.37-6.65-13.05-1.27-2.27-2.63-4.63-4.09-7.08-.73-1.23-1.49-2.48-2.28-3.75-.03-.06-.06-.12-.1-.17l-.23-.37-36.34,4.86-8.87,1.19c-2.74.37-4.89,2.54-5.22,5.29l-.25,2.07-.19,1.67s0,0,0,0l-.54,4.55h0s-.72,6.02-.72,6.02h-.06s-20.08-2.61-20.08-2.61l-20.7-2.68-11.12-1.44c-5.2-.68-10.46.76-14.6,3.99-4.31,3.35-7.1,8.28-7.75,13.7-.03.27-.06.54-.09.82-.05.63-.23,1.25-.47,1.83l-10.07,23.86c-6.2,14.68-10.17,30.2-11.8,46.06-.04.39-.12.78-.24,1.15l-7.51,24.02,1.1.1,16.3,1.51.75.07c2.19.21,4.33-.79,5.57-2.61l7.46-10.89c1.08-1.58,2.11-3.2,3.06-4.86,1.57-2.72,2.97-5.53,4.19-8.42l18.64-44.35c1.09-2.59,3.8-4.1,6.57-3.66h0c7.19,1.17,14.08,2.12,20.7,2.85,21.5,2.4,40.11,2.59,56.68.55,4.65-.57,9.15-1.31,13.49-2.24,1.59-.33,3.16-.69,4.72-1.08.37-.09.72-.17,1.08-.26,6.52-1.68,11.75-6.56,13.87-12.96,1.25-3.65,1.42-7.57.51-11.32Z"/>
    <path class="cls-2" d="m388.38,676.6l-11.44-5.48-1.79-.86-2.87,7.04-20.01,4.4c-2.56.56-4.18,3.09-3.62,5.66.33,1.53,1.4,2.79,2.84,3.38l19.55,7.98,6.21-5.59-1.52,7.5,7.36,3.01,8.07-25.69-2.78-1.34Z"/>
    <polygon class="cls-2" points="458.7 665.76 459.43 667.61 458.7 667.61 458.7 665.76"/>
    <path class="cls-2" d="m454.72,668.01l-11.99,4.15-1.88.65,2.92,7.02-11.12,17.21c-1.43,2.2-.8,5.14,1.41,6.57,1.31.85,2.96,1,4.4.4l19.51-8.09.48-8.34,4.19,6.4,7.35-3.05-12.34-23.93-2.92,1.01Z"/>
    <path class="cls-6" d="m554.61,563.15c-.71,0-1.41-.18-2.04-.51l-63.27-33.06-.73-2.99-1.38-9.47.02-.09,6.02-27.74c-.11-.24-.34-.63-.6-1.07-2.69-4.55-10.86-18.41,4.74-37.48l27.4-31.94,23.51-1.01.27.34c12.77,16.03,16.68,37.38,10.41,56.89l-2.45,44.22,2.63,8.93c1.54,5.25,1.28,10.86-.72,15.94l.6,14.46c.1,2.44-1.8,4.49-4.24,4.59-.05,0-.1,0-.15,0h0Z"/>
    <path class="cls-1" d="m499.73,599.62c4.05-2.39,5.39-7.61,3-11.66-.26-.43-.55-.84-.87-1.22l15.21-26.16-15.7.89-12.04,24.71c-3.37,3.31-3.42,8.73-.11,12.11,2.77,2.82,7.12,3.38,10.51,1.34Z"/>
    <path class="cls-6" d="m505.87,580.39l-14.06-10.95,25.54-49.5-9.57-63.04c-1.78-11.72,6.28-22.67,18.01-24.45,1.3-.2,2.62-.27,3.93-.23h0c11.85.4,21.13,10.32,20.75,22.17l-2.36,71.78-42.24,54.23Z"/>
    <path id="f4e08e8b-ef08-4d70-8ad3-b81af8a71ff9-39" class="cls-2" d="m509.68,405.53v-23.27c-.01-17.22,13.94-31.19,31.16-31.2,17.22-.01,31.19,13.94,31.2,31.16h0v.04c5.49,11.45,2.06,16.89,0,23.27,0,2.31-1.88,4.18-4.19,4.19h-53.98c-2.31,0-4.18-1.88-4.19-4.19Z"/>
    <circle class="cls-1" cx="530.63" cy="384.86" r="23.34" transform="translate(65.74 847) rotate(-80.78)"/>
    <path class="cls-2" d="m555.06,390.98c-.21-.03-.42-.08-.63-.11-3.64-.65-7.28-1.28-10.91-1.94l-.33-8.23-4.4,7.37c-10.03,3.33-19.41,1.45-28.24-2.71-2.91-1.38-5.74-2.94-8.46-4.66,1.5-9.22,7.09-17.26,15.2-21.89.33-.19.66-.36.99-.52,0,0,.01,0,.01-.01h0c.57-.27,1.15-.52,1.73-.76,9.25-3.62,19.76-1.58,26.98,5.23,7.12,6.8,10.33,18.03,8.07,28.22Z"/>
  </g>
</svg>