<?xml version="1.0" encoding="utf-8"?>
<!-- Generator: Adobe Illustrator 27.2.0, SVG Export Plug-In . SVG Version: 6.00 Build 0)  -->
<svg version="1.1" id="Capa_1" xmlns="http://www.w3.org/2000/svg" xmlns:xlink="http://www.w3.org/1999/xlink" x="0px" y="0px"
	 viewBox="0 0 440.2 399" style="enable-background:new 0 0 440.2 399;" xml:space="preserve">
<style type="text/css">
	.st0{fill:#FFFFFF;}
	.st1{fill:#2E2E2E;}
	.st2{fill:#33CCCC;stroke:#000000;stroke-miterlimit:10;}
	.st3{fill:#2F2F2F;}
	.st4{fill:#E8E8E8;}
	.st5{fill:#2F2E2E;}
	.st6{fill:#2B3035;}
	.st7{fill:#A2A2A2;}
	.st8{fill:#FCCBC6;}
	.st9{fill:#7F7F7F;}
	.st10{fill:#AAAAAA;}
	.st11{fill:#D1D1D1;}
	.st12{fill:#D2D2D2;}
	.st13{fill:#CBCBCB;}
	.st14{fill:#959595;}
	.st15{fill:#888888;}
	.st16{fill:#B3B3B3;}
	.st17{fill:#929292;}
	.st18{fill:#FEFEFE;}
	.st19{fill:#33CCCC;}
	.st20{fill:#FAFAFA;}
	.st21{fill:#F7F7F7;}
	.st22{fill:#EFEFEF;}
	.st23{fill:#EBEBEB;}
	.st24{fill:#A9A9A9;}
	.st25{fill:#C67B78;}
	.st26{fill:#606060;}
	.st27{fill:#C5C5C5;}
	.st28{fill:#808080;}
	.st29{fill:#7A7A7A;}
	.st30{fill:#8B8B8B;}
	.st31{fill:#5C5C5C;}
	.st32{fill:#989898;}
	.st33{fill:#5D5D5D;}
	.st34{fill:#8E8E8E;}
	.st35{fill:#B7A9A6;}
	.st36{fill:#2F2F2E;}
	.st37{fill:#333333;}
	.st38{fill:#383838;}
	.st39{fill:#353535;}
	.st40{fill:#A8A8A8;}
	.st41{fill:#969696;}
	.st42{fill:#949494;}
	.st43{fill:#302F2E;}
</style>
<path class="st0" d="M220.1,398.9c-72.4,0-144.8,0-217.2,0.1c-2.5,0-3-0.4-2.9-2.7C0.1,265.1,0.1,133.9,0,2.7C0,0.4,0.5,0,2.9,0
	c144.8,0.1,289.6,0.1,434.4,0c2.5,0,3,0.4,2.9,2.7c-0.1,131.2-0.1,262.4,0,393.6c0,2.2-0.5,2.7-2.9,2.7
	C364.9,398.9,292.5,398.9,220.1,398.9L220.1,398.9z"/>
<path class="st1" d="M278,116.5c0.3,3.3,0.3,6.6,1.4,9.8c0.5,4.1,0.5,8.1,0,12.2c-2.8,12.7-8.5,24-16.5,34.1
	c-3.3,4.2-7.9,6.1-12.8,7.5c0,3.7-1.6,7.6,0.9,11.1c5.8-5.9,13.7-7,21-7.5c10.8-0.8,21.7-2.1,32.7-1.4c3.8,0.3,7.4,1.2,11.3,1.1
	c3.2-0.1,6.9,5.4,5.8,8.6c-1.2,3.5,0.4,4.2,2.9,5.3c5.5,2.3,8.2,6.4,7.6,12.6c-0.2,2.1,0.1,3.7,1.7,5.7c3.1,3.9,1.7,8.5-1.5,11.7
	c-3.9,3.9-2.7,8.9-0.6,11.1c4.4,4.6,3,9.5,3.3,14.4c0.1,1.2,0.1,2.3,0.1,3.5c-0.5,3.1,1.6,3.5,3.8,4c6.3,11.7,9.1,24.4,11.3,37.4
	c2.2,13.1,2.9,26.5,5,39.5c1.2,7.4,3.3,14.6,3.8,22.2c-3.7,3-6.6,2.3-8.1-2.1c-2.6-7.4-6.3-14.1-9.8-22.3
	c-3.2,14.1-9.1,24.7-23.6,27.7c-2.9,0.1-5.7,0.1-8.6,0.1c-2.5,0-4.7-1-7.2-2c0.5,4,1.7,7.4,1.2,11c0.1,1.6,0.3,3.3,0.4,5
	c0.1,2.1-0.7,3.6-2.9,3.9c-2.1,0.2-3.5-0.7-4.1-2.7c0-0.2-0.1-0.3-0.1-0.5c-1.6-5-5-8.5-10.1-10.5c0,2.5,0.1,4.7,0,6.9
	c-0.2,2.2-1.5,3.8-3.8,3.6c-2.2-0.1-3.8-1.3-4-3.6c-0.1-2.1-0.6-4.6,0.1-6.4c1.8-4.1,0.2-6-3.7-7.2c-0.5,3.3-1.1,6.6-1.4,9.9
	c-0.1,2.1-0.1,4.2-2.8,4.3c-2.5,0.1-4.4-1-4.3-4c-1.7-2.2-1.5-4.7-1.3-7.2c2-21.5,4.6-43,6.3-64.5c1.5-5.8,0.3-11.8,0.8-17.6
	c0.3-2.8,1.7-4.7,4.4-5.5c2.5-0.1,2.7-1.8,2.6-3.7c-0.2-3.4-0.6-6.7-1.8-9.9c-7.2,1.8-15.1,2.2-19.7,9.4
	c-4.6,7.2-9.9,13.7-16.5,19.3c-4.8,4-5.2,10.2-6.8,15.7c-0.1,0.5,0,1,0.2,1.5c7.3,18.1,8.2,37.5,11.8,56.3c0.4,2,0.3,4-1.7,5.3
	c-2.8,1.9-5.1,4.6-8.6,5.4c-1,0.2-1.2,1.3-1.6,2.2c-2.5,6.1-10.4,10.5-16.6,9.4c-1.8-0.3-3.1-1.3-3.2-3.2c-0.1-1.8,0.7-3.3,2.5-3.8
	c1.8-0.5,3.6-0.9,5.4-1.1c4.8-0.6,5.7-3.7,5-7.8c-0.5-3.1-1.2-6.2-1.8-9.3c-0.3-1.5-0.7-3.9-2.3-3.6c-1.6,0.3-3.6,1.3-4,3.8
	c-0.5,3.2-0.8,6.5-1.6,9.8c-0.6,2.5-1.1,4.1-3.9,4c-3.1-0.2-3.6-2.3-3.2-4.9c0.1-0.6,0-1.3,0-2c-1-3.6,1.1-8-0.9-10.6
	c-2.1-2.8-6.8-0.7-10.3-1.8c-14.5-4.5-25.3-18.5-26.1-34.2c0.1-2.9,1.3-5,3.9-6.2c1.6-0.7,2.7-1.8,3.4-3.3
	c6.2-11.4,13.4-22.2,19.1-33.9c1.7-3.5,2-6.4,0.1-9.8c-9.6-16.9-18.6-34.1-29-50.6c-2.1-3.3-5.6-6.8-1.3-11.1c4-1.6,6.3,0.6,8.2,3.6
	c7.5,11.4,14.3,23.2,20.8,35.3c2.8,5.1,5.7,10.1,8.9,16.5c3-5.2,5.5-9.6,7.2-14.3c2.7-7.3,5.3-14.7,6.3-22.6c0.9-7-3.4-14.8-10-17.4
	c-6.3-2.5-12.9-4.5-18.9-7.9c-6.5-3.7-12-8.4-15.2-15.3c-0.9-2-1.8-4-0.9-6.2c4.8-2.6,6.7-6.8,7.3-12c0.2-2.2-0.3-3-2.5-4.3
	c-6.7-4.1-11.6-1.4-16.9,2.6c-6.7,5-11.2,10.6-10.1,19.6c1.2,9.4-2.3,16.5-10.6,21.3c-1.9,1.1-3.9,2.5-4.6,5.9
	c11.3-4.2,20.5-10.6,28.4-18.9c0.7-0.7,1.5-1.3,2.4-1.7c2.2-0.9,4.2-0.5,5.8,1.4c1.6,1.9,1,3.8-0.2,5.5c-2.3,3.3-5.4,5.8-8.1,8.7
	c-10.9,8.6-23.2,14.8-36,20.1c-15.5,6.5-22,16.3-22,33.2c0,13.8,0,27.6,0,41.4c0.3,6.5-0.7,13.1,0.7,19.5c0.5,13,1.2,25.9,2.2,38.8
	c0.4,5.4-2,7.1-7.3,5.8c-3.1-8.9-2.6-18.1-3-27.3c-0.1-2.8-0.2-5.6-0.2-8.5c-0.9-3.4,0.3-6.9-0.7-10.2c-0.1-2.3-0.2-4.6-0.2-6.9
	c-0.9-5.4-0.2-10.8-0.4-16.2c0.2-12-0.4-23.9,0.3-35.9c-0.3-7.3,0.6-14.4,3.7-21.2c4.5-9.9,12.2-16.2,22-20.2
	c2.7-1.1,4.9-1.7,3.7-6.1c-1.7-5.9,2.8-9.8,7-13.2c2.8-2.3,6.1-4,7.7-7.4c1.6-5.2-0.1-10.6,0.9-15.9c1.2-9.5,7.7-15.1,15.2-19.7
	c4-2.4,7.5-4.2,5.2-10.3c-1.5-3.9,0-8.4,3.1-11.9c2.4-2.6,1.8-5.9-1.4-7.7c-10.3-5.7-14.2-15.1-14.8-26.3
	c-0.8-14.5,3-27.9,10.3-40.3c6.2-10.6,15.3-17.6,27.6-19.8c2.7-0.8,5.1-0.9,6,2.5c0.5,3.5-1.4,5.3-4.5,6
	c-16.1,3.8-23.4,15.6-27.8,30.2c-1.2,4.1-2.4,8.3-2.8,12.6c-0.8,4.1-0.9,8.2,0.1,12.2c1,2.5,1.6,5.1,3.3,8.3c1.4-4.2,2.3-8,5.4-10.8
	c3.6-3.3,7.6-4.8,12.3-3.2c6.5,2.2,11.8-0.1,16.4-4.5c7.6-7.3,9.7-17.2,12-26.9c0.1-0.7,0.2-1.3,0.3-2c0.7-5.6,2.2-7.6,5.5-7.2
	c3.2,0.4,4.6,2.8,4.1,8.3c-1.1,11.8-5.1,22.7-12.1,32.3c-4.8,6.6-12.6,9.1-19.3,12.9c-2.1,1.2-4.5-0.3-6.6-1.5
	c-4.4-2.5-6.7-1.5-7.7,3.5c-1.1,5.8,0.8,10.8,4.7,15.1c2.1,2.4,4.7,4.2,7.2,6.2c2,1.6,3.1,3.6,1.5,6.1c-1.7,2.6-4,3.3-6.9,2
	c-0.3-0.1-0.6-0.3-0.9-0.5c-1.7-0.8-3.4-2.8-5.3-0.7c-1.9,2.1-0.4,4,0.8,5.9c0.9,1.4,1.9,2.7,3.4,3.6c2.6,1.6,4.8,2.8,4.9-2
	c0-2.2,1.2-3.8,3.5-4.3c2.4-0.5,4.7-0.3,5.7,2.6c0.6,4.7,0.2,9.5,0.3,14.2c-0.6,6.3-2.4,12.4-3.7,18.6c-0.9,4.5,0.5,7.6,4.4,10.1
	c6.1,3.9,13.1,5.7,19.7,8.4c4.3,1.7,9,2.6,11.9,6.8c0.4,0.6,1,0.9,1.7,0.9c6.4,0.4,13.1-6.2,13.3-13.1c-0.5-3.6,1.1-7.3-1.1-10.7
	c-12.9-2-24.7-6.6-35.4-14c-4.8-3.4-6.3-6.3-4.4-9.2c1.8-2.6,5.1-2.6,9.8,0.6c8.2,5.6,16.9,10,26.8,11.6c4.1,0.9,8.3,1,12.4-0.1
	c4.3-1.4,7.3-4.3,9.8-8c4-5.9,7.3-12.2,10.1-18.8c3.7-8.7,1.8-17.6,0.7-26.5c-0.5-4.1-0.8-8.2-0.2-12.4c0.6-3,1.6-6-0.5-8.9
	c-2.1-1.4-4.5-1.1-6.8-1.3c-3.1-0.3-5.6-1.7-5.6-5.1c0-3.4,2.5-4.7,5.6-5.3c2-0.3,5,1.2,6-1c1.1-2.4-0.4-5.2-1.4-7.6
	c-1.4-3.2-2.8-6.4-5.3-9c-1.8-1.9-3-4.3-0.9-6.7c2.2-2.5,5.1-2,7.8-0.5c1.8,1,3,2.6,4,4.4c1.3,2.3,2.7,4.6,3.6,7.1
	c-0.7-5.2-2.7-9.8-6.8-13.5c-6.6-6.1-13.6-11.7-20.8-17.1c-14.1-10.6-28.5-9-43-1c-2.7,1.5-5.1,3.2-8.3,1.5
	c-1.8-1.6-1.4-3.4-0.6-5.3c7.4-7.5,16.9-10,27-11.2c3.4-0.5,6.7-0.6,10.1,0.1c18.9,4.3,31.9,17.5,44.8,30.4c8.7,8.7,8.2,21.3,1,32
	c-2.3,3.5-0.3,7.8-1,11.7C277.4,105.1,277.4,110.8,278,116.5L278,116.5z"/>
<path class="st2" d="M169.1,207.6c-2.5,2.7-0.7,4.9,0.8,7.1c11.2,17.7,21.3,36.1,31.3,54.5c1.7,3.2,1.5,5.6-0.1,8.7
	c-5.8,12-13.3,23-19.7,34.6c-1,0-1.9-0.3-2.6-1c-2.2-3.8-4.7-2.8-7.3-0.4c-7.6,6.8-13.9,14.8-19.5,23.3
	c-6.4,9.6-12.8,19.1-21.5,26.8c-3.4,3-6.6,6.5-11.4,7.3c-3.9,0-7.9,0-11.9,0c-2.4,0.1-3.3-1-2.9-3.3c5.2,0,6.7-2.6,5.9-7.5
	c-1.8-12.3-2.1-24.7-2.1-37.2c-1.1-6.7,0.3-13.5-0.7-20.2c-0.1-15.5-0.8-31,0.1-46.4c0.7-11.7,6.4-21.2,17.6-26.5
	c9.2-4.3,18.7-7.8,27.4-13.1c4.7-2.9,9.2-6,13.8-8.9C167.6,205.5,168.8,205.9,169.1,207.6L169.1,207.6z"/>
<path class="st0" d="M272.3,298.5c-0.9,16.4-2.8,32.8-4.5,49.1c-0.8,7.5-1.1,15.1-1.7,22.7c-7.2-0.3-14.6,0.7-21.7-1
	c1.7-6.1-0.4-12-1.4-17.8c-2-12.6-4.5-25-6.8-37.5c-0.2-1.1-0.4-2.9-1.1-3.1c-4.8-2.1-2.3-5.2-1.5-8.2c1.8-6.8,4.6-12.6,10.7-17
	c5.4-3.9,8.9-9.8,12.3-15.5c1.9-3.3,4.4-5,8-6c3.8-1.1,7.7-2.1,11-4.6c3.2-2.4,2.4,0.5,2.8,2c0.3,5,1.8,10.1-1.2,14.9
	c-2,0.7-3.9,1.5-4,4C271.9,286.4,273.3,292.5,272.3,298.5L272.3,298.5z"/>
<path class="st0" d="M174,321.4c1.4,20.5,14.4,32.5,37.5,34.2c-1.1,4.2,0.6,8.7-1.3,12.8c-26,0-51.9,0-77.9,0
	c-0.5-0.7-0.2-1.3,0.3-1.7c11.3-10.3,18.8-23.6,27.8-35.7c3.3-4.4,5.9-9.7,11.5-12.1C173.6,318.9,173.5,320.4,174,321.4L174,321.4z"
	/>
<path class="st3" d="M36,240.2c1.8-10.5,9.8-17.9,21-19.7c12.8-2.1,25.7-3.9,38.5-5.7c6.7-0.9,13.3-1.7,19.9-3.3
	c1.3-0.3,2.7-0.1,4-0.1c2.2-0.1,3.5,1,3.8,3.1c0.3,2.2-0.9,3.6-2.9,4c-6,1-12,2-18,2.9c-15.4,2.4-30.9,4.7-46.4,7.2
	c-6.9,1.1-12.6,7.9-12.8,15c-0.3,8.9,1.9,17.7,2.5,26.5c0.8,11.9,3,23.5,3.9,35.4c1,14.3,3.6,28.6,5.3,42.9
	c0.8,6.4,0.7,12.8,1.6,19.2c0.4,3.3-1.5,4.3-3.6,4.6c-2.4,0.4-2.8-2.2-3.1-3.8c-0.9-5.7-1.5-11.4-2.1-17.1
	c-1.8-15.1-3.4-30.2-5.2-45.4c-1.9-16.1-4-32.2-6-48.4c-0.2-2-0.1-4-0.2-6C35.4,247.8,35.7,244,36,240.2L36,240.2z"/>
<path class="st4" d="M330.6,114.5c8.3-1.1,12.6,4.3,15,9.3c3.2,6.4,1.6,13.1-3.5,18.1c-2.5,2.4-5,4.3-5.4,8.4
	c-0.2,2.5-2.3,5.6-4.5,6.9c-5.5,3.6-9.7,8.3-13.9,13.1c-3.2,3.6-8.2,3.9-12.5,2.5c-4.6-1.6-8-5.2-7.6-10.5c0.4-5.3-1-10.2-1.9-15.4
	c-2.1-11.8,5-19.6,15.4-22.4c2.8-0.8,4.7-1.9,6.4-4.1C321.3,116.4,325.3,113.7,330.6,114.5L330.6,114.5z"/>
<path class="st1" d="M68.2,285.6c1.1,8.9,2.2,17.8,3.3,26.7c0.9,7.5,1.9,15,2.8,22.5c1.1,10.4,1.7,21,3.4,31.3
	c0.7,4-0.9,5.1-3.6,5.9c-3.3,0.9-3.3-2.6-3.6-4.1c-1.1-6.3-1.7-12.7-2.2-19c-1-11-2.2-21.9-3.8-32.8c-1.3-8.9-2.2-17.9-3.2-26.8
	c-1.3-10.4-2.2-20.9-4.7-31.1c-0.7-2.9-0.7-5.9-1.3-8.8c-0.7-3.1-0.9-6.5-5.5-7.2c-1.8-0.3-2.9-2.7-2.2-4.9c0.7-2.2,2.7-2.9,4.8-2.6
	c4.6,0.8,7.2,3.8,8.7,8c1.3,3.9,2.1,7.8,2.7,11.9c1.5,10.4,3.2,20.7,4.9,31C68.5,285.6,68.4,285.6,68.2,285.6L68.2,285.6z"/>
<path class="st0" d="M318.1,361.5c13.4-4,20.1-13.2,21-27c0-0.8-0.3-1.8,0.9-2c1.1-0.2,1.5,0.6,1.8,1.4c3.4,7.4,7.1,14.6,10.1,22.2
	c1.8,4.5,2.3,5.2,7.2,3.3c2.8,2.2,2.7,5.9,3.7,8.8c0.9,2.6-2.3,3.1-4.5,3.2c-7,0.1-13.9,0-20.9,0c-11.5,0.1-23,0.2-34.5,0.3
	c-1.5-4.1-2-8.4-2.8-12.7c3.1-0.1,5,2.9,7.9,2.5C311.4,362.2,314.8,362.2,318.1,361.5L318.1,361.5z"/>
<path class="st5" d="M171.9,319.2c-7.2,6.6-12.4,14.8-17.8,22.8c-6.4,9.5-13.2,18.8-21.9,26.4c-2.1,1.3-4.1,2.6-6.2,3.8
	c-4.1,2.3-6.3,1.1-7.1-3.7c18.1-10.6,27.1-29,39.2-44.9c4.1-5.4,8.6-10.5,13.9-14.8c3.7-3,6.2-2,7.3,2.6
	C178.6,315.6,174.8,317,171.9,319.2z"/>
<path class="st6" d="M109,141.6c2.1,2.3,2.5,5.9,6.6,7c2.7,0.7,2.1,5-1,5.8c-2.2,0.6-3.2,1.4-3.7,3.8c-0.6,3.2-4.7,3.3-5.2,1.9
	c-1.4-4-5-5.2-7.6-7.5c-0.1-0.1-0.2-0.3-0.2-0.4c-0.3-1.2-0.2-3.1,0.6-3.1C104.3,149.6,102.7,139.9,109,141.6L109,141.6z"/>
<path class="st6" d="M398.8,61.5c-0.4,2-1.1,3.7-3.3,3.8c-2.3,0.2-3.3-1.1-3.4-3.3c0-1.9,0.7-3.3,2.8-3.4
	C396.9,58.5,398.2,59.6,398.8,61.5L398.8,61.5z"/>
<path class="st6" d="M398.2,70.8c2,0.4,3.8,1.1,3.7,3.3c-0.1,1.9-1.1,3.4-3.4,3.3c-1.9-0.1-3.2-0.8-3.3-2.9
	C395.2,72.5,396.3,71.2,398.2,70.8L398.2,70.8z"/>
<path class="st6" d="M69.9,93.3c1.9,0.1,3.2,1,3.2,2.9c0.1,2.3-1.3,3.3-3.4,3.1c-1.7-0.2-3.2-0.9-3.3-2.9
	C66.4,94.1,67.9,93.4,69.9,93.3z"/>
<path class="st7" d="M100,260.3c0,12,0,24.1,0,36.1c-0.3,0.4-0.6,0.3-0.7-0.1c0-10.2-0.1-20.5,0-30.7C99.3,263.9,99,262,100,260.3
	L100,260.3z"/>
<path class="st6" d="M98.8,96.4c-0.3,1.9-1.6,3-3.6,3c-2,0-3-1.1-3-3.1c0.1-1.8,0.9-3.2,2.9-3.2C97.1,93.1,98.5,94,98.8,96.4z"/>
<path class="st6" d="M92.2,85.3c-0.2,2-1.2,3.1-3.2,3.1c-2.1,0-2.9-1.3-2.9-3.2c0-1.8,0.6-3.5,2.7-3.4C90.9,81.8,92,83.3,92.2,85.3
	L92.2,85.3z"/>
<path class="st6" d="M79.3,85.1c-0.1,2.3-1.2,3.3-3.2,3.3c-2.4-0.1-3-1.6-2.9-3.7c0.1-2.1,1.5-3,3.3-2.8
	C78.4,82.1,79.5,83.3,79.3,85.1z"/>
<path class="st6" d="M389.6,86.5c-2-0.1-3.3-0.8-3.3-2.9c-0.1-2.2,1.1-3.3,3.3-3.3c1.8,0,3.4,0.6,3.4,2.7
	C392.9,85.1,391.4,86.1,389.6,86.5z"/>
<path class="st6" d="M380.2,79.7c-0.1,2.2-0.9,3.6-3,3.6c-2,0.1-3.2-1-3.1-3c0-2.1,1.2-3.5,3.3-3.6
	C379.6,76.6,380.1,78.3,380.2,79.7L380.2,79.7z"/>
<path class="st6" d="M386.1,58.5c-0.2,2-1.2,3.1-3.2,3.1c-2.1,0-3-1-2.9-3.1c0.1-2,1.2-3,3.1-3C385.1,55.5,386,56.7,386.1,58.5
	L386.1,58.5z"/>
<path class="st6" d="M79.4,106.1c-0.2,3.3-1.2,4.4-3.2,4.3c-2,0-3-1.1-2.9-3.1c0.1-2.3,1.6-3,3.7-2.9
	C78.8,104.5,79.4,105.7,79.4,106.1L79.4,106.1z"/>
<path class="st6" d="M92.1,107.5c-0.2,2.1-1.3,3-3.3,2.9c-2.1-0.2-2.8-1.5-2.8-3.4c0-2.2,1.3-2.8,3.2-2.7
	C91.3,104.5,92.2,105.7,92.1,107.5L92.1,107.5z"/>
<path class="st6" d="M377.1,67.5c-0.2,2.4-1.5,3.1-3.4,3c-1.8-0.1-2.7-1.2-2.6-3c0-2,1.1-3.1,3.1-3C376.2,64.6,377,65.9,377.1,67.5
	L377.1,67.5z"/>
<path class="st8" d="M109,141.6c-2.2,0.4-4.4,0.8-4.8,3.5c-0.2,2.2-1.3,3.2-3.5,3.4c-2.4,0.2-2.6,2.1-2.7,4.1
	c-0.9-0.7-1.2-2.3-0.8-2.6c4.1-2.3,5.7-7.1,9.8-9.3C107.8,140.3,108.7,140.7,109,141.6L109,141.6z"/>
<path class="st9" d="M278,116.5c-1.5-5.7-1.3-11.4,0-17.1C278,105.1,278,110.8,278,116.5z"/>
<path class="st10" d="M144.9,176.4c-0.5,5.3,1.8,10.7-0.9,15.9C145.1,187,142.9,181.6,144.9,176.4z"/>
<path class="st11" d="M99.3,296.3c0.2,0.1,0.5,0.1,0.7,0.1c0,5.3,0.1,10.6,0.1,16C98.4,307.1,99.4,301.7,99.3,296.3L99.3,296.3z"/>
<path d="M339,260.2h-5.4c0.1-1.5,0.5-2.9,1.5-4C337.3,256.8,337.4,259.3,339,260.2L339,260.2z"/>
<path class="st12" d="M195.4,43.5c-0.2-3.6-3-2.8-5.2-3.1c2.1-1.2,4.8-1.3,6-3.9c-0.2,1.8,0,3.5,1.1,5
	C197.1,42.6,196.8,43.6,195.4,43.5L195.4,43.5z"/>
<path class="st13" d="M250.9,191.3c-0.4,0.8-1.5,1.5-1.5,0.3c-0.2-3.8-1.1-7.7,0.6-11.4C250.7,183.8,249.1,187.7,250.9,191.3z"/>
<path class="st14" d="M279.3,138.6c0-4.1,0-8.1,0-12.2C280.7,130.4,280.8,134.5,279.3,138.6z"/>
<path class="st15" d="M36,240.2c0,3.8,0.1,7.5,0.1,11.3C34.8,247.8,34.4,244,36,240.2z"/>
<path class="st16" d="M233.2,25.4c-3.4,0-6.7,0-10.1-0.1C226.5,24,229.8,24,233.2,25.4z"/>
<path class="st17" d="M100.3,319.3c1.3,3.3,0.9,6.8,0.7,10.2C99.7,326.2,100.1,322.7,100.3,319.3z"/>
<path class="st0" d="M195.4,43.5c0.6-0.7,1.2-1.4,1.8-2c2.8,0.5,4.9-0.7,7.3-2.2c10.7-7.1,29.4-9.9,41.4-1
	c8.7,6.5,17.3,13,25.1,20.5c5,4.8,7.1,12.3,5,18.2c-1.5-4.2-3-7.9-5.1-11.3c-1.6-2.6-3-5.2-6.7-5.1c-1.6,0-3.2,0.1-3.9,1.6
	c-0.7,1.6-0.2,3,1.3,4.3c6,5.6,7.3,13.1,8.7,21.3c-3.4-1.3-6.4-1.8-9.3-1.1c-2.2,0.5-4.3,1.5-3.8,4.3c0.4,2.2,1.9,3.8,4.5,3.6
	c2.9-0.2,5.6,0,8.3,1.1c1.3,3.3,0.7,6.6,0.3,9.9c-0.5,7.3,0.5,14.4,1.7,21.5c1.5,8.4-0.9,16.3-4.5,23.9c-2.9,6-6.3,11.6-10.4,16.9
	c-2,2.6-4.7,4.1-7.9,4.7c-4.4,0.6-8.7,0.6-13.1,0c-10.1-1.1-18.6-5.9-26.9-11.4c-1-0.6-1.9-1.4-2.9-1.9c-2-1-4.3-1.9-5.8,0.3
	c-1.5,2.2-0.6,4.3,1.8,5.9c11.8,8,24.1,14.5,38.8,15.1c1.4,4.2-0.3,8.6,1,12.9c0.5,7-0.7,9.1-7.1,11c-3.2,1-6,2.7-9,5.3
	c-0.9-6.5-5.9-7.7-10.5-9.4c-6-2.3-12.3-3.6-17.9-6.9c-12.5-7.4-10.2-6.1-7.9-19.1c0.7-3.9,1.7-7.8,2.6-11.8
	c0.5-5.4,0.9-10.7-0.2-16c-5.3-2.1-6.7-1.3-6.9,3.8c-0.1,1.5-0.3,2.9-0.4,4.4c-1.6-0.2-2.9-0.9-4.3-1.6c-3-1.5-4.6-3.9-6.7-6.1
	c-2.8-3.1-1-5.4,0.5-7.5c1.8-2.5,3.8-0.5,5.6,0.7c0.8,0.6,1.7,1.1,2.6,1.6c2.1,1.2,3.5,0.1,4.8-1.5c1.4-1.9,0.9-3-0.9-4.4
	c-2.8-2.1-5.5-4.3-7.9-6.8c-5.9-6.2-6.6-13.8-4-19.1c2.1-4.2,4.1-4.7,7.9-1.9c3.4,2.6,6.2,4.2,9.7-0.1c1.4-1.7,4.5-1.9,6.6-3.1
	c9.4-5.5,14.3-14.5,17.4-24.4c1.8-5.8,3.3-11.6,3.2-17.8c0-3-1.6-4-3.8-3.9c-1.9,0.1-3.2,1.3-3.3,3.8c-0.7,10.5-3.6,20.4-9.8,28.9
	c-5.2,7.2-12,11.1-21.4,8c-5.3-1.7-11.8,2.1-13.6,7.5c-0.9,2.8-1.6,5.6-2.4,8.6c-2.8-3.3-3.8-7.1-4.7-11c-0.7-4.3-0.6-8.7-0.1-13.1
	c1.3-10.8,4.3-21,10.7-30c5.1-7.2,11.7-12.1,20.5-13.6C194,47.3,195.5,46.3,195.4,43.5L195.4,43.5z"/>
<path class="st0" d="M260.5,206.1c2.6,1.2,6.7-1.7,6.6,3.6c0,2.4,0,3.8-3.2,4.1c-4.9,0.4-9.7,1.7-14.6,2.8c-2.6,0.6-6.1,0.8-5.4,4.9
	c0.8,4.1,4,3.1,6.7,2.5c5-1,9.9-2.7,15.1-2.5c2.6,0.1,4.2,1.1,4.3,3.7c0.2,3-1.9,3.4-4.3,3.3c-5.6-0.1-10.6,2.3-15.6,4.4
	c-2,0.9-5.3,2-3.9,5.1c1.2,2.7,3.9,3.1,6.8,1.7c4.2-1.9,8.5-3.7,13.3-3.3c1.3,0.1,2.9-0.2,2.6,1.9c-0.2,1.4,0.2,2.8-2,3.3
	c-4.4,0.9-8.6,2.2-12.9,3.4c-2.6,0.7-5,1.9-4,5.1c1,3.5,4,2.4,6.3,1.9c4.4-0.9,8.6-2.4,12.9-3.4c1.2-0.3,3.1-1.3,3.7,1
	c0.4,1.7-0.6,2.6-2,3.6c-3.5,2.4-7.6,3.2-11.6,4.4c-3.5,1.1-6.1,3.1-8.1,6.2c-5.2,8.1-10.1,16.5-19.1,21.3c-1.5,0.8-1.8,2.4-2.2,3.8
	c-6.1,17.9-12.1,35.8-18.1,53.8c-1.4,4.1-5.4,6.7-9.4,5.4c-10.7-3.3-17-10.9-20.6-21.1c-0.3-1-0.3-2.6,0.3-3.4
	c10.1-14.3,18.5-29.5,26.2-45.2c4.8-9.9,10.5-19.4,14.4-29.7c3.2-8.5,6.2-17.1,6.1-26.4c0-3.9,1.1-7.9,5.1-9.4
	C243,209.9,251.9,207.4,260.5,206.1L260.5,206.1z"/>
<path class="st0" d="M310,249.2c-2.9,0-5.9,0.7-9.8-1c6.1-2.8,11.6-2.6,16.9-3c3.6-0.3,7.3-1.1,10.9,0.4c1.5,9.8-4.1,17.7-7.4,26.1
	c-2.9,7.2-5.6,14.5-7.2,22.1c-0.8,3.5,0.1,6.3,4.4,6.5c1.7,0.1,2.1,1,2.8,2.2c3,5.9,4.7,12.1,10.3,16.8c3.2,2.7,1.7,8.5,1.4,12.9
	c-0.9,11.5-5.6,19-14.8,21.4c-3.2,0.8-6.2,0.9-9.2-0.1c-3.5-1.1-6.1-1.9-5.2-7.1c1.1-6-2.1-11.9-3.1-17.9
	c-1.4-8.5-4.7-17.1-4.1-25.5c0.4-6.2-2.6-9.7-4.7-14.2c-2.3-5-3.8-10.2-3.9-15.7c-0.1-4.1-0.6-8.2-1-12.2c-0.2-2.2,0-3.2,2.9-3.8
	c5.8-1.2,11.4-1.4,17.1,0.8c-1.3,2.6-3.5,4.8-4,7.8c-0.3,2.1,0.2,3.7,2.2,4.5c1.7,0.6,3.5,0.2,4.4-1.4c2.9-5.7,6-10.9,12.4-13.6
	c1.9-0.8,2.3-4.3-0.9-6C316.8,248.7,313.4,248.7,310,249.2L310,249.2z"/>
<path class="st0" d="M169.1,207.6c-1-0.7-2-1.4-3-2.1c2.2-2.3,4.4-4.5,6.5-6.8c1.6-1.9,3.5-4.1,1-6.5c-2.4-2.3-4.6-0.6-6.5,1.1
	c2.1-5.5,5.4-10.3,9.2-14.8c-0.2,7.8,5.1,12.3,10.3,16.6c6.9,5.7,15.4,8.3,23.7,11.3c3.8,1.4,8.9,1.5,8.1,7.8
	c7.5,6.6,2.9,14.2,1.3,21.1c-2.4,10.3-6.9,19.9-12.4,29.6c-5.5-9.9-10.7-19.6-16.1-29c-4.8-8.4-10-16.5-14.8-24.9
	C174.6,208,172.5,206.7,169.1,207.6L169.1,207.6z"/>
<path class="st0" d="M280.3,248.1c-0.7-4.1-3.8-7.4-3.7-12.1c0.1-2.5-0.5-4.9,0.2-7.7c0.8-3,1.5-6.9-1.6-9.8c-0.8-0.7-1.8-2.3-1-3.6
	c1.9-2.9,0.8-5.9-0.2-8.5c-1.8-4.8-3.2-9.7-4-14.9c4.1-1.7,9.1-0.9,14-1.2c7-0.7,14.1-0.6,21.2,0c2.1,0,4.3,0.1,6.5,0.1
	c1.1,0,2.5-0.1,2.4,1.6c0,1.1,0.3,2.1-1.1,3c-8.7,5.5-9.4,10.4-2.6,18.1c-4.7,0.2-9.2,0.9-13.2,3.2c-4.4,2.6-5.8,6.2-3.8,10.9
	c0.7,1.6,0,2-1,2.6c-8.1,4.7-8.4,12.4,0.5,18.4c0.2,0.1,0.1,0.6,0.2,0.9C288.7,249.8,284.3,251.4,280.3,248.1L280.3,248.1z"/>
<path class="st18" d="M176.3,178.5c-2,5.6-5,10.6-9.2,14.8c-7.4,9.4-17.7,14.7-28.1,19.8c-1,0.5-2.1,0.7-2.5-0.4
	c-0.4-1.1-0.8-2.5,0.6-3.6c2.3-1.9,4.4-4.1,6.8-5.8c6.1-4.1,9.4-9.6,8.3-16.9c-1.9-11.6,3.4-19,13-24.2c0.7-0.4,1.6-0.8,2.1-1.4
	c3.4-4.1,6.9-3.4,10.6-0.6c0.8,0.6,1.9,1.2,2.7,1.1c4.8-0.9,4.1,2.3,3.7,5c-0.5,3.1-1.5,6.1-2.2,9.2
	C181.2,178.7,177.7,176.5,176.3,178.5L176.3,178.5z"/>
<path class="st19" d="M291.9,360.9c-5.6-3.2-10.8-6.1-15.9-9.1c-1.2-0.7-1-2-0.9-3.2c0.7-7.6,1.5-15.1,2.3-22.7
	c0.6-5.7,1.8-11.5,1.8-17.2c-0.1-8.5,1.9-16.8,1.3-25.3c3.8,8.5,8.1,16.8,8.7,26.3c0.6,8.6,3.4,16.8,4.5,25.2c0.4,2.9,2.4,6.4-2.8,8
	c-1.9,0.5-0.8,3.6-0.6,5.5C290.9,352.3,292.7,356.1,291.9,360.9L291.9,360.9z"/>
<path class="st19" d="M332.5,263.5c7.1,12,14.7,46.1,13.3,61.2c-2.4-4.2-4.2-7.6-6.1-11c-0.8-1.4-1.3-3.7-3.3-3.3
	c-4.8,0.9-5.5-2.7-6.8-5.5c-1.5-3.3-2.5-6.9-4.5-10c-3.1-5-2.5-9.6-0.2-14.6C327.5,274.9,329.8,269.4,332.5,263.5L332.5,263.5z"/>
<path class="st19" d="M228.5,317.9c2.9,7,3.1,13.6,4.6,20c0.3,1.1-0.5,1.8-1.4,2.3c-3.4,2.1-6.4,4.7-9.1,7.6
	c-0.7,0.7-1.4,1.7-2.5,1.3c-1.5-0.5-0.6-2-0.9-3c-0.7-2.7,1.4-4.6,2.1-6.9C223.5,332.3,225.9,325.5,228.5,317.9L228.5,317.9z"/>
<path class="st20" d="M314.2,238.4c-5.5-0.1-10.8,0.9-16.1,2.2c-1.8,0.4-3.3,1-3.9-1c-0.7-2.3,1.1-3.4,3-3.7
	c5.2-1,10.4-1.9,15.6-2.7c2.1-0.3,4.3-0.5,6.4-0.7c2-0.1,3.7,0.4,3.9,2.8c0.2,2.8-2,2.9-3.9,3.2
	C317.6,238.6,315.9,238.4,314.2,238.4L314.2,238.4z"/>
<path class="st20" d="M327.1,220.5c-0.2,3.5-1.9,5.2-5.5,5c-3.1-0.2-6.2,0.1-9.3,0.1c-3.4,0.4-6.8,0.5-10.2-0.1
	c-3.2-1.8-1.9-3,0.6-3.5c3.8-0.8,7.6-1.2,11.4-1.8C318.4,219.8,322.7,219.5,327.1,220.5L327.1,220.5z"/>
<path class="st21" d="M234.9,347.6c0.4,5.3,1.1,10.1,2.4,14.8c0.5,2,0.2,4-2,4.4c-2.6,0.4-1.9-1.9-2.1-3.4c-0.5-3.2-0.7-6.7-2-9.6
	C229.3,349.9,231.3,348.7,234.9,347.6L234.9,347.6z"/>
<path class="st22" d="M324.7,213.1c-3-3.8-6.8-4.8-9.8-6.9c-1.2-0.8-2.3-1.6-1.6-3.1c0.6-1.2,2-0.7,3.1-0.6
	C323.2,203.4,325.3,205.9,324.7,213.1L324.7,213.1z"/>
<path class="st19" d="M277.1,276.3c0.4-5,0.8-9.9,1.2-14.9c1.7,4.5,1.9,9.1,1.9,13.8C280.2,278.4,278.6,277.3,277.1,276.3
	L277.1,276.3z"/>
<path class="st23" d="M254.9,199.3c2.1-2.4,3.1-7.2,7.7-4.1c0.8,0.5,1.6,1.3,1.2,2.4c-0.4,0.9-1.4,0.6-2.1,0.7
	C259.4,198.7,257.2,199,254.9,199.3L254.9,199.3z"/>
<path class="st5" d="M171.9,319.2c2.5-2.6,5-5.2,7.5-7.8c0.9,0,1.5,0.4,1.9,1.1c-0.6,1.9-0.8,4-3.9,4c-3.1-0.1-3.2,2.6-3.5,4.9
	C173.3,320.7,172.6,319.9,171.9,319.2L171.9,319.2z"/>
<path class="st24" d="M305.2,190.3c-7,0-14.1,0-21.2,0C291.1,188.9,298.2,188.8,305.2,190.3z"/>
<path class="st25" d="M107.3,300.4c1.6,6.7,0.7,13.4,0.7,20.2C106.6,313.9,107.2,307.1,107.3,300.4z"/>
<path class="st5" d="M272.3,298.5c-0.2-6.1-0.8-12.2,0.7-18.2C273.2,286.4,273.5,292.5,272.3,298.5z"/>
<path class="st7" d="M192.1,146.5c1.9,5.3,1.5,10.7,0.2,16C192.2,157.2,192.1,151.8,192.1,146.5z"/>
<path class="st26" d="M280.3,248.1c4,2.6,8.4,0.8,12.7,1.1C288.2,251.4,282.1,250.9,280.3,248.1z"/>
<path class="st27" d="M242,193.5c-1.9-4.2-0.5-8.6-1-12.9C243.4,184.7,241.6,189.2,242,193.5z"/>
<path class="st28" d="M327.1,220.5c-4.3-0.1-8.7-0.1-13-0.2C318.4,219.1,322.8,218.5,327.1,220.5z"/>
<path class="st29" d="M160,91.4c0,4.4,0.1,8.7,0.1,13.1C158.5,100.1,158.6,95.8,160,91.4z"/>
<path class="st30" d="M236.1,172.5c4.4,0,8.7,0,13.1,0C244.8,174.2,240.5,173.9,236.1,172.5z"/>
<path class="st31" d="M328,245.7c-3.6-0.1-7.2-0.3-10.9-0.4C320.8,244.2,324.4,243.2,328,245.7z"/>
<path class="st32" d="M310,249.2c3.4-1.2,6.8-1.6,10.2,0C316.8,249.2,313.4,249.2,310,249.2z"/>
<path class="st33" d="M270.3,105.5c-0.1-3.3-0.2-6.6-0.3-9.9C272.3,98.8,271.2,102.1,270.3,105.5z"/>
<path class="st34" d="M302,225.6c3.4,0,6.8,0,10.2,0.1C308.8,227,305.4,227,302,225.6z"/>
<path class="st35" d="M318.1,361.5c-3.4,1.5-6.7,1.5-10,0C311.5,361.5,314.8,361.5,318.1,361.5z"/>
<path class="st36" d="M135.2,257.7c1.8,0.2,3,1.1,4.1,2.1c13.8,11.4,27.7,22.8,45,28.9c2.2,0.8,3.9,2.6,2.6,5
	c-1.1,1.9-2.9,3.2-5.8,2c-17.7-7.5-32.8-18.7-47.3-31.1c-1.5-1.3-2.3-2.9-1.5-4.9C132.8,258.4,134.1,258.1,135.2,257.7L135.2,257.7z
	"/>
<path class="st0" d="M331.9,121.4c3.2,1,6.6,2.4,7.6,6.8c0.9,4.2-0.8,7.8-4.4,9.5c-3.6,1.7-4.8,3.9-5,7.6c-0.4,5.9-4.3,9.4-9.5,10.8
	c-3.5,0.9-4.9,2.6-5.5,6c-0.5,3-2,5.5-5.8,3.9c-3.4-1.4-5.4-3.9-3.3-7.4c1.7-2.9,1.2-5-0.4-7.7c-5.5-9.1-0.2-18.9,10.6-19.2
	c3.5-0.1,5.5-1.1,6.8-4.3C324.3,123.7,327.1,121.5,331.9,121.4L331.9,121.4z"/>
<path class="st1" d="M227.3,64.4c-0.4-1.1-1.2-2.2-1.1-3.2c0.3-2.1-1.8-5.2,2.5-5.8c3.8-0.5,4.8,1.6,5.5,4.7
	c2.2,9.3,0.2,18.1-3,26.7c-0.3,0.7-0.5,1.5-0.8,2.3c7.6,0.3,13.7-4.4,15.4-12.1c1-4.7,1-9.7-0.6-14.3c-0.8-2.1-0.8-4.1-1.1-6.2
	c-0.3-2.2,0-4,2.9-4.1c2.5-0.2,4.1,0.5,4.5,3.3c0.5,3.6,1.2,7.1,1.9,10.6c0.6,3.4,0.5,6.8,0,10.2c-2,12.7-10.4,19.8-23.1,19.9
	c-3.2,0-6.5-0.2-9.6,1.6c-1.4,0.8-3.6,0.6-5.3,0.3c-1.9-0.3-3.1-1.7-3.2-3.8c-0.1-1.4,0.3-3,1.9-3c8.2,0.2,9.5-6.4,12-11.8
	c0.8-1.6,0.9-3.5,1.3-5.3C227.9,71.2,227.8,67.8,227.3,64.4L227.3,64.4z"/>
<path class="st3" d="M247.1,151.6c-2.3-0.3-4.6-0.1-6.7-1.2c-2.1-1-3.5-2.5-3.1-5c0.5-2.5,2.7-2.2,4.4-2c4.9,0.6,9.8,1.5,14.8,0.9
	c2.6-0.3,3.5,1.3,4.2,3.2c0.8,2.3-0.6,3.3-2.5,4C254.5,152.2,250.8,152.1,247.1,151.6L247.1,151.6z"/>
<path class="st37" d="M255.7,126.5c2.2-0.5,4.2,0.4,4.1,2.7c0,2.9-2.6,4.7-5.1,5.1c-2.2,0.4-3.6-1.9-3.7-4.2
	C250.9,127,252.9,126.1,255.7,126.5L255.7,126.5z"/>
<path class="st38" d="M238.3,104.7c0,2.4-1.2,3.8-3.6,3.8c-2.2,0-3.3-1.5-3.5-3.5c-0.2-2.4,1.2-3.5,3.6-3.5
	C237.2,101.4,238.3,102.4,238.3,104.7L238.3,104.7z"/>
<path class="st39" d="M269.2,105.7c-0.5,2.9-1.9,4-4.3,3.8c-2.5-0.2-3-1.8-2.9-3.8c0.1-2.1,1.2-3.6,3.4-3.4
	C267.7,102.4,268.5,104.4,269.2,105.7L269.2,105.7z"/>
<path class="st40" d="M247.1,151.6c3.7,0,7.4,0,11.1-0.1C254.5,153.1,250.8,153,247.1,151.6L247.1,151.6z"/>
<path class="st41" d="M253.3,76.6l0-10.2C254.6,69.8,254.7,73.2,253.3,76.6z"/>
<path class="st42" d="M227.3,64.4c1.5,3.4,1.3,6.8-0.1,10.2C227.3,71.2,227.3,67.8,227.3,64.4z"/>
<path class="st43" d="M212.7,221.5c-4.3-0.5-8.2-2.1-12.2-3.6c-8.4-3.2-16-7.8-23.2-13.1c-1.7-1.2-2.9-2.9-1.6-5.1
	c1.2-2,3.3-1.4,4.9-1.1c1.4,0.3,2.6,1.4,3.8,2.2c9.6,6.1,19.4,11.9,31,13.7c2.3,0.4,3,2,2.7,4C217.5,221.5,215.2,221.6,212.7,221.5
	L212.7,221.5z"/>
</svg>
