<?xml version="1.0" encoding="UTF-8"?>
<svg id="Capa_1" data-name="Capa 1" xmlns="http://www.w3.org/2000/svg" viewBox="0 0 440.25 398.95">
  <defs>
    <style>
      .cls-1 {
        fill: #b9a4a3;
      }

      .cls-2 {
        fill: #fff;
      }

      .cls-3 {
        fill: #8b8b8b;
      }

      .cls-4 {
        fill: #c5c5c5;
      }

      .cls-5 {
        fill: #cbcbcb;
      }

      .cls-6 {
        fill: #2b3035;
      }

      .cls-7 {
        fill: #d1d1d1;
      }

      .cls-8 {
        fill: #fafafa;
      }

      .cls-9 {
        fill: #d6c7c6;
      }

      .cls-10 {
        fill: #989898;
      }

      .cls-11 {
        fill: #5c5c5c;
      }

      .cls-12 {
        fill: #a9a9a9;
      }

      .cls-13 {
        fill: #959595;
      }

      .cls-14 {
        fill: #2f2e2e;
      }

      .cls-15 {
        fill: #2f2f2f;
      }

      .cls-16 {
        fill: #333;
      }

      .cls-17 {
        fill: #929292;
      }

      .cls-18 {
        fill: #969696;
      }

      .cls-19 {
        fill: gray;
      }

      .cls-20 {
        fill: #8e8e8e;
      }

      .cls-21, .cls-22 {
        fill: #f9a328;
      }

      .cls-23 {
        fill: #aaa;
      }

      .cls-24 {
        fill: #5d5d5d;
      }

      .cls-25 {
        fill: #ebebeb;
      }

      .cls-26 {
        fill: #302f2e;
      }

      .cls-27 {
        fill: #fccbc6;
      }

      .cls-28 {
        fill: #2e2e2e;
      }

      .cls-29 {
        fill: #353535;
      }

      .cls-30 {
        fill: #e8e8e8;
      }

      .cls-31 {
        fill: #383838;
      }

      .cls-32 {
        fill: #f7f7f7;
      }

      .cls-33 {
        fill: #b3b3b3;
      }

      .cls-34 {
        fill: #efefef;
      }

      .cls-35 {
        fill: #2f2f2e;
      }

      .cls-36 {
        fill: #606060;
      }

      .cls-22 {
        stroke: #000;
        stroke-miterlimit: 10;
      }

      .cls-37 {
        fill: #7a7a7a;
      }

      .cls-38 {
        fill: #a8a8a8;
      }

      .cls-39 {
        fill: #949494;
      }

      .cls-40 {
        fill: #c67b78;
      }

      .cls-41 {
        fill: #7f7f7f;
      }

      .cls-42 {
        fill: #fee9e8;
      }

      .cls-43 {
        fill: #d2d2d2;
      }

      .cls-44 {
        fill: #fee9e9;
      }

      .cls-45 {
        fill: #b7a9a6;
      }

      .cls-46 {
        fill: #888;
      }

      .cls-47 {
        fill: #a2a2a2;
      }

      .cls-48 {
        fill: #fefefe;
      }
    </style>
  </defs>
  <path class="cls-2" d="m220.13,398.88c-72.39,0-144.79-.01-217.18.06-2.46,0-2.95-.44-2.94-2.67C.08,265.07.08,133.87,0,2.67,0,.44.48,0,2.94,0c144.79.07,289.58.07,434.37,0,2.46,0,2.95.44,2.94,2.67-.08,131.2-.08,262.41,0,393.61,0,2.23-.48,2.67-2.94,2.67-72.39-.08-144.79-.06-217.18-.06Z"/>
  <path class="cls-28" d="m277.95,116.52c.26,3.3.28,6.63,1.35,9.82.5,4.07.53,8.14-.02,12.21-2.81,12.68-8.47,23.98-16.53,34.12-3.32,4.17-7.89,6.11-12.82,7.49.02,3.73-1.55,7.59.92,11.12,5.79-5.85,13.72-6.99,21.02-7.53,10.83-.81,21.73-2.13,32.67-1.35,3.76.27,7.42,1.18,11.27,1.11,3.21-.05,6.92,5.35,5.78,8.57-1.23,3.48.36,4.21,2.91,5.27,5.51,2.29,8.23,6.42,7.64,12.56-.2,2.06.09,3.72,1.72,5.72,3.13,3.85,1.72,8.54-1.45,11.68-3.92,3.87-2.71,8.91-.63,11.09,4.36,4.57,2.97,9.47,3.33,14.38.08,1.16.07,2.32.1,3.49-.55,3.08,1.65,3.51,3.83,3.97,6.32,11.7,9.07,24.38,11.28,37.41,2.22,13.15,2.87,26.45,5.01,39.54,1.21,7.38,3.29,14.64,3.76,22.17-3.68,3.01-6.59,2.31-8.14-2.11-2.58-7.35-6.34-14.15-9.81-22.26-3.24,14.07-9.12,24.72-23.64,27.66-2.87.12-5.74.08-8.61.06-2.46.03-4.68-1.02-7.19-2.05.47,3.97,1.73,7.41,1.22,11.03.14,1.65.34,3.3.41,4.95.1,2.07-.71,3.63-2.94,3.89-2.06.24-3.52-.68-4.15-2.73-.05-.16-.07-.32-.12-.48q-2.39-7.52-10.13-10.5c0,2.48.15,4.7-.04,6.89-.19,2.22-1.48,3.76-3.84,3.65-2.18-.1-3.79-1.28-3.96-3.62-.15-2.14-.65-4.59.14-6.41,1.77-4.08.23-5.99-3.74-7.24-.48,3.34-1.13,6.63-1.37,9.94-.15,2.13-.09,4.21-2.83,4.3-2.54.08-4.43-.96-4.32-3.96-1.73-2.16-1.52-4.71-1.29-7.18,2.02-21.51,4.56-42.98,6.26-64.52,1.51-5.82.31-11.77.81-17.64.32-2.76,1.66-4.7,4.4-5.52,2.46-.1,2.73-1.77,2.61-3.7-.22-3.38-.62-6.74-1.77-9.94-7.23,1.79-15.1,2.23-19.66,9.43-4.58,7.22-9.93,13.72-16.5,19.26-4.77,4.03-5.23,10.18-6.84,15.72-.14.47.04,1,.23,1.46,7.29,18.07,8.25,37.46,11.76,56.32.38,2.04.29,4.02-1.73,5.32-2.83,1.86-5.06,4.61-8.57,5.44-1.04.24-1.23,1.28-1.63,2.24-2.5,6.13-10.4,10.49-16.65,9.36-1.82-.33-3.11-1.3-3.25-3.19-.14-1.82.68-3.28,2.54-3.79,1.75-.48,3.55-.87,5.35-1.11,4.75-.65,5.71-3.71,5.02-7.77-.53-3.1-1.16-6.19-1.84-9.26-.33-1.5-.72-3.85-2.33-3.58-1.62.28-3.62,1.34-4.03,3.81-.53,3.24-.76,6.52-1.58,9.76-.62,2.45-1.15,4.13-3.91,3.95-3.1-.21-3.6-2.26-3.23-4.87.09-.65.02-1.32.02-1.98-1.01-3.57,1.13-8.02-.86-10.65-2.1-2.78-6.81-.73-10.32-1.83-14.52-4.55-25.3-18.48-26.15-34.2.07-2.86,1.28-5.05,3.95-6.21,1.6-.69,2.67-1.81,3.43-3.3,6.17-11.4,13.43-22.18,19.13-33.86,1.69-3.47,1.99-6.36.05-9.81-9.56-16.93-18.62-34.14-29.01-50.61-2.09-3.31-5.57-6.83-1.3-11.05,3.96-1.57,6.27.57,8.25,3.6,7.47,11.44,14.32,23.25,20.81,35.27,2.76,5.11,5.73,10.11,8.89,16.5,3-5.21,5.46-9.63,7.2-14.33,2.71-7.33,5.33-14.7,6.3-22.56.86-7.04-3.44-14.79-10.01-17.4-6.34-2.52-12.91-4.52-18.88-7.91-6.5-3.69-11.96-8.44-15.24-15.33-.94-1.97-1.82-3.97-.87-6.21,4.77-2.58,6.74-6.84,7.31-12.01.24-2.16-.29-2.98-2.49-4.32-6.73-4.09-11.57-1.43-16.93,2.58-6.7,5-11.21,10.65-10.08,19.61,1.18,9.35-2.34,16.49-10.6,21.31-1.92,1.12-3.9,2.54-4.58,5.88,11.34-4.2,20.51-10.57,28.44-18.88.73-.69,1.5-1.32,2.42-1.7,2.24-.93,4.22-.51,5.79,1.35,1.56,1.85.97,3.75-.23,5.46-2.29,3.26-5.39,5.78-8.1,8.66-10.93,8.61-23.21,14.8-35.98,20.12-15.51,6.47-21.99,16.26-22,33.18,0,13.79-.03,27.58.04,41.38.29,6.51-.74,13.06.72,19.52.52,12.95,1.15,25.89,2.23,38.81.45,5.43-2.03,7.09-7.29,5.78-3.05-8.86-2.62-18.11-2.99-27.27-.11-2.82-.16-5.64-.25-8.46-.9-3.35.28-6.85-.67-10.2-.08-2.3-.16-4.59-.25-6.89-.9-5.37-.16-10.79-.4-16.17.2-11.97-.41-23.94.33-35.9-.31-7.33.64-14.44,3.69-21.2,4.46-9.87,12.15-16.19,22-20.16,2.74-1.11,4.92-1.69,3.65-6.08-1.69-5.87,2.83-9.78,7.01-13.21,2.77-2.27,6.07-3.96,7.67-7.43,1.63-5.23-.1-10.65.91-15.91,1.23-9.52,7.66-15.11,15.17-19.73,3.96-2.43,7.47-4.23,5.22-10.29-1.46-3.94.04-8.39,3.15-11.86,2.37-2.64,1.76-5.89-1.42-7.65-10.34-5.73-14.25-15.08-14.83-26.27-.76-14.5,3.01-27.95,10.31-40.35,6.22-10.57,15.26-17.57,27.59-19.81,2.66-.77,5.05-.89,6,2.48.47,3.48-1.38,5.31-4.51,6.04-16.12,3.78-23.44,15.65-27.79,30.21-1.23,4.13-2.43,8.28-2.82,12.61-.76,4.08-.88,8.15.08,12.21.98,2.46,1.56,5.08,3.27,8.28,1.36-4.25,2.31-8.02,5.37-10.75,3.65-3.26,7.57-4.8,12.33-3.22,6.5,2.16,11.77-.09,16.37-4.5,7.64-7.32,9.72-17.16,11.97-26.91.15-.65.22-1.31.31-1.97.73-5.63,2.23-7.56,5.53-7.16,3.25.4,4.61,2.77,4.1,8.34-1.08,11.83-5.09,22.66-12.09,32.28-4.8,6.6-12.55,9.09-19.29,12.9-2.11,1.2-4.47-.27-6.55-1.46-4.41-2.5-6.74-1.46-7.68,3.47-1.11,5.84.84,10.8,4.72,15.12,2.13,2.37,4.74,4.17,7.19,6.16,2.03,1.65,3.09,3.6,1.52,6.05-1.67,2.62-4.04,3.28-6.91,1.96-.3-.14-.58-.33-.88-.46-1.71-.76-3.43-2.8-5.32-.7-1.85,2.05-.43,4.02.77,5.87.91,1.4,1.92,2.68,3.38,3.6,2.62,1.65,4.83,2.8,4.86-2.01.01-2.17,1.22-3.84,3.49-4.28,2.44-.47,4.72-.32,5.67,2.6.58,4.74.19,9.5.27,14.24-.55,6.32-2.43,12.38-3.68,18.57-.92,4.54.48,7.61,4.35,10.1,6.11,3.94,13.08,5.7,19.69,8.39,4.28,1.74,9.01,2.64,11.94,6.77.4.56,1,.86,1.69.91,6.41.45,13.15-6.16,13.28-13.05-.46-3.56,1.13-7.33-1.13-10.68-12.87-2.02-24.72-6.55-35.44-13.98-4.83-3.35-6.31-6.31-4.37-9.17,1.75-2.6,5.08-2.56,9.76.62,8.22,5.57,16.89,9.99,26.8,11.62,4.14.92,8.27,1.02,12.39-.1,4.29-1.4,7.28-4.26,9.81-7.96,4.05-5.92,7.28-12.23,10.06-18.8,3.69-8.72,1.82-17.62.67-26.46-.54-4.14-.76-8.23-.18-12.36.57-2.99,1.61-6.01-.45-8.86-2.09-1.4-4.49-1.05-6.78-1.28-3.15-.32-5.6-1.68-5.61-5.14,0-3.45,2.45-4.72,5.56-5.26,2.04-.35,4.98,1.22,5.97-1,1.08-2.4-.35-5.19-1.41-7.63-1.39-3.2-2.82-6.37-5.29-8.97-1.83-1.92-3.02-4.35-.94-6.68,2.23-2.49,5.1-2.02,7.76-.51,1.77,1,3.04,2.58,4.01,4.36,1.28,2.33,2.66,4.62,3.6,7.11-.74-5.25-2.73-9.81-6.77-13.52-6.63-6.08-13.63-11.69-20.79-17.11-14.06-10.65-28.48-9.04-42.97-1.01-2.68,1.49-5.12,3.24-8.3,1.48-1.79-1.58-1.42-3.42-.64-5.31,7.42-7.52,16.94-9.98,26.98-11.17,3.37-.46,6.74-.56,10.11.06,18.87,4.29,31.9,17.46,44.79,30.36,8.71,8.72,8.25,21.3,1.02,32.03-2.34,3.47-.34,7.78-1.02,11.65-.6,5.71-.57,11.41-.02,17.12Z"/>
  <path class="cls-22" d="m169.13,207.58c-2.5,2.66-.66,4.9.75,7.13,11.2,17.73,21.29,36.08,31.26,54.52,1.74,3.21,1.46,5.61-.05,8.71-5.84,11.97-13.28,23.02-19.71,34.64-1-.02-1.9-.3-2.61-1.04-2.22-3.82-4.74-2.75-7.32-.44-7.63,6.83-13.88,14.82-19.5,23.32-6.35,9.61-12.78,19.15-21.5,26.82-3.41,3-6.6,6.49-11.45,7.27-3.95,0-7.91-.04-11.86.05-2.43.06-3.28-1.03-2.9-3.32,5.22.04,6.66-2.59,5.93-7.53-1.8-12.31-2.06-24.74-2.12-37.16-1.05-6.69.32-13.47-.74-20.17-.05-15.46-.8-30.96.07-46.37.66-11.66,6.45-21.21,17.57-26.46,9.16-4.32,18.7-7.84,27.37-13.15,4.66-2.86,9.18-5.96,13.76-8.95,1.49.03,2.69.46,3.04,2.13Z"/>
  <path class="cls-42" d="m272.29,298.55c-.85,16.44-2.78,32.77-4.54,49.13-.81,7.54-1.15,15.14-1.71,22.71-7.24-.26-14.55.72-21.72-.99,1.68-6.1-.44-11.95-1.38-17.82-2.01-12.56-4.5-25.04-6.82-37.55-.21-1.11-.39-2.85-1.09-3.15-4.8-2.08-2.27-5.25-1.48-8.2,1.81-6.8,4.59-12.65,10.74-17.05,5.37-3.85,8.94-9.81,12.27-15.55,1.92-3.31,4.39-5.03,7.96-6.04,3.8-1.07,7.71-2.14,10.96-4.6,3.18-2.4,2.44.53,2.78,2.01.31,5.02,1.76,10.14-1.2,14.9-2.03.66-3.9,1.48-4.05,4.03-1.12,6.03.27,12.15-.72,18.19Z"/>
  <path class="cls-42" d="m174.04,321.4c1.38,20.55,14.41,32.49,37.52,34.19-1.13,4.21.61,8.67-1.34,12.81-25.97,0-51.95.01-77.92.02-.46-.68-.21-1.28.3-1.74,11.33-10.31,18.76-23.65,27.83-35.72,3.33-4.44,5.91-9.73,11.49-12.08,1.71,0,1.57,1.56,2.13,2.53Z"/>
  <path class="cls-15" d="m35.95,240.23c1.75-10.53,9.8-17.85,20.98-19.73,12.81-2.15,25.68-3.95,38.55-5.72,6.66-.92,13.34-1.67,19.89-3.28,1.26-.31,2.65-.06,3.98-.11,2.2-.09,3.52.98,3.8,3.09.29,2.16-.88,3.6-2.93,3.96-5.97,1.04-11.97,1.96-17.96,2.89-15.45,2.39-30.92,4.69-46.36,7.16-6.9,1.11-12.58,7.93-12.85,15.01-.34,8.95,1.88,17.68,2.45,26.53.77,11.87,3.05,23.54,3.91,35.41,1.04,14.34,3.61,28.57,5.3,42.88.76,6.37.74,12.84,1.59,19.2.44,3.27-1.46,4.29-3.58,4.64-2.36.39-2.83-2.16-3.08-3.78-.89-5.69-1.48-11.43-2.14-17.15-1.76-15.12-3.43-30.25-5.25-45.37-1.94-16.13-4.03-32.24-5.99-48.37-.24-1.97-.12-3.99-.17-5.99-.69-3.75-.44-7.51-.14-11.27Z"/>
  <path class="cls-30" d="m330.6,114.48c8.31-1.11,12.57,4.33,15.04,9.35,3.17,6.44,1.63,13.09-3.54,18.11-2.46,2.4-5.04,4.33-5.38,8.45-.21,2.47-2.29,5.56-4.45,6.95-5.53,3.56-9.67,8.29-13.94,13.13-3.16,3.58-8.24,3.93-12.52,2.49-4.61-1.55-7.98-5.16-7.61-10.53.37-5.31-.97-10.25-1.88-15.36-2.11-11.83,4.95-19.63,15.41-22.41,2.84-.76,4.7-1.9,6.37-4.1,3.18-4.18,7.17-6.89,12.5-6.09Z"/>
  <path class="cls-28" d="m68.22,285.63c1.1,8.89,2.2,17.79,3.31,26.68.93,7.49,1.94,14.96,2.76,22.46,1.13,10.43,1.65,20.95,3.37,31.28.67,4.02-.89,5.15-3.62,5.87-3.27.86-3.3-2.64-3.55-4.09-1.09-6.29-1.68-12.67-2.24-19.03-.97-10.97-2.15-21.9-3.79-32.79-1.34-8.89-2.16-17.85-3.23-26.78-1.26-10.42-2.19-20.89-4.69-31.13-.7-2.87-.66-5.91-1.3-8.79-.7-3.12-.94-6.53-5.48-7.19-1.8-.26-2.93-2.74-2.2-4.94.74-2.24,2.66-2.94,4.83-2.55,4.56.82,7.25,3.84,8.7,8.03,1.34,3.85,2.09,7.83,2.66,11.89,1.46,10.37,3.24,20.69,4.89,31.04-.13.02-.27.04-.4.06Z"/>
  <path class="cls-44" d="m318.15,361.47c13.36-4.03,20.08-13.23,20.98-26.96.05-.76-.27-1.76.86-2.02,1.07-.25,1.45.65,1.78,1.36,3.42,7.37,7.12,14.64,10.08,22.19,1.78,4.55,2.3,5.24,7.24,3.32,2.79,2.24,2.72,5.87,3.7,8.81.87,2.62-2.29,3.13-4.46,3.16-6.96.09-13.93,0-20.89.05-11.51.08-23.01.21-34.52.32-1.52-4.11-1.99-8.42-2.75-12.71,3.14-.15,4.97,2.89,7.91,2.47,3.35.7,6.7.7,10.05,0Z"/>
  <path class="cls-14" d="m171.93,319.23c-7.18,6.6-12.36,14.77-17.76,22.75-6.44,9.53-13.2,18.77-21.87,26.44-2.08,1.26-4.13,2.57-6.25,3.76-4.13,2.31-6.3,1.15-7.05-3.68,18.09-10.57,27.14-29.04,39.23-44.86,4.14-5.42,8.64-10.51,13.92-14.8,3.73-3.03,6.17-2.02,7.28,2.61-.86,4.18-4.62,5.55-7.5,7.78Z"/>
  <path class="cls-6" d="m109.04,141.58c2.13,2.33,2.49,5.92,6.58,6.99,2.73.72,2.06,4.98-1.01,5.81-2.24.61-3.22,1.42-3.69,3.76-.63,3.16-4.73,3.26-5.22,1.88-1.44-4.01-4.97-5.17-7.63-7.5-.07-.15-.15-.3-.19-.45-.33-1.17-.16-3.14.62-3.06,5.78.56,4.21-9.07,10.54-7.42Z"/>
  <path class="cls-6" d="m398.78,61.49c-.36,2.03-1.14,3.66-3.33,3.84-2.27.19-3.33-1.12-3.37-3.3-.04-1.88.71-3.28,2.75-3.43,2.1-.15,3.36,1.01,3.95,2.88Z"/>
  <path class="cls-6" d="m398.19,70.77c2.03.4,3.81,1.11,3.73,3.35-.07,1.95-1.07,3.44-3.41,3.35-1.9-.07-3.22-.84-3.26-2.89-.05-2.07,1.06-3.33,2.95-3.82Z"/>
  <path class="cls-6" d="m69.92,93.33c1.92.08,3.16.96,3.21,2.95.06,2.27-1.29,3.32-3.43,3.13-1.71-.15-3.25-.86-3.29-2.94-.05-2.34,1.48-3.06,3.51-3.14Z"/>
  <path class="cls-47" d="m100.03,260.33c0,12.04-.02,24.09-.02,36.13-.32.36-.56.31-.72-.15-.01-10.23-.06-20.45,0-30.68,0-1.77-.3-3.65.75-5.3Z"/>
  <path class="cls-6" d="m98.82,96.4c-.34,1.86-1.55,3-3.62,3.01-1.98.01-3.03-1.12-2.97-3.08.06-1.81.89-3.23,2.88-3.25,2-.02,3.42.95,3.71,3.32Z"/>
  <path class="cls-6" d="m92.2,85.31c-.17,2.01-1.16,3.11-3.18,3.1-2.12,0-2.93-1.31-2.95-3.22-.02-1.83.56-3.47,2.71-3.41,2.11.06,3.21,1.48,3.43,3.52Z"/>
  <path class="cls-6" d="m79.27,85.12c-.09,2.28-1.17,3.32-3.15,3.28-2.4-.05-3.04-1.62-2.93-3.7.12-2.1,1.53-2.98,3.34-2.78,1.83.2,2.94,1.42,2.74,3.2Z"/>
  <path class="cls-6" d="m389.59,86.47c-1.99-.05-3.27-.83-3.34-2.87-.07-2.21,1.08-3.31,3.28-3.29,1.81.02,3.38.62,3.38,2.68,0,2.1-1.49,3.1-3.32,3.48Z"/>
  <path class="cls-6" d="m380.24,79.7c-.1,2.24-.87,3.58-2.95,3.64-2.01.05-3.16-1.02-3.15-3.02.01-2.12,1.25-3.51,3.32-3.63,2.17-.13,2.64,1.57,2.77,3.02Z"/>
  <path class="cls-6" d="m386.11,58.55c-.18,2.05-1.2,3.07-3.21,3.06-2.06-.02-3.01-1.04-2.93-3.09.08-2.04,1.23-3.02,3.15-3.03,2.02-.02,2.93,1.2,3,3.06Z"/>
  <path class="cls-6" d="m79.36,106.06c-.23,3.26-1.19,4.39-3.19,4.34-1.98-.04-3.02-1.12-2.93-3.11.1-2.33,1.57-3.03,3.66-2.9,1.9.12,2.5,1.27,2.46,1.66Z"/>
  <path class="cls-6" d="m92.14,107.51c-.17,2.14-1.35,3.02-3.3,2.88-2.05-.15-2.76-1.47-2.77-3.36-.02-2.22,1.32-2.79,3.22-2.68,2.04.12,2.86,1.33,2.85,3.15Z"/>
  <path class="cls-6" d="m377.11,67.54c-.22,2.36-1.52,3.14-3.43,2.99-1.75-.14-2.66-1.25-2.63-3,.04-2.01,1.13-3.07,3.14-2.99,2.04.08,2.86,1.36,2.91,3.01Z"/>
  <path class="cls-27" d="m109.04,141.58c-2.19.36-4.45.79-4.75,3.5-.25,2.23-1.31,3.19-3.48,3.39-2.43.22-2.64,2.14-2.73,4.05-.91-.69-1.25-2.28-.76-2.56,4.06-2.29,5.67-7.09,9.76-9.26.77-.41,1.58-.02,1.97.88Z"/>
  <path class="cls-41" d="m277.95,116.52c-1.5-5.71-1.33-11.42.02-17.12,0,5.71-.02,11.41-.02,17.12Z"/>
  <path class="cls-23" d="m144.95,176.35c-.46,5.29,1.77,10.74-.91,15.91,1.03-5.26-1.1-10.71.91-15.91Z"/>
  <path class="cls-7" d="m99.29,296.32c.24.06.48.11.72.15.03,5.32.06,10.63.1,15.95-1.75-5.29-.71-10.72-.82-16.09Z"/>
  <path d="m339.04,260.25h-5.38c.1-1.54.49-2.88,1.55-3.96,2.13.49,2.16,3.02,3.83,3.96Z"/>
  <path class="cls-43" d="m195.38,43.51c-.23-3.58-3.03-2.84-5.23-3.1,2.08-1.16,4.81-1.35,5.96-3.93-.22,1.79-.03,3.49,1.08,4.99-.1,1.12-.37,2.09-1.8,2.04Z"/>
  <path class="cls-5" d="m250.85,191.28c-.43.78-1.49,1.47-1.54.28-.16-3.8-1.09-7.69.62-11.4.79,3.67-.88,7.54.92,11.12Z"/>
  <path class="cls-13" d="m279.29,138.55c0-4.07.01-8.14.02-12.21,1.37,4.07,1.45,8.14-.02,12.21Z"/>
  <path class="cls-46" d="m35.95,240.23c.05,3.76.09,7.51.14,11.27-1.29-3.74-1.65-7.5-.14-11.27Z"/>
  <path class="cls-33" d="m233.19,25.37c-3.37-.02-6.74-.04-10.11-.06,3.38-1.35,6.75-1.33,10.11.06Z"/>
  <path class="cls-17" d="m100.35,319.3c1.28,3.33.95,6.77.67,10.2-1.29-3.33-.94-6.77-.67-10.2Z"/>
  <path class="cls-2" d="m195.38,43.51c.6-.68,1.2-1.36,1.8-2.04,2.8.45,4.93-.69,7.27-2.25,10.67-7.12,29.44-9.91,41.41-1,8.68,6.46,17.27,13,25.09,20.48,5.05,4.83,7.07,12.26,5.05,18.17-1.47-4.22-2.99-7.91-5.08-11.32-1.57-2.56-3.05-5.18-6.68-5.14-1.57.02-3.23.08-3.89,1.6-.69,1.57-.19,3,1.26,4.35,6.02,5.59,7.31,13.12,8.69,21.33-3.43-1.28-6.37-1.75-9.29-1.13-2.19.47-4.33,1.51-3.81,4.26.42,2.2,1.87,3.82,4.45,3.64,2.85-.19,5.63-.03,8.3,1.09,1.29,3.27.66,6.6.33,9.92-.51,7.26.48,14.37,1.73,21.51,1.47,8.42-.92,16.32-4.51,23.89-2.85,6.01-6.34,11.65-10.36,16.93-1.96,2.58-4.7,4.14-7.93,4.74-4.37.58-8.74.62-13.11-.02-10.1-1.08-18.62-5.92-26.87-11.37-.97-.64-1.9-1.37-2.93-1.9-1.98-1.03-4.33-1.88-5.79.34-1.48,2.25-.56,4.33,1.77,5.91,11.79,7.99,24.15,14.46,38.8,15.08,1.44,4.2-.26,8.64.97,12.86.53,7.03-.74,9.06-7.05,11.04-3.19,1-6,2.66-8.98,5.26-.93-6.46-5.9-7.67-10.48-9.42-5.97-2.29-12.33-3.65-17.87-6.93-12.52-7.39-10.25-6.05-7.93-19.14.7-3.95,1.71-7.84,2.57-11.76.48-5.35.88-10.69-.2-16.02-5.31-2.12-6.73-1.32-6.92,3.84-.05,1.46-.26,2.92-.39,4.38-1.58-.23-2.89-.92-4.33-1.63-2.98-1.48-4.58-3.85-6.66-6.13-2.83-3.09-.97-5.39.5-7.46,1.75-2.46,3.79-.54,5.57.68.82.56,1.69,1.07,2.55,1.57,2.15,1.25,3.53.11,4.79-1.53,1.45-1.89.89-3.04-.95-4.4-2.8-2.06-5.52-4.31-7.9-6.83-5.85-6.18-6.63-13.84-3.96-19.12,2.1-4.17,4.09-4.7,7.85-1.87,3.39,2.55,6.21,4.22,9.74-.1,1.39-1.7,4.49-1.88,6.6-3.11,9.43-5.53,14.26-14.48,17.45-24.44,1.84-5.76,3.32-11.63,3.24-17.82-.04-2.95-1.61-4.01-3.82-3.92-1.91.07-3.18,1.28-3.34,3.83-.66,10.49-3.56,20.41-9.81,28.94-5.24,7.15-11.99,11.11-21.44,8.03-5.28-1.72-11.8,2.1-13.6,7.48-.92,2.75-1.58,5.59-2.41,8.59-2.79-3.3-3.81-7.13-4.74-10.99-.74-4.35-.59-8.71-.09-13.08,1.26-10.83,4.29-21.01,10.71-30.03,5.11-7.18,11.7-12.11,20.49-13.56,2.75-.45,4.26-1.44,4.16-4.32Z"/>
  <path class="cls-2" d="m260.55,206.07c2.65,1.18,6.66-1.7,6.63,3.57-.01,2.37.02,3.79-3.17,4.08-4.9.44-9.73,1.69-14.55,2.79-2.63.6-6.14.84-5.38,4.9.77,4.08,3.96,3.09,6.74,2.52,4.99-1.02,9.85-2.69,15.07-2.53,2.64.08,4.16,1.11,4.31,3.72.16,3.04-1.85,3.37-4.29,3.33-5.6-.1-10.58,2.28-15.57,4.36-2.04.85-5.34,1.97-3.86,5.15,1.25,2.67,3.87,3.06,6.82,1.71,4.2-1.91,8.51-3.74,13.34-3.26,1.3.13,2.85-.22,2.56,1.94-.18,1.39.22,2.82-2.04,3.28-4.35.89-8.61,2.22-12.88,3.45-2.55.73-4.99,1.89-4.03,5.15,1.03,3.49,4.04,2.35,6.3,1.87,4.35-.93,8.58-2.38,12.92-3.38,1.19-.27,3.09-1.31,3.69,1.02.44,1.74-.61,2.64-1.98,3.57-3.53,2.37-7.62,3.23-11.56,4.45-3.54,1.09-6.08,3.12-8.06,6.23-5.17,8.14-10.11,16.52-19.05,21.3-1.5.8-1.75,2.4-2.21,3.76-6.08,17.91-12.11,35.83-18.11,53.77-1.38,4.12-5.38,6.66-9.38,5.43-10.67-3.27-17.04-10.86-20.55-21.12-.34-.99-.27-2.56.3-3.37,10.14-14.27,18.5-29.52,26.16-45.24,4.82-9.89,10.53-19.36,14.4-29.69,3.18-8.51,6.19-17.09,6.12-26.41-.03-3.92,1.06-7.92,5.14-9.41,8.63-3.14,17.49-5.61,26.19-6.93Z"/>
  <path class="cls-2" d="m310.02,249.25c-2.9.03-5.87.7-9.84-1.01,6.1-2.76,11.57-2.58,16.92-2.99,3.64-.27,7.3-1.07,10.87.44,1.52,9.84-4.07,17.7-7.43,26.13-2.88,7.22-5.57,14.47-7.23,22.06-.77,3.52.13,6.34,4.36,6.47,1.74.06,2.12,1,2.75,2.25,2.97,5.85,4.73,12.14,10.29,16.81,3.24,2.72,1.73,8.53,1.4,12.93-.88,11.54-5.64,19.02-14.78,21.39-3.19.83-6.17.88-9.23-.06-3.46-1.06-6.12-1.88-5.2-7.1,1.06-5.98-2.15-11.85-3.12-17.85-1.39-8.54-4.68-17.14-4.14-25.51.4-6.22-2.56-9.66-4.66-14.22-2.28-4.95-3.82-10.16-3.91-15.74-.07-4.08-.59-8.16-.99-12.24-.22-2.22.02-3.18,2.86-3.79,5.82-1.25,11.35-1.4,17.15.79-1.3,2.6-3.49,4.75-3.95,7.76-.32,2.08.19,3.7,2.2,4.46,1.73.65,3.54.23,4.38-1.4,2.91-5.66,5.95-10.89,12.36-13.62,1.93-.82,2.27-4.34-.86-5.98-3.4-.53-6.8-.57-10.2.02Z"/>
  <path class="cls-42" d="m169.13,207.58c-1.01-.71-2.02-1.42-3.04-2.13,2.17-2.27,4.43-4.46,6.49-6.83,1.64-1.89,3.5-4.14,1.02-6.49-2.38-2.26-4.55-.57-6.48,1.15,2.15-5.49,5.4-10.3,9.18-14.79-.2,7.8,5.1,12.34,10.33,16.65,6.92,5.7,15.45,8.29,23.73,11.32,3.78,1.38,8.94,1.46,8.07,7.75,7.46,6.55,2.9,14.19,1.32,21.09-2.35,10.28-6.91,19.86-12.4,29.64-5.51-9.94-10.69-19.56-16.14-29.02-4.81-8.36-10.04-16.47-14.83-24.85-1.76-3.08-3.87-4.32-7.25-3.49Z"/>
  <path class="cls-2" d="m280.33,248.13c-.71-4.15-3.83-7.44-3.67-12.08.09-2.54-.55-4.87.22-7.68.81-2.97,1.48-6.85-1.63-9.76-.76-.71-1.83-2.29-1.01-3.57,1.9-2.95.8-5.89-.19-8.51-1.81-4.81-3.25-9.72-3.95-14.92,4.1-1.69,9.08-.89,13.95-1.24,7.05-.69,14.11-.64,21.16-.03,2.15.04,4.31.07,6.46.11,1.15.02,2.45-.14,2.42,1.63-.02,1.1.26,2.15-1.07,2.99-8.67,5.51-9.4,10.38-2.57,18.07-4.73.23-9.22.85-13.23,3.17-4.44,2.57-5.83,6.21-3.82,10.9.7,1.64.04,1.99-1.02,2.61-8.11,4.7-8.35,12.35.45,18.41.18.13.11.63.16.95-4.3.61-8.69,2.24-12.67-1.06Z"/>
  <path class="cls-48" d="m176.31,178.5c-2.04,5.56-4.98,10.57-9.18,14.79-7.38,9.41-17.68,14.68-28.1,19.79-.98.48-2.15.69-2.54-.37-.42-1.13-.77-2.5.62-3.6,2.33-1.85,4.35-4.14,6.81-5.78,6.11-4.06,9.45-9.59,8.28-16.85-1.86-11.59,3.38-18.99,12.99-24.25.73-.4,1.55-.78,2.05-1.4,3.35-4.13,6.86-3.43,10.59-.58.76.58,1.87,1.25,2.68,1.11,4.78-.88,4.14,2.31,3.7,4.99-.51,3.1-1.46,6.12-2.21,9.18-.77,3.16-4.34.96-5.7,2.99Z"/>
  <path class="cls-21" d="m291.89,360.85c-5.62-3.2-10.78-6.11-15.9-9.08-1.21-.7-1.05-2.01-.94-3.16.73-7.57,1.48-15.13,2.27-22.69.6-5.73,1.82-11.45,1.77-17.17-.07-8.47,1.86-16.79,1.33-25.32,3.84,8.5,8.08,16.8,8.71,26.32.56,8.58,3.44,16.76,4.54,25.24.38,2.89,2.44,6.42-2.75,7.96-1.86.55-.84,3.6-.57,5.54.52,3.86,2.34,7.57,1.55,12.35Z"/>
  <path class="cls-21" d="m332.46,263.49c7.15,12.01,14.68,46.13,13.31,61.25-2.35-4.22-4.18-7.62-6.13-10.96-.8-1.37-1.32-3.69-3.28-3.3-4.75.93-5.45-2.68-6.79-5.55-1.55-3.31-2.55-6.93-4.45-10.01-3.07-4.98-2.48-9.65-.17-14.59,2.53-5.41,4.88-10.91,7.51-16.83Z"/>
  <path class="cls-21" d="m228.53,317.9c2.86,7.01,3.1,13.65,4.56,20.01.26,1.12-.54,1.78-1.45,2.33-3.41,2.08-6.39,4.68-9.13,7.57-.66.7-1.38,1.67-2.48,1.3-1.53-.52-.62-1.97-.88-2.98-.7-2.74,1.42-4.6,2.15-6.88,2.19-6.9,4.62-13.71,7.22-21.36Z"/>
  <path class="cls-8" d="m314.24,238.42c-5.47-.09-10.84.9-16.1,2.19-1.84.45-3.28,1.01-3.9-1.02-.7-2.31,1.14-3.37,2.99-3.74,5.16-1.03,10.36-1.88,15.56-2.72,2.12-.34,4.27-.53,6.41-.69,2.01-.15,3.74.43,3.94,2.76.24,2.82-2.05,2.95-3.93,3.17-1.63.19-3.31.04-4.96.04Z"/>
  <path class="cls-8" d="m327.08,220.47c-.19,3.51-1.85,5.21-5.55,5.01-3.09-.17-6.21.08-9.32.14-3.4.44-6.79.53-10.18-.05-3.2-1.76-1.85-3,.61-3.52,3.76-.8,7.6-1.21,11.4-1.79,4.35-.41,8.7-.75,13.03.21Z"/>
  <path class="cls-32" d="m234.88,347.62c.43,5.31,1.12,10.12,2.38,14.84.52,1.95.19,4.03-1.97,4.4-2.58.44-1.88-1.87-2.13-3.42-.52-3.23-.72-6.67-2.03-9.57-1.81-4,.14-5.12,3.75-6.25Z"/>
  <path class="cls-34" d="m324.68,213.12c-2.98-3.79-6.76-4.77-9.83-6.9-1.17-.81-2.33-1.62-1.58-3.11.63-1.25,2.05-.72,3.13-.58,6.82.92,8.93,3.33,8.27,10.59Z"/>
  <path class="cls-21" d="m277.06,276.34c.4-4.97.8-9.93,1.2-14.9,1.67,4.46,1.85,9.13,1.88,13.81.02,3.14-1.58,2.04-3.07,1.09Z"/>
  <path class="cls-25" d="m254.92,199.27c2.08-2.36,3.06-7.2,7.68-4.05.77.53,1.65,1.31,1.2,2.45-.37.94-1.36.62-2.13.72-2.25.3-4.51.59-6.76.89Z"/>
  <path class="cls-9" d="m171.93,319.23c2.5-2.6,5-5.19,7.5-7.79.85.03,1.51.39,1.95,1.13-.64,1.93-.84,4.04-3.86,3.97-3.11-.07-3.19,2.6-3.47,4.86-.7-.72-1.41-1.45-2.11-2.17Z"/>
  <path class="cls-12" d="m305.22,190.33c-7.05.01-14.11.02-21.16.03,7.05-1.44,14.11-1.6,21.16-.03Z"/>
  <path class="cls-40" d="m107.33,300.37c1.64,6.67.74,13.43.74,20.17-1.46-6.68-.88-13.43-.74-20.17Z"/>
  <path class="cls-1" d="m272.29,298.55c-.23-6.08-.78-12.17.72-18.19.19,6.08.51,12.16-.72,18.19Z"/>
  <path class="cls-47" d="m192.09,146.49c1.94,5.32,1.46,10.66.2,16.02-.07-5.34-.14-10.68-.2-16.02Z"/>
  <path class="cls-36" d="m280.33,248.13c4.04,2.55,8.44.82,12.67,1.06-4.84,2.22-10.91,1.71-12.67-1.06Z"/>
  <path class="cls-4" d="m242.04,193.46c-1.86-4.17-.47-8.59-.97-12.86,2.34,4.13.53,8.58.97,12.86Z"/>
  <path class="cls-19" d="m327.08,220.47c-4.34-.07-8.69-.14-13.03-.21,4.37-1.19,8.72-1.75,13.03.21Z"/>
  <path class="cls-37" d="m160.02,91.41c.03,4.36.06,8.72.09,13.08-1.57-4.35-1.55-8.71-.09-13.08Z"/>
  <path class="cls-3" d="m236.09,172.53c4.37,0,8.74.01,13.11.02-4.37,1.7-8.74,1.34-13.11-.02Z"/>
  <path class="cls-11" d="m327.97,245.69c-3.62-.15-7.25-.29-10.87-.44,3.67-1.04,7.34-2,10.87.44Z"/>
  <path class="cls-10" d="m310.02,249.25c3.4-1.16,6.79-1.65,10.2-.02-3.4,0-6.8.01-10.2.02Z"/>
  <path class="cls-24" d="m270.27,105.48c-.11-3.31-.22-6.61-.33-9.92,2.38,3.23,1.28,6.58.33,9.92Z"/>
  <path class="cls-20" d="m302.04,225.57c3.39.02,6.79.03,10.18.05-3.4,1.36-6.8,1.42-10.18-.05Z"/>
  <path class="cls-45" d="m318.15,361.47c-3.35,1.5-6.7,1.5-10.05,0,3.35,0,6.7,0,10.05,0Z"/>
  <path class="cls-35" d="m135.2,257.69c1.79.25,2.97,1.14,4.14,2.1,13.82,11.44,27.69,22.8,44.96,28.92,2.21.78,3.93,2.65,2.55,5.03-1.11,1.91-2.95,3.23-5.79,2.04-17.69-7.45-32.83-18.74-47.3-31.07-1.54-1.31-2.26-2.87-1.47-4.86.55-1.41,1.84-1.79,2.91-2.16Z"/>
  <path class="cls-2" d="m331.91,121.41c3.17.98,6.62,2.42,7.56,6.79.9,4.21-.79,7.78-4.4,9.48-3.56,1.67-4.82,3.85-5.04,7.57-.35,5.89-4.31,9.37-9.55,10.77-3.51.94-4.88,2.65-5.48,5.96-.55,3.02-2.01,5.51-5.82,3.95-3.39-1.38-5.4-3.85-3.34-7.37,1.72-2.94,1.2-5.01-.41-7.71-5.46-9.13-.19-18.85,10.56-19.25,3.49-.13,5.45-1.1,6.8-4.29,1.52-3.6,4.35-5.78,9.13-5.88Z"/>
  <path class="cls-28" d="m227.32,64.37c-.38-1.06-1.19-2.18-1.06-3.17.29-2.07-1.78-5.21,2.48-5.78,3.79-.51,4.75,1.62,5.48,4.68,2.19,9.29.16,18.05-3.04,26.7-.27.74-.52,1.49-.79,2.29,7.61.31,13.74-4.39,15.39-12.05,1.02-4.74,1-9.67-.63-14.26-.75-2.1-.81-4.12-1.09-6.19-.3-2.23.02-3.95,2.85-4.14,2.53-.17,4.1.49,4.49,3.3.49,3.56,1.25,7.09,1.89,10.64.56,3.4.49,6.81.03,10.21-2.04,12.68-10.36,19.82-23.13,19.9-3.25.02-6.47-.24-9.56,1.6-1.37.82-3.59.59-5.34.3-1.91-.31-3.1-1.74-3.17-3.83-.05-1.43.26-3.02,1.89-2.97,8.17.25,9.47-6.4,11.96-11.77.75-1.61.87-3.51,1.28-5.28.69-3.38.59-6.77.06-10.17Z"/>
  <path class="cls-15" d="m247.06,151.63c-2.26-.26-4.59-.11-6.7-1.17-2.05-1.03-3.54-2.52-3.05-5.01.5-2.54,2.69-2.2,4.41-2,4.93.58,9.84,1.5,14.82.95,2.59-.29,3.55,1.26,4.2,3.22.76,2.27-.65,3.3-2.54,3.96-3.71.6-7.42.5-11.14.05Z"/>
  <path class="cls-16" d="m255.72,126.47c2.18-.5,4.18.43,4.14,2.68-.05,2.89-2.64,4.73-5.1,5.11-2.24.35-3.65-1.92-3.74-4.21-.13-3.08,1.86-3.9,4.7-3.58Z"/>
  <path class="cls-31" d="m238.32,104.66c.02,2.41-1.23,3.75-3.6,3.75-2.2,0-3.32-1.5-3.46-3.5-.17-2.44,1.16-3.53,3.65-3.52,2.29.01,3.38,1,3.4,3.27Z"/>
  <path class="cls-29" d="m269.23,105.65c-.54,2.94-1.9,4-4.31,3.85-2.49-.16-2.95-1.85-2.9-3.81.06-2.11,1.18-3.61,3.39-3.45,2.27.16,3.04,2.12,3.81,3.4Z"/>
  <path class="cls-38" d="m247.06,151.63c3.71-.02,7.43-.04,11.14-.05-3.71,1.52-7.42,1.38-11.14.05Z"/>
  <path class="cls-18" d="m253.33,76.58l-.03-10.21c1.3,3.4,1.42,6.8.03,10.21Z"/>
  <path class="cls-39" d="m227.32,64.37c1.48,3.4,1.26,6.79-.06,10.17.02-3.39.04-6.78.06-10.17Z"/>
  <path class="cls-26" d="m212.67,221.47c-4.27-.51-8.23-2.1-12.2-3.62-8.37-3.2-15.97-7.81-23.17-13.08-1.71-1.25-2.9-2.93-1.62-5.11,1.18-2.02,3.29-1.42,4.95-1.05,1.37.3,2.6,1.36,3.84,2.16,9.62,6.15,19.4,11.92,30.96,13.68,2.33.36,3.03,2.02,2.67,3.99-.55,3.03-2.94,3.17-5.44,3.03Z"/>
</svg>