<?xml version="1.0" standalone="no"?>
<!DOCTYPE svg PUBLIC "-//W3C//DTD SVG 20010904//EN"
 "http://www.w3.org/TR/2001/REC-SVG-20010904/DTD/svg10.dtd">
<svg version="1.0" xmlns="http://www.w3.org/2000/svg"
 width="512.000000pt" height="512.000000pt" viewBox="0 0 512.000000 512.000000"
 preserveAspectRatio="xMidYMid meet">
<metadata>
Created by potrace 1.16, written by Peter Selinger 2001-2019
</metadata>
<g transform="translate(0.000000,512.000000) scale(0.100000,-0.100000)"
fill="#000000" stroke="none">
<path d="M2305 4464 c-358 -48 -696 -197 -974 -429 -881 -735 -926 -2078 -95
-2864 653 -618 1631 -706 2379 -214 924 608 1144 1856 485 2748 -263 356 -672
626 -1097 725 -208 49 -490 63 -698 34z m525 -169 c372 -58 702 -226 970 -495
270 -269 432 -588 497 -975 20 -121 20 -411 0 -530 -66 -391 -226 -704 -497
-975 -419 -420 -1010 -598 -1593 -480 -653 133 -1183 635 -1347 1280 -40 158
-52 258 -52 440 0 238 30 407 109 620 171 458 548 840 1002 1015 292 113 608
147 911 100z"/>
<path d="M2435 3984 c-16 -2 -64 -9 -105 -14 -41 -6 -126 -27 -189 -46 -523
-162 -900 -592 -991 -1130 -93 -555 152 -1117 625 -1428 533 -352 1245 -301
1730 122 411 360 580 936 430 1463 -148 519 -589 920 -1115 1014 -84 15 -327
27 -385 19z m331 -174 c169 -27 392 -119 529 -219 156 -114 312 -297 397 -465
157 -312 175 -692 49 -1020 -36 -93 -107 -223 -161 -296 -107 -145 -302 -307
-465 -388 -338 -167 -779 -166 -1117 4 -469 236 -743 724 -698 1242 17 190 68
355 161 517 65 113 101 161 197 259 291 298 695 431 1108 366z"/>
</g>
</svg>
